<?xml version="1.0" encoding="utf-8"?>
<!-- Generator: Adobe Illustrator 16.0.3, SVG Export Plug-In . SVG Version: 6.00 Build 0)  -->
<!DOCTYPE svg PUBLIC "-//W3C//DTD SVG 1.1//EN" "http://www.w3.org/Graphics/SVG/1.1/DTD/svg11.dtd">
<svg version="1.1" xmlns="http://www.w3.org/2000/svg" xmlns:xlink="http://www.w3.org/1999/xlink" x="0px" y="0px"
	 width="507.11px" height="364.234px" viewBox="0 0 507.11 364.234" enable-background="new 0 0 507.11 364.234"
	 xml:space="preserve">
<g id="Background">
</g>
<g id="Text">
	<g id="Layer_4">
		<g>
			<path fill-rule="evenodd" clip-rule="evenodd" fill="#2A5663" d="M469.417,65.476c-5.771-2.586-11.535-5.185-17.313-7.755
				c-12.547-5.582-23.726-13.388-34.825-21.334c-1.334-0.955-2.876-1.616-4.321-2.414c-0.272,0.318-0.544,0.636-0.816,0.955
				c1.018,1.827,1.71,3.968,3.114,5.421c4.636,4.798,9.049,10.021,14.422,13.855c11.773,8.4,24.683,14.151,39.738,12.713
				 M414.79,278.094c0.18-0.494,0.359-0.988,0.54-1.482c-3.516-1.002-7.011-2.082-10.549-2.996
				c-32.636-8.428-60.326-24.766-81.719-51.133c-9.566-11.79-17.148-24.809-23.483-38.579c-0.942-2.048-2.051-4.02-3.083-6.026
				c-0.432,0.251-0.864,0.502-1.296,0.753c5.665,28.62,20.653,51.837,42.932,70.377C360.299,267.455,385.748,277.84,414.79,278.094z
				 M90.235,279.256c0.334,0.617,0.668,1.235,1.001,1.852c31.919-0.5,59.25-12.659,82.48-34.291
				c19.153-17.834,32.153-39.351,37.006-65.206c-0.501-0.419-1.002-0.839-1.503-1.258
				C187.082,234.422,147.646,267.662,90.235,279.256z M283.038,66.571c12.299,5.426,144.953,6.508,156.449,1.402
				C429.292,62.65,296.275,61.351,283.038,66.571z M223.392,65.398c0.005-0.599,0.01-1.198,0.015-1.796
				c-2.556-0.335-5.105-0.899-7.668-0.968c-22.543-0.604-45.096-1.738-67.632-1.498c-24.814,0.265-49.616,1.795-74.419,2.839
				c-2.141,0.09-4.261,0.665-6.39,1.015c0.054,0.57,0.107,1.141,0.161,1.711C119.468,70.228,171.444,69.673,223.392,65.398z
				 M49.883,291.367c8.767,2.292,17.172,4.114,25.323,6.727c8.191,2.626,16.164,5.956,24.173,9.129
				c10.013,3.968,19.943,8.144,29.956,12.11c2.74,1.086,5.65,1.743,8.483,2.597c0.122-0.396,0.245-0.791,0.367-1.187
				c-25.998-16.415-53.641-28.305-85.832-29.86c4.529-3.687,8.314-6.768,12.1-9.848c3.72-3.027,7.471-6.016,11.151-9.089
				c3.773-3.15,7.509-6.347,11.203-9.589c3.603-3.163,7.201-6.336,10.673-9.64c3.425-3.258,6.689-6.685,10.024-10.037
				c-0.372-0.373-0.744-0.745-1.115-1.117C85.976,256.28,68.35,274.187,49.883,291.367z M453.604,287.916
				c-32.189,1.525-59.809,13.433-85.616,30.417c1.383,0.256,2.64,0.082,3.799-0.354c8.289-3.119,16.668-6.033,24.811-9.5
				c15.651-6.665,31.237-13.461,47.891-17.319c3.75-0.869,7.553-1.503,11.816-2.341c-0.864-0.93-1.234-1.385-1.662-1.781
				c-12.586-11.648-25.097-23.379-37.812-34.887c-4.611-4.174-9.688-7.837-14.602-11.67c-0.886-0.691-2.013-1.074-3.028-1.6
				c-0.191,0.316-0.381,0.632-0.572,0.948C415.094,257.469,434.38,271.938,453.604,287.916z M411.997,104.906
				c0.457,0.093,1.056,0.414,1.305,0.238c16.981-11.969,34.608-22.779,54.062-30.339c0.662-0.257,1.309-0.551,2.571-1.086
				C454.773,68.149,418.246,86.179,411.997,104.906z M37.176,70.998c1.896,1.113,3.02,1.918,4.257,2.474
				c4.687,2.107,9.668,3.693,14.07,6.274c11.636,6.822,23.023,14.069,34.523,21.124c1.375,0.844,2.835,1.553,5.026,2.742
				C88.876,84.57,53.502,66.123,37.176,70.998z"/>
			<path fill-rule="evenodd" clip-rule="evenodd" fill="#2A5663" d="M37.667,58.389c4.972-2.305,9.896-4.724,14.927-6.893
				c12.145-5.236,23.198-12.284,33.833-20.054c2.208-1.613,4.461-3.163,6.693-4.741c0.48,0,0.96,0,1.44,0
				c-0.763,1.965-1.121,4.239-2.351,5.846C80.191,48.239,64.304,57.362,44.681,59.785c-2.275,0.281-4.673-0.426-7.014-0.676
				C37.667,58.869,37.667,58.629,37.667,58.389z"/>
			<path fill-rule="evenodd" clip-rule="evenodd" fill="#2A5663" d="M469.417,66.916c-15.056,1.438-27.965-4.313-39.738-12.713
				c-5.374-3.833-9.787-9.057-14.422-13.855c-1.404-1.453-2.096-3.594-3.114-5.421c0.272-0.318,0.543-0.636,0.816-0.955
				c1.445,0.798,2.987,1.459,4.321,2.414c11.099,7.947,22.278,15.752,34.825,21.334c5.778,2.57,11.542,5.169,17.313,7.755
				C469.417,65.956,469.417,66.436,469.417,66.916z"/>
			<path fill-rule="evenodd" clip-rule="evenodd" fill="#2A5663" d="M414.79,278.094c-29.042-0.254-54.491-10.639-76.659-29.086
				c-22.279-18.54-37.267-41.757-42.932-70.377c0.432-0.251,0.864-0.502,1.296-0.753c1.032,2.007,2.14,3.979,3.083,6.026
				c6.335,13.771,13.917,26.789,23.483,38.579c21.393,26.367,49.083,42.705,81.719,51.133c3.538,0.914,7.033,1.994,10.549,2.996
				C415.149,277.105,414.97,277.6,414.79,278.094z"/>
			<path fill-rule="evenodd" clip-rule="evenodd" fill="#2A5663" d="M90.235,279.256c57.411-11.594,96.846-44.834,118.985-98.903
				c0.501,0.419,1.002,0.839,1.503,1.258c-4.854,25.855-17.853,47.372-37.006,65.206c-23.231,21.631-50.562,33.791-82.48,34.291
				C90.903,280.491,90.569,279.873,90.235,279.256z"/>
			<path fill-rule="evenodd" clip-rule="evenodd" fill="#2A5663" d="M283.038,66.571c13.237-5.22,146.254-3.921,156.449,1.402
				C427.991,73.079,295.337,71.997,283.038,66.571z"/>
			<path fill-rule="evenodd" clip-rule="evenodd" fill="#2A5663" d="M223.392,65.398c-51.947,4.275-103.924,4.829-155.934,1.304
				c-0.054-0.571-0.107-1.141-0.161-1.711c2.129-0.35,4.249-0.925,6.39-1.015c24.804-1.044,49.605-2.575,74.419-2.839
				c22.537-0.24,45.089,0.894,67.632,1.498c2.563,0.069,5.113,0.633,7.668,0.968C223.401,64.201,223.396,64.8,223.392,65.398z"/>
			<path fill-rule="evenodd" clip-rule="evenodd" fill="#2A5663" d="M49.883,291.367c18.467-17.18,36.093-35.087,56.507-49.804
				c0.372,0.372,0.744,0.744,1.115,1.117c-3.335,3.353-6.6,6.779-10.024,10.037c-3.473,3.303-7.071,6.477-10.673,9.64
				c-3.694,3.243-7.43,6.439-11.203,9.589c-3.681,3.074-7.432,6.063-11.151,9.089c-3.786,3.08-7.57,6.161-12.1,9.848
				c32.191,1.556,59.834,13.446,85.832,29.86c-0.123,0.396-0.245,0.792-0.367,1.187c-2.833-0.854-5.743-1.511-8.483-2.597
				c-10.013-3.967-19.943-8.143-29.956-12.11c-8.009-3.173-15.981-6.503-24.173-9.129C67.055,295.481,58.649,293.66,49.883,291.367z
				"/>
			<path fill-rule="evenodd" clip-rule="evenodd" fill="#2A5663" d="M453.604,287.916c-19.224-15.978-38.51-30.447-54.975-48.087
				c0.19-0.316,0.381-0.632,0.572-0.948c1.016,0.525,2.142,0.909,3.028,1.6c4.914,3.833,9.991,7.496,14.602,11.67
				c12.714,11.508,25.226,23.239,37.812,34.887c0.427,0.396,0.798,0.851,1.662,1.781c-4.264,0.838-8.067,1.473-11.816,2.341
				c-16.654,3.858-32.24,10.654-47.891,17.319c-8.142,3.467-16.521,6.381-24.811,9.5c-1.159,0.436-2.417,0.611-3.799,0.354
				C393.794,301.349,421.414,289.441,453.604,287.916z"/>
			<path fill-rule="evenodd" clip-rule="evenodd" fill="#2A5663" d="M411.997,104.906c6.25-18.727,42.776-36.757,57.938-31.187
				c-1.263,0.535-1.909,0.829-2.571,1.086c-19.454,7.561-37.081,18.37-54.062,30.339
				C413.052,105.319,412.453,104.999,411.997,104.906z"/>
			<path fill-rule="evenodd" clip-rule="evenodd" fill="#2A5663" d="M37.176,70.998c16.326-4.875,51.7,13.572,57.876,32.614
				c-2.191-1.189-3.65-1.897-5.026-2.742c-11.5-7.055-22.887-14.302-34.523-21.124c-4.402-2.581-9.383-4.167-14.07-6.274
				C40.196,72.916,39.071,72.111,37.176,70.998z"/>
		</g>
	</g>
</g>
<g id="Layer_2">
</g>
</svg>
