<?xml version="1.0" encoding="utf-8"?>
<!-- Generator: Adobe Illustrator 16.0.0, SVG Export Plug-In . SVG Version: 6.00 Build 0)  -->
<!DOCTYPE svg PUBLIC "-//W3C//DTD SVG 1.1//EN" "http://www.w3.org/Graphics/SVG/1.1/DTD/svg11.dtd">
<svg version="1.1" xmlns="http://www.w3.org/2000/svg" xmlns:xlink="http://www.w3.org/1999/xlink" x="0px" y="0px"
	 width="547.222px" height="201.344px" viewBox="0 0 547.222 201.344" enable-background="new 0 0 547.222 201.344"
	 xml:space="preserve">
<g id="Background">
</g>
<g id="Text">
	<g id="Layer_4">
		<g>
			<path fill-rule="evenodd" clip-rule="evenodd" fill="none" d="M143.794,166.984c0.698-2.229,1.407-4.458,2.106-6.687
				c7.1-15.061,9.02-31.858,15.792-47.062c1.521-3.417,2.54-7.753-2.884-9.589c-2.161-7.887-5.149-15.216-12.96-19.306
				c-0.613-3.317,0.753-6.051,2.395-8.791c3.973-6.621,3.144-11.813-4.701-14.711c0.156-3.667,0.95-7.438-1.649-10.682
				c-0.855-5.157-7.126-6.198-8.284-11.498c-1.426-6.531-6.505-8.578-12.854-7.818c-1.442-1.391-2.895-2.782-4.346-4.168
				c-2.505-1.845-5.365-5.593-7.481-5.218C95.271,23.892,89.06,14.389,81.854,6.023c-1.19-1.386-2.107-3.891-5.752-3.235
				c-0.044,11.724-8.786,13.325-18.099,14.79c-2.029,0.319-5.131,0.372-6.271,4.284c-1.512,5.232-4.483,12.346-8.89,0.865
				c-0.39,2.569-0.753,4.932-1.114,7.338c-7.264-1.845-26.736,5.731-30.674,12.764c-9.228,16.426-1.003,29.488,9.068,41.145
				c0.441,4.047-5.649-0.082-4.216,4.51c-4.042-0.152-6.427,1.891-8.137,5.463c-3.662,7.676-6.764,15.42-5.623,24.188
				c5.935,21.626,15.521,41.806,24.187,62.378c5.582,13.252,15.324,17.212,28.446,16.258c3.127-0.6,5.296,3.534,8.665,1.771
				c2.073,0.242,4.148,0.483,6.229,0.725c2.728,2.717,5.605,2.665,8.596,0.449c1.354-0.329,2.712-0.661,4.068-0.994
				c1.382,0.354,2.754,0.709,4.136,1.063 M335.854,173.563c6.364-18.582,12.844-37.124,19.022-55.771
				c1.208-3.672,4.533-7.779,0.354-11.627c-7.076-6.505-10.453-16.072-18.296-21.912c0.604-2.617-0.467-5.316,1.538-7.952
				c6.614-8.694,6.012-23.795-0.935-32.783c-0.889-1.218-1.777-2.44-2.668-3.659c-6.195-8.392-15.68-12.694-23.541-19.013
				c-6.437-9.77-18.2-8.535-27.143-13.13c-14.392-8.129-22.624-5.089-23.575,8.708c-7.489-4.898-11.807,0.738-16.532,4.984
				c-1.27-0.372-2.031,0.108-2.324,1.369c-0.623-0.017-1.2,0.13-1.737,0.432c-7.274,0.138-13.501,1.464-13.182,10.885
				c0.078,2.281-1.252,4.237-3.275,5.071c-6.159,2.535-7.653,6.458-2.46,12.966c-7.489,0.221-13.078,1.796-20.483,4.436
				c7.965,4.652,3.3,9.153,0.571,14.016c4.63,2.583,8.785,4.903,12.941,7.222c2.66,0.168,5.32,0.337,7.973,0.501
				c0.061,1.206,0.112,2.411,0.164,3.611c-0.769,0.613-1.538,1.223-2.297,1.835c-6.255,0.07-9.746,3.425-13.305,8.544
				c-2.66,3.839-1.788,9.313-6.012,11.83c-8.915,5.305-6.203,11.926-1.288,17.476c2.039,2.302,0.449,5.494,3.257,6.807
				c-1.355,4.008,1.148,7.148,2.35,10.595c4.01,11.52,7.964,23.052,11.946,34.58 M458.141,198.662
				c12.854-1.149,25.991,0.54,38.553-3.737c3.697,0.354,7.525,0.994,8.991-3.853c3.811-0.726,9.547,0.454,6.351-6.893
				c-1.563-3.59,1.606-6.716,1.563-10.225l0.121-0.268c3.284,0.273,6.065-0.186,6.229-4.371c5.676-17.074,16.111-33.388,8.414-52.6
				c5.035-2.821,12.708-2.652,12.672-11.196c6.754,0.605,7.118-3.312,5.141-7.959c-3.343-7.87-7.837-14.906-16.492-18.011
				c5.097-7.136,5.229-16.275,9.97-23.765c-3.411-1.001-6.711-2.268-8.612,1.404c-1.262,2.45-2.402,3.201-4.761,1.767
				c-2.427-1.473-2.089-3.243-0.683-5.248c3.127-4.432,4.346-10.557,0.814-13.692c-9.211-8.154-18.653-17.259-32.941-14.262
				l-0.301-0.544c0.776-2.095,0.709-3.711-2.144-3.728c-0.447-0.13-0.818-0.384-1.106-0.765c-0.18-1.317-0.948-2.03-2.253-2.198
				c-2.688-0.843-5.372-1.69-8.061-2.536c-3.395-6.851-11.695-6.445-16.482-12.712c-2.21,5.944-3.144,10.591-2.842,15.484
				c-2.064,0.018-4.13,0.039-6.193,0.061c-0.908,0.052-1.815,0.104-2.729,0.156c-0.275-1.434-0.959-2.415-2.574-1.9
				c-0.122,0.038,0.226,1.537,0.346,2.358c-0.183,0.345-0.432,0.631-0.751,0.855c-3.016-0.562-5.78-2.652-9.079-1.478
				c-3.938,1.814-2.377,5.145-2.229,8.09c-0.389,0.268-0.734,0.574-1.054,0.916c-2.297,1.456-6.004,0.013-7.318,3.529
				c-0.291,0.479-0.491,0.994-0.603,1.542c-10.816,2.773-22.332,3.265-31.877,10.138c-8.336,5.99-8.51,12.771-0.285,20.093
				c-0.552,2.094-1.114,4.189-1.666,6.284c-1.789,5.119,3.723,10.034,0.432,15.195c-3.224,4.328-8.596,7.744-6.144,14.479
				c-0.199,1.525-0.396,3.054-0.587,4.579c-4.629,0.678-6.962,2.933-4.873,7.718c1.626,3.715,2.005,7.987,4.941,11.113
				c2.651,7.619,5.936,15.096,7.784,22.909c2.065,8.726,8.38,16.206,7.394,25.756"/>
			<path fill-rule="evenodd" clip-rule="evenodd" fill="#B77F24" d="M336.934,84.253c7.843,5.84,11.22,15.407,18.296,21.912
				c4.18,3.849,0.854,7.956-0.354,11.627c-6.179,18.646-12.658,37.189-19.022,55.771c-1.616,3.334-3.222,6.668-4.839,10.002
				c-6.323,0.462-11.54,3.439-17.231,6.008c-8.001,3.607-17.589,3.689-26.505,5.279c-2.886-0.173-5.19,1.252-7.463,2.76
				c-6.178-0.648-12.63-2.734-18.47-1.611c-9.467,1.818-18.09-1.455-27.065-2.216c-11.799-1.002-12.981-12.215-17.363-20.201
				c-3.982-11.528-7.937-23.06-11.946-34.58c-1.201-3.447-3.705-6.587-2.35-10.595c1.676-2.207,3.853-5.667,6.472-2.578
				c4.283,5.075,11.176,7.874,11.687,16.525c0.449,7.813,3.887,15.45,6.124,23.562c3.171-2.591,0.104-6.293,3.301-7.991
				c3.86,3.533,2.738,9.584,7.014,13.921c0.146-15.243-8.611-28.607-4.767-43.292c7.419,20.214,7.833,42.182,17.147,61.83
				c-3-19.916-5.995-39.832-8.985-59.744c1.288-0.254,2.574-0.505,3.87-0.756c7.428,15.67,2.219,34.545,11.03,50.056
				c-0.966-16.43-2.634-32.826-0.889-50.371c7.843,10.88,0.346,24.495,9.173,34.722c3.499-11.839-6.822-24.693,5.107-36.855
				c4.283,15.497,4.12,29.639,5.642,43.538c2.201-11.507-0.935-23.307,2.616-34.696c0.839-2.683,0.595-6.018,3.87-6.881
				c4.622-1.217,4.154,4.294,6.523,6.233c2.167-2.976,4.006-5.511,5.647-7.766c4.053-0.216,3.543,6,7.637,4.651
				c2.289-2.768,4.45-5.385,6.609-7.999c13.207-1.24,26.356-2.428,37.568-10.833c6.928-5.193,6.538-7.024-0.915-11.663
				c-5.899-3.663-11.464,0.661-17.537-0.609c0.829-7.684-1.132-12.729-9.113-10.894c-2.644,2.147,0.112,5.244-3.215,7.071
				c-1.882-3.602-6.521-3.615-8.896-6.85c1.19-3.378,3.092-5.576,6.746-7.118c5.882-2.476,11.947-5.058,16.429-10.008
				c3.95,0.448,5.305,3.062,4.674,6.496C332.552,83.553,333.771,84.603,336.934,84.253z"/>
			<path fill-rule="evenodd" clip-rule="evenodd" fill="#F3A1A0" d="M143.542,60.839c7.845,2.898,8.674,8.09,4.701,14.711
				c-1.642,2.739-3.008,5.473-2.395,8.791c-3.222,0.238-7.323-1.771-8.611,3.386c-0.518,0.125-1.037,0.237-1.556,0.336
				c-3.292-5.58-15.522-4.263-11.085-15.701c-15.082,4.043-29.55,7.442-43.665,11.969c-5.157,1.655-11.352-3.852-15.387,2.708
				c-5.959-0.479-10.66,2.712-15.549,5.325c-3.43,1.309-7.957,0.268-9.95,4.647c-7.102,2.596-10.367-5.174-16.217-5.981
				c-2.633-0.851-5.276-1.698-7.921-2.548c-1.434-4.591,4.657-0.462,4.216-4.51C10.053,72.315,1.828,59.254,11.056,42.828
				c3.938-7.032,23.41-14.608,30.674-12.764c0.361-2.406,0.725-4.769,1.114-7.338c4.406,11.481,7.378,4.367,8.89-0.865
				c1.14-3.912,4.241-3.964,6.271-4.284c9.313-1.465,18.055-3.066,18.099-14.79c3.645-0.656,4.562,1.85,5.752,3.235
				c7.205,8.366,13.416,17.869,27.073,15.433c2.116-0.375,4.977,3.373,7.481,5.218c-1.183,0.462-2.367,0.929-3.552,1.391
				c3.715-2.146,3.403,7.148,7.897,2.777c6.349-0.76,11.428,1.287,12.854,7.818c1.158,5.299,7.429,6.341,8.284,11.498
				c-2.564,0.713-5.009-2.967-7.731-0.212c1.156,4.346,2.299,8.656,3.438,12.967c3.524,4.151,3.559,0.393,4.25-1.875l0.813-0.384
				L143.542,60.839z M67.981,32.997c2.79,0.013,5.848,1.188,7.949-1.805c0.723-0.799,1.45-1.598,2.177-2.397
				c2.868,3.218,6.954,2.742,10.633,3.511c0.647-0.444,1.286-0.89,1.936-1.334L90.59,30.82c3.188,1.292,6.366,2.596,9.554,3.866
				c2.098,0.829,4.223,1.032,5.243-1.439c1.053-2.548-0.726-3.921-2.826-4.591c-4.518-1.438-9.009-3.792-13.88-1.161
				c-4.104-0.964-7.741-4.415-12.423-2.294c-4.553,0.147-8.847,0.752-10.669,5.87c-0.251,1.209-2.064,2.471-0.709,3.529
				C66.254,35.666,67.231,34.124,67.981,32.997z M54.937,82.829c3.975-1.228,7.94-2.458,11.915-3.685
				c8.04-2.405,16.075-4.811,24.117-7.212c2.608-0.238,5.588,0.271,6.73-4.086c-2.54,0.16-4.51-1.101-6.463-2.397
				c-0.95-2.422-4.959-2.777-4.294-6.302l-0.06-0.682c1.884-0.073,3.767-0.147,5.64-0.225c0.762,0.022,1.515,0.048,2.273,0.069
				c5.632-0.281,9.538-3.813,13.641-7.261c-6.523,2.121-13.701-0.496-19.826,3.326c-3.489,0.739-6.979,1.477-10.471,2.22
				c5.787-8.046,16.744-4.388,23.446-10.344c3.663-0.501,6.658-1.758,7.999-6.151c-4.001,0.216-5.547,2.782-7.775,4.212
				c-5.647-1.106-11.384-2-15.342-6.876c-0.621-2.609-2.349-1.814-3.749-1.002c-0.569,0.333-0.673,1.477-0.984,2.251
				c0.942,0.069,1.883,0.138,2.815,0.203c-6.435,3.269-14.027,3.477-19.688,8.522c-1.961-4.255,3.743-4.419,2.351-8.069
				c-4.863,0.286-9.874,0.069-14.641,1.02c-3.499,0.7-7.094,3.598-5.694,7.516c1.899,5.321,4.848,0.28,7.396-0.177
				c0.889-0.16,1.941,0.574,1.993,0.591c2.057,7.909-6.063,13.831-3.125,21.683c5.182,0.354,8.198-4.881,13.154-4.06
				c1.702,3.037,0.848,6.228,0.839,9.347c-2.72,0.061-5.452,0.117-8.172,0.182c-5.183-2.609-7.481-0.276-8.206,4.773
				c-3.146,3.049-9.001,0.652-11.498,5.775C44.935,86.198,50.566,87.786,54.937,82.829z M127.397,71.499
				c2.592-0.372,3.782-0.199,4.483-0.713c1.504-1.102,4.302-2.829,1.192-4.449C129.773,64.613,129.574,68.571,127.397,71.499z
				 M36.692,36.141c-1.728-0.19-2.393,0.609-2.41,1.753c-0.008,0.505,0.761,1.491,1.028,1.443c0.889-0.16,2.151-0.483,2.463-1.131
				C38.248,37.204,37.436,36.327,36.692,36.141z"/>
			<path fill-rule="evenodd" clip-rule="evenodd" fill="#4B6C77" d="M403.215,171.148c0.986-9.55-5.328-17.031-7.394-25.756
				c-1.849-7.813-5.133-15.29-7.784-22.909c3.69-0.483,3.932-8.819,8.751-4.95c5.271,4.233,14.781,1.857,16.732,10.962
				c0.155,0.709,2.075,1.801,2.316,1.616c6.79-5.273,5.676,3.046,8.344,4.76c0.45,0.29,1.091,0.297,1.598,0.423
				c1.678-2.268-0.811-5.883,2.887-7.732c3.62,1.607,3.005,7.054,7.016,8.475c2.538-2.407,1.622-6.989,5.424-8.484
				c2.964-0.069,4.139,3.767,7.55,3.023c8.476-1.839,16.905-2.803,24.369,3.404c2.324,1.93,3.473-0.583,5.166-1.741
				c3.741-2.557,6.149-0.165,7.084,3.239c0.923,3.403,0.232,6.923-0.667,10.436c-2.85,11.13-4.421,22.404-2.021,33.937
				c4.346-14.189,4.493-29.091,6.515-44.756c7.178,4.733,4.102,9.951,3.938,14.875c-0.51,15.096-14.036,31.341,3.654,44.955
				c-12.562,4.277-25.699,2.587-38.553,3.737c-0.244-2.544-2.057-4.397-4.138-3.512c-10.506,4.484-20.699-1.826-30.971-0.505
				c-10.245,1.317-14.261-3.308-13.985-12.958c-0.483-3.02-0.923-6.06-3.335-8.315c-0.588-1.139-0.596-2.984-2.729-2.267
				L403.215,171.148z"/>
			<path fill-rule="evenodd" clip-rule="evenodd" fill="#B73855" d="M82.34,198.722c-1.356,0.333-2.715,0.665-4.068,0.994
				c-2.816-1.079-5.685-1.295-8.596-0.449c-2.081-0.242-4.156-0.483-6.229-0.725c-0.226-1.43-0.449-2.86-0.673-4.294
				c-1.236-7.597-1.953-15.324-3.811-22.766c-3.006-12.081-1.426-25.212-8.328-36.377c5.322-2.63,2.36-6.815,1.969-10.517
				c2.818-0.117,5.635-0.229,8.45-0.346c0.258,0.315,0.554,0.57,0.907,0.773c-3.05,18.582,1.443,36.472,4.69,56.94
				c2.824-20.853-2.125-38.916-1.849-57.182c0.935-0.147,1.865-0.293,2.808-0.437c1.649,0.186,3.325,0.324,4.286,2
				c1.753,20.632,1.933,41.469,5.934,61.813c1.104-0.082,2.211-0.16,3.317-0.242c0-19.42,0-38.834,0-58.254
				c0.914-0.061,1.821-0.121,2.737-0.182c6.082,9.774,0.011,21.938,5.406,32.148c1.857-12.271,1.271-24.693,3.491-36.801
				c16.864-1.745,33.44-5.114,49.973-8.729c6.128-1.339,12.354-2.937,13.893-10.513c0.727-0.644,1.441-1.287,2.161-1.932
				c5.424,1.836,4.405,6.172,2.884,9.589c-6.772,15.204-8.692,32.001-15.792,47.062c1.435-5.636-6.253-7.191-5.156-12.716
				c-1.668,7.693-3.447,14.976-7.439,21.536l0.062,0.056c-0.423-4.419,1.156-9.005-1.763-15.036
				c-4.103,8.406-2.237,17.511-8.664,26.296c1.019-8.898,3.603-15.442,0.891-22.504c-5.053,5.369-1.59,13.178-7.793,18.417
				c0-7.766,0-14.755,0-24.118c-5.432,15.415-0.967,32.843-19.41,39.348c-1.892-1.607-2.091-7.381-6.221-4.618
				C86.451,189.609,80.36,191.66,82.34,198.722z"/>
			<path fill-rule="evenodd" clip-rule="evenodd" fill="#A4D9D9" d="M395.934,63.116c-8.225-7.322-8.051-14.103,0.285-20.093
				c9.545-6.873,21.061-7.365,31.877-10.138c1.925,0.268,3.79,0.303,5.261-1.291c1.078,0.013,2.158,0.021,3.23,0.034
				c0.941,1.016,1.788,1.206,2.427-0.285c0.621-0.312,1.252-0.592,1.899-0.833c1.011,0.047,2.014,0.095,3.023,0.143
				c3.577-1.965,5.011-6.734,9.606-7.377c-0.889,2.367-3.531,4.54-0.906,7.412c3.507,0.51,6.159-0.686,8.128-3.503
				c0.571-0.026,1.123-0.125,1.668-0.298c2.53,1.326,4.769,4.285,7.975,1.542c-2.125-3.524-3.837-7.316-6.463-10.301
				c-1.114-1.257-1.234,1.356-1.666,2.311c-0.667-0.561-1.332-1.124-1.997-1.681c-0.302-4.893,0.632-9.54,2.842-15.484
				c4.787,6.267,13.088,5.861,16.482,12.712c-1.917,0.492-3.826,0.979-6.813,1.749c7.159,4.842,12.817,9.706,13.517,18.197
				c0.104,1.218,2.299-0.405,3.551-0.539c1.538,0.669,3.075,1.343,4.613,2.012c2.86-0.626,6.618,5.598,8.406-0.311
				c1.64-5.433-4.252-3.767-6.809-5.249l0.08,0.212c-0.891-2.099-1.781-4.198-2.681-6.301c14.288-2.998,23.73,6.107,32.941,14.262
				c3.531,3.135,2.313,9.261-0.814,13.692c-1.406,2.004-1.744,3.774,0.683,5.248c2.358,1.434,3.499,0.683,4.761-1.767
				c1.901-3.672,5.201-2.405,8.612-1.404c-4.741,7.49-4.873,16.629-9.97,23.765c-3.695,0.215-7.378,0.449-10.046,3.563
				c-4.873-2.258-7.422,5.36-12.334,2.903c1.77-8.276-6.531-18.845,7.461-24.672c-7.921-0.756-12.238,3.641-17.491,5.382
				c-6.055,2.008-6.307-1.305-5.313-5.776c-2.696-4.155-6.86-1.641-10.333-2.272c1.668-2.526,2.584-5.247,2.073-8.318l0.044-0.035
				c2.72-0.483,5.476-1.265,1.841-4.164c-2.395-1.917-5.399-3.209-8.717-1.792c-1.278-0.168-2.559-0.336-3.837-0.505
				c1.21-3.063,5.416-0.726,6.299-2.652c-1.494-5.571-4.717-7.122-9.614-8.582c-7.214-2.156-12.812,2.539-19.29,1.969
				c-3.214,0.73-6.427,1.46-9.641,2.19c-0.483-0.182-0.839-0.034-1.063,0.433c-2.6-0.061-6.764-4.795-6.938,2.34
				c-0.24,0.58-0.276,1.17-0.086,1.767c-0.847,0.769-1.692,1.534-2.549,2.303c-4.336-0.38-8.18,1.542-12.173,2.703
				c-7.058,2.056-15.573,2.199-16.844,12.253c-3.421-0.552-5.061,0.631-4.172,4.281L395.934,63.116z"/>
			<path fill-rule="evenodd" clip-rule="evenodd" fill="#E2B24E" d="M307.45,124.518c-2.159,2.613-4.32,5.23-6.609,7.999
				c-4.094,1.348-3.584-4.867-7.637-4.651c-1.642,2.255-3.48,4.79-5.647,7.766c-2.369-1.939-1.901-7.45-6.523-6.233
				c-3.275,0.864-3.031,4.199-3.87,6.881c-3.551,11.39-0.415,23.189-2.616,34.696c-1.521-13.899-1.358-28.041-5.642-43.538
				c-11.93,12.163-1.608,25.017-5.107,36.855c-8.827-10.227-1.33-23.842-9.173-34.722c-1.745,17.545-0.077,33.941,0.889,50.371
				c-8.812-15.51-3.603-34.385-11.03-50.056c-1.296,0.25-2.582,0.501-3.87,0.756c2.99,19.912,5.985,39.828,8.985,59.744
				c-9.314-19.648-9.729-41.616-17.147-61.83c-3.845,14.685,4.913,28.049,4.767,43.292c-4.275-4.337-3.153-10.388-7.014-13.921
				c-3.197,1.697-0.13,5.399-3.301,7.991c-2.237-8.112-5.675-15.749-6.124-23.562c-0.511-8.652-7.403-11.451-11.687-16.525
				c-2.619-3.089-4.796,0.372-6.472,2.578c-2.808-1.313-1.218-4.505-3.257-6.807c-4.915-5.55-7.627-12.171,1.288-17.476
				c4.224-2.518,3.352-7.991,6.012-11.83c3.559-5.119,7.05-8.474,13.305-8.544c0.224,0.273,0.439,0.549,0.655,0.83
				c-1.122,1.822-5.536,2.242-3.092,5.459c1.701,2.242,2.245,6.414,6.539,5.806c10.521-1.491,9.682,5.295,9.562,12.332
				c-0.067,4.207-3.542,6.711-4.06,10.703c9.796,6.051,20.501,6.021,31.305,5.399C276.395,125.705,291.934,122.522,307.45,124.518z"
				/>
			<path fill-rule="evenodd" clip-rule="evenodd" fill="#8A9C9A" d="M496.693,194.925c-17.69-13.614-4.164-29.858-3.654-44.955
				c0.163-4.924,3.239-10.142-3.938-14.875c-2.021,15.666-2.169,30.567-6.515,44.756c-2.4-11.533-0.829-22.807,2.021-33.937
				c0.899-3.512,1.59-7.032,0.667-10.436c-0.935-3.404-3.343-5.796-7.084-3.239c-1.693,1.157-2.842,3.671-5.166,1.741
				c-7.464-6.207-15.894-5.244-24.369-3.404c-3.411,0.743-4.586-3.092-7.55-3.023c-3.802,1.495-2.886,6.077-5.424,8.484
				c-4.011-1.421-3.396-6.868-7.016-8.475c-3.697,1.849-1.209,5.464-2.887,7.732c-0.507-0.126-1.147-0.134-1.598-0.423
				c-2.668-1.714-1.554-10.034-8.344-4.76c-0.241,0.186-2.161-0.907-2.316-1.616c-1.951-9.105-11.462-6.729-16.732-10.962
				c-4.819-3.869-5.061,4.467-8.751,4.95c-2.937-3.126-3.315-7.398-4.941-11.113c-2.089-4.785,0.244-7.04,4.873-7.718
				c5.372,8.854,13.872,10.897,23.385,10.725c7.058,4.785,14.98,4.915,23.039,4.267c11.308,7.335,23.771,4.41,35.503,2.683
				c8.276-1.218,15.135,1.062,22.46,3.166c5.271,6.431,7.336,6.068,12.682-2.225c1.185-0.134,2.369-0.264,3.56-0.393
				c-0.424,5.006-3.032,11.506,1.038,14.598c7.038,5.356,3.428,10.307,1.77,15.784c-1.494,4.949-2.903,9.93-4.346,14.896
				c-1.044,7.939-5.728,15.671-1.374,23.92C504.219,195.919,500.391,195.28,496.693,194.925z"/>
			<path fill-rule="evenodd" clip-rule="evenodd" fill="#F3A1A0" d="M54.781,196.77c-13.122,0.955-22.864-3.005-28.446-16.258
				C17.67,159.939,8.083,139.76,2.148,118.134c5.009,1.278,7.273-5.806,12.43-4.077c-0.491,4.302,1.563,5.283,5.64,6.569
				c6.377,2.004,13.772-1.771,19.257,3.78c0.363,4.509,1.047,8.924,2.029,13.39C45.815,157.478,52.372,176.659,54.781,196.77z
				 M47.06,187.889c2.186-3.696,1.59-6.159,1.019-8.5c-4.026-16.578-9.51-32.826-11.56-49.849c-0.299-2.458-1.354-2.881-3.195-2.877
				c-3.351,0.005-2.85,2.147-2.341,4.337C35.414,149.868,40.805,168.44,47.06,187.889z M22.379,125.646
				c1.737,11.631,4.785,22.865,10.461,33.305C31.941,147.069,28.452,135.967,22.379,125.646z M33.723,163.334
				c-0.191,4.375-0.399,7.205,3.516,9.296C37.955,168.864,36.942,166.531,33.723,163.334z M41.636,185.177
				c0.403-4.25-0.795-6.328-3.579-8.851C37.789,180.318,38.724,182.685,41.636,185.177z"/>
			<path fill-rule="evenodd" clip-rule="evenodd" fill="#F9D994" d="M222.266,81.917c-0.052-1.2-0.104-2.405-0.164-3.611
				c3.965-2.57,11.42-1.805,9.926-11.579c-4.917,5.407-9.901,7.882-16.024,7.766c-0.605-0.013-1.253,2.155-1.874,3.313
				c-4.156-2.319-8.312-4.639-12.941-7.222c2.729-4.863,7.394-9.364-0.571-14.016c7.405-2.639,12.994-4.215,20.483-4.436
				c-5.193-6.509-3.699-10.431,2.46-12.966c2.023-0.834,3.354-2.79,3.275-5.071c-0.319-9.421,5.907-10.747,13.182-10.885
				c3.767,5.062,9.314,2.963,14.203,3.507l0.336,0.401c-0.621,4.782,5.322,0.54,5.615,4.397c-1.122,3.921-5.39,4.837-8.052,7.424
				c-3.315,3.223-9.277,4.48-8.819,10.812c-2.375,2.63-1.857,4.561,1.678,4.777c3.79,0.225,7.627-0.199,11.436-0.341
				c-0.432,2.73-4.026,5.282-0.344,8.401c6.624-0.358,12.298-6.285,19.53-3.806l-0.034-0.06
				C257.483,65.741,241.338,77.201,222.266,81.917z M235.259,43.92c-4.218,0.243-8.053,1.538-13.9,5.334
				c8.612,1.196,7.214,9.032,11.68,12.863c2.912-2.306,2.892-5.304,1.271-6.786c-4.969-4.526-2.161-7.877,0.906-11.455
				c1.19-0.388,2.729-0.329,2.996-1.969c0.052-0.298-0.785-1.11-1.087-1.049C235.517,41.195,235.559,42.69,235.259,43.92z"/>
			<path fill-rule="evenodd" clip-rule="evenodd" fill="#F9D994" d="M311.328,20.847c7.861,6.319,17.346,10.621,23.541,19.013
				c-4.25,3.098,0.231,8.765-2.998,11.628c-7.731,6.832-14.279,15.035-24.567,18.922c-6.238,2.363-9.297-4.971-14.747-3.14
				c0.812-5.141-1.545-7.08-6.479-6.418c-3.662,0.048-7.258-0.212-10.513-2.129l0.034,0.06c0.725-3.058-1.632-9.42,5.881-5.093
				c1.66,0.955,2.437-1.646,2.826-3.278c4.839-0.902,10.443,1.478,14.374-3.351c3.335,2.021,7.933-0.622,10.853,2.924
				c0.136,1.244-0.028,3.412,0.465,3.572c1.899,0.622,2.679-1.429,3.912-2.427c1.099-0.552,3.361-1.477,2.222-2.401
				C306.258,40.742,310.604,30.518,311.328,20.847z M305.325,56.623c1.184-3.338-1.66-1.921-2.738-2.077
				c-1.091-0.16-3.18-0.286-1.746,2.077c0.424,1.374-2.997,2.941-0.345,3.792C302.975,61.214,304.59,59.038,305.325,56.623z"/>
			<path fill-rule="evenodd" clip-rule="evenodd" fill="#8F1229" d="M122.812,195.215c-11.819,3.849-24.421,1.464-36.336,4.569
				c-1.382-0.354-2.754-0.708-4.136-1.063c-1.979-7.062,4.111-9.113,8.066-11.761c4.13-2.764,4.329,3.011,6.221,4.618
				c18.443-6.505,13.979-23.933,19.41-39.348c0,9.363,0,16.353,0,24.118c6.203-5.239,2.74-13.048,7.793-18.417
				c2.712,7.062,0.128,13.605-0.891,22.504c6.427-8.786,4.562-17.891,8.664-26.296c2.919,6.03,1.34,10.617,1.763,15.036
				c-0.163,0.259-0.329,0.518-0.493,0.778c0.14-0.277,0.296-0.557,0.432-0.834c3.992-6.561,5.771-13.843,7.439-21.536
				c-1.097,5.525,6.591,7.08,5.156,12.716c-0.699,2.229-1.408,4.458-2.106,6.687c-5.692,5.205-2.237,13.438-6.352,19.168
				C132.642,189.297,126.559,190.369,122.812,195.215z"/>
			<path fill-rule="evenodd" clip-rule="evenodd" fill="#C9C1B9" d="M507.059,167.153c1.442-4.967,2.852-9.948,4.346-14.896
				c1.658-5.477,5.269-10.427-1.77-15.784c-4.07-3.092-1.462-9.592-1.038-14.598c3.205-4.354,9.658-3.348,12.829-7.767
				c2.816-0.479,4.861,1.11,6.937,2.609c7.697,19.212-2.738,35.526-8.414,52.6c-3.144-0.056-6.566-0.522-6.229,4.371l-0.121,0.268
				C510.55,172.526,511.939,166.82,507.059,167.153z"/>
			<path fill-rule="evenodd" clip-rule="evenodd" fill="#5DB4B5" d="M401.134,58.588c1.271-10.055,9.786-10.197,16.844-12.253
				c3.993-1.161,7.837-3.083,12.173-2.703c0.138,2.272,0.277,4.547,0.413,6.819c-4.291,4.479-10.666-0.021-16.135,3.84
				c5.796,6.121,11.214-0.674,16.283,0.372c-2.772,5.157-9.846,9.234-4.13,16.513c-24.791,11.891-23.048,8.262-32.314-1.776
				c0.552-2.095,1.114-4.19,1.666-6.284l1.028-0.247C399.069,62.143,400.511,60.761,401.134,58.588z"/>
			<path fill-rule="evenodd" clip-rule="evenodd" fill="#E2B24E" d="M292.557,67.271c5.45-1.831,8.509,5.502,14.747,3.14
				c10.288-3.887,16.836-12.09,24.567-18.922c3.229-2.864-1.252-8.531,2.998-11.628c0.891,1.218,1.779,2.44,2.668,3.659
				c-0.829,3.693-2.056,7.348-2.393,11.083c-0.632,6.954-8.103,11.416-6.627,19.014c-4.481,4.95-10.547,7.532-16.429,10.008
				c-3.654,1.542-5.556,3.739-6.746,7.118c-1.402-0.117-2.792-0.238-4.19-0.354c-0.761-12.007-0.761-12.007-17.051-14.659
				C286.146,72.143,288.973,69.331,292.557,67.271z"/>
			<path fill-rule="evenodd" clip-rule="evenodd" fill="#E2B24E" d="M528.362,116.717c-2.075-1.499-4.12-3.088-6.937-2.609
				c-8.587-5.636-15.378-12.556-16.604-23.415c0.665-0.92,1.33-1.839,1.995-2.76c0.052-0.665,0.218-1.304,0.485-1.917
				c4.912,2.457,7.461-5.162,12.334-2.903c3.188,2.63,0.294,8.405,6.039,10.186c6.436,1.995,10.997,7.178,15.358,12.223
				C541.07,114.065,533.397,113.896,528.362,116.717z"/>
			<path fill-rule="evenodd" clip-rule="evenodd" fill="#E2B24E" d="M275.565,58.723c3.255,1.917,6.851,2.177,10.513,2.129
				c-0.025,5.433-4.699,6.276-8.188,8.284c-4.105,2.362-9.263,3.451-10.765,8.936l0.044-0.181c-1.382,0.276-2.021,1.2-2.213,2.526
				c-2.823,2.851-6.668,3.141-10.271,3.935c-5.209,1.152-10.979-1.593-15.836,2.237c-6.139-0.064-11.902-3.584-18.226-2.008
				c-0.216-0.281-0.432-0.557-0.655-0.83c0.759-0.613,1.528-1.222,2.297-1.835C241.338,77.201,257.483,65.741,275.565,58.723z"/>
			<path fill-rule="evenodd" clip-rule="evenodd" fill="#B77F24" d="M434.393,118.643c-8.059,0.648-15.981,0.519-23.039-4.267
				c-1.831-5.175-7.723-9.032-3.645-16.776c-7.318,2.824-13.381-4.89-19.153,1.473c-2.452-6.734,2.92-10.15,6.144-14.479
				c3.447,0.069,5.563,2.669,8.196,4.28c0.191,7.433,5.876,6.937,10.824,7.49c1.574,0.285,3.136,0.565,4.71,0.851
				c5.881,5.546,14.675,7.316,19.22,14.893C436.587,114.233,435.489,116.44,434.393,118.643z"/>
			<path fill-rule="evenodd" clip-rule="evenodd" fill="#E2B24E" d="M309.533,49.984c-2.92-3.546-7.518-0.903-10.853-2.924
				c2.021-5.52-3.229-2.086-4.448-3.624c5.494-6.215,8.146-12.405,4.976-21.354c-2.972-8.375-6.151-7.658-11.516-3.17
				c-3.479-0.773-6.339,1.499-9.563,1.961c-0.424-3.969-0.837-7.939-1.294-12.25c2.693-0.333,5.026-0.617,7.35-0.907
				c8.942,4.595,20.706,3.36,27.143,13.13c-0.725,9.671-5.07,19.895,4.804,27.881c1.14,0.924-1.123,1.849-2.222,2.401
				C312.453,50.749,310.991,50.365,309.533,49.984z"/>
			<path fill-rule="evenodd" clip-rule="evenodd" fill="#F9D994" d="M284.186,7.717c-2.323,0.29-4.656,0.574-7.35,0.907
				c0.457,4.311,0.87,8.28,1.294,12.25l-0.302,0.056c-3.17,0.017-6.453-1.451-10.807,1.235c3.224,0.286,5.183,0.462,7.144,0.635
				c2.679,3.2,6.549,5.689,6.297,10.617c-6.33,3.153-12.274,2.324-16.775-2.963c-2.694-3.167-5.648-3.43-9.131-3.335l-0.336-0.401
				c3.954-2.298,7.646-4.759,6.391-10.292C261.562,2.628,269.794-0.413,284.186,7.717z"/>
			<path fill-rule="evenodd" clip-rule="evenodd" fill="#DC6875" d="M54.781,196.77c-2.409-20.11-8.966-39.292-13.277-58.975
				c-0.982-4.466-1.666-8.88-2.029-13.39c0.275-0.812,0.554-1.62,0.839-2.432c1.086,0.293,2.177,0.587,3.273,0.881
				c1.382,1.689,3.213,1.866,5.19,1.512c1.185-0.047,2.377-0.095,3.559-0.138l0.268,0.358c0.392,3.702,3.354,7.887-1.969,10.517
				c-1.978,1.426-2.271,3.559-1.882,5.637c3.3,17.627,6.669,35.241,10.21,52.82c0.104,0.467,2.488,0.467,3.811,0.686
				c0.224,1.434,0.447,2.864,0.673,4.294C60.077,200.304,57.908,196.169,54.781,196.77z M45.039,133.92
				c2.366-0.821,3.738-1.861,3.886-3.796c0.017-0.246-1.675-1.028-2.4-0.851C44.363,129.8,44.07,131.402,45.039,133.92z"/>
			<path fill-rule="evenodd" clip-rule="evenodd" fill="#F9D994" d="M14.578,114.057c-5.156-1.729-7.421,5.355-12.43,4.077
				c-1.141-8.768,1.961-16.512,5.623-24.188c1.71-3.572,4.095-5.615,8.137-5.463c2.645,0.851,5.288,1.698,7.921,2.548
				c-1.269,5.01-0.076,10.915-6.694,13.743C13.481,106.338,14.614,110.696,14.578,114.057z"/>
			<path fill-rule="evenodd" clip-rule="evenodd" fill="#F9D994" d="M541.034,105.521c-4.361-5.045-8.923-10.228-15.358-12.223
				c-5.745-1.78-2.852-7.555-6.039-10.186c2.668-3.113,6.351-3.347,10.046-3.563c8.655,3.105,13.149,10.141,16.492,18.011
				C548.152,102.209,547.788,106.126,541.034,105.521z"/>
			<path fill-rule="evenodd" clip-rule="evenodd" fill="#A4D9D9" d="M402.896,88.875c-2.634-1.611-4.749-4.211-8.196-4.28
				c3.291-5.162-2.221-10.077-0.432-15.195c9.267,10.038,7.523,13.667,32.314,1.776c4.166,0.531,8.026-3.063,12.967-0.58
				c-10.149,5.654-19.953,11.105-29.751,16.556C407.493,87.727,405.194,88.301,402.896,88.875z"/>
			<path fill-rule="evenodd" clip-rule="evenodd" fill="#F9D994" d="M328.518,73.616c-1.476-7.598,5.995-12.06,6.627-19.014
				c0.337-3.735,1.563-7.39,2.393-11.083c6.946,8.988,7.549,24.089,0.935,32.783c-2.005,2.635-0.935,5.334-1.538,7.952
				c-3.163,0.35-4.382-0.7-3.742-4.142C333.822,76.677,332.468,74.064,328.518,73.616z"/>
			<path fill-rule="evenodd" clip-rule="evenodd" fill="#8F4A10" d="M388.556,99.073c5.772-6.363,11.835,1.351,19.153-1.473
				c-4.078,7.744,1.813,11.602,3.645,16.776c-9.513,0.173-18.013-1.871-23.385-10.725
				C388.16,102.127,388.356,100.598,388.556,99.073z"/>
			<path fill-rule="evenodd" clip-rule="evenodd" fill="#C7754B" d="M158.809,103.646c-0.72,0.645-1.435,1.288-2.161,1.932
				c-12.251,0.34-12.335-12.561-19.41-17.852c1.288-5.158,5.39-3.148,8.611-3.386C153.659,88.431,156.647,95.76,158.809,103.646z"/>
			<path fill-rule="evenodd" clip-rule="evenodd" fill="#167F88" d="M489.859,35.39c-1.252,0.134-3.447,1.757-3.551,0.539
				c-0.699-8.491-6.357-13.354-13.517-18.197c2.987-0.769,4.896-1.256,6.813-1.749c2.688,0.846,5.373,1.692,8.061,2.536
				c0.2,1.304,0.839,2.151,2.253,2.198c0.288,0.38,0.659,0.635,1.106,0.765c0.13,1.577,0.615,2.954,2.144,3.728l0.301,0.544
				c0.899,2.103,1.79,4.202,2.681,6.301C492.539,30.301,491.155,32.764,489.859,35.39z"/>
			<path fill-rule="evenodd" clip-rule="evenodd" fill="#E2B24E" d="M260.61,16.424c1.255,5.533-2.437,7.995-6.391,10.292
				c-4.889-0.544-10.437,1.555-14.203-3.507c0.537-0.302,1.114-0.449,1.737-0.432c0.778-0.458,1.546-0.911,2.324-1.369
				C248.804,17.162,253.121,11.526,260.61,16.424z"/>
			<path fill-rule="evenodd" clip-rule="evenodd" fill="#A4D9D9" d="M507.059,167.153c4.881-0.333,3.491,5.374,6.539,6.802
				c0.044,3.508-3.126,6.635-1.563,10.225c3.196,7.347-2.54,6.167-6.351,6.893C501.331,182.824,506.015,175.092,507.059,167.153z"/>
			<path fill-rule="evenodd" clip-rule="evenodd" fill="#F03737" d="M137.599,62.912c-1.139-4.311-2.281-8.621-3.438-12.967
				c2.723-2.755,5.167,0.925,7.731,0.212c2.6,3.244,1.806,7.015,1.649,10.682l-0.881-0.186l-0.813,0.384
				C140.433,61.66,139.017,62.286,137.599,62.912z"/>
			<path fill-rule="evenodd" clip-rule="evenodd" fill="#E2B24E" d="M214.129,77.805c0.621-1.157,1.269-3.325,1.874-3.313
				c6.123,0.116,11.107-2.358,16.024-7.766c1.494,9.774-5.961,9.009-9.926,11.579C219.449,78.142,216.789,77.973,214.129,77.805z"/>
			<path fill-rule="evenodd" clip-rule="evenodd" fill="#B73855" d="M453.543,23.274c-4.596,0.643-6.029,5.413-9.606,7.377
				c-0.197-1.227-0.396-2.454-0.595-3.685c1.07-0.73,2.15-1.46,3.224-2.194c0.423-1.573,3.895-1.909,1.813-4.488
				c0.319-0.225,0.568-0.51,0.751-0.855c0.742-0.151,1.485-0.307,2.229-0.458c0.914-0.052,1.821-0.104,2.729-0.156
				c-0.226,1.503-0.449,3.011-0.673,4.514L453.543,23.274z"/>
			<path fill-rule="evenodd" clip-rule="evenodd" fill="#C9C1B9" d="M448.379,20.286c2.081,2.579-1.391,2.915-1.813,4.488
				c-1.063-0.364-2.136-0.722-3.198-1.084c-2.106-0.998-4.517-1.75-4.067-4.881C442.599,17.634,445.363,19.724,448.379,20.286z"/>
			<path fill-rule="evenodd" clip-rule="evenodd" fill="#5DB4B5" d="M453.415,23.331c0.224-1.503,0.447-3.011,0.673-4.514
				c2.063-0.022,4.129-0.043,6.193-0.061c0.665,0.557,1.33,1.12,1.997,1.681c0.053,2.151,0.104,4.302,0.154,6.449
				c-0.545,0.173-1.097,0.271-1.668,0.298C458.779,25.011,458.32,19.935,453.415,23.331z"/>
			<path fill-rule="evenodd" clip-rule="evenodd" fill="#167F88" d="M120.755,30.842c-4.494,4.371-4.183-4.924-7.897-2.777
				c1.185-0.462,2.369-0.928,3.552-1.391C117.86,28.06,119.313,29.451,120.755,30.842z"/>
			<path fill-rule="evenodd" clip-rule="evenodd" fill="#A4D9D9" d="M439.3,18.808c-0.449,3.131,1.961,3.883,4.067,4.881
				c-1.476,0.929-3.939,0.67-4.016,3.3c-0.761-0.031-1.522-0.061-2.281-0.091C436.923,23.953,435.361,20.622,439.3,18.808z"/>
			<path fill-rule="evenodd" clip-rule="evenodd" fill="#E2B24E" d="M440.913,30.509c-0.647,0.242-1.278,0.522-1.899,0.833
				c-0.805,0.095-1.615,0.19-2.427,0.285c-1.072-0.013-2.152-0.021-3.23-0.034c-1.555-0.083-3.102-0.169-4.658-0.251
				c1.314-3.516,5.021-2.073,7.318-3.529C437.873,28.302,439.799,28.669,440.913,30.509z"/>
			<path fill-rule="evenodd" clip-rule="evenodd" fill="#A4D9D9" d="M513.719,173.688c-0.337-4.893,3.086-4.427,6.229-4.371
				C519.784,173.502,517.003,173.96,513.719,173.688z"/>
			<path fill-rule="evenodd" clip-rule="evenodd" fill="#4B6C77" d="M440.913,30.509c-1.114-1.84-3.04-2.207-4.896-2.695
				c0.319-0.341,0.665-0.648,1.054-0.916c0.759,0.03,1.521,0.06,2.281,0.091c1.33-0.005,2.66-0.013,3.99-0.022
				c0.199,1.231,0.397,2.458,0.595,3.685C442.927,30.604,441.924,30.556,440.913,30.509z"/>
			<path fill-rule="evenodd" clip-rule="evenodd" fill="#C9C1B9" d="M69.676,199.266c2.911-0.846,5.779-0.63,8.596,0.449
				C75.281,201.931,72.403,201.983,69.676,199.266z"/>
			<path fill-rule="evenodd" clip-rule="evenodd" fill="#A4D9D9" d="M493.169,25.21c-1.528-0.774-2.014-2.151-2.144-3.728
				C493.878,21.499,493.945,23.115,493.169,25.21z"/>
			<path fill-rule="evenodd" clip-rule="evenodd" fill="#F9D994" d="M428.698,31.343c1.557,0.082,3.104,0.168,4.658,0.251
				c-1.471,1.594-3.336,1.559-5.261,1.291C428.207,32.336,428.407,31.822,428.698,31.343z"/>
			<path fill-rule="evenodd" clip-rule="evenodd" fill="#F3A1A0" d="M451.358,18.973c-0.743,0.151-1.486,0.307-2.229,0.458
				c-0.12-0.821-0.468-2.32-0.346-2.358C450.399,16.558,451.083,17.539,451.358,18.973z"/>
			<path fill-rule="evenodd" clip-rule="evenodd" fill="#A4D9D9" d="M489.919,20.717c-1.414-0.047-2.053-0.894-2.253-2.198
				C488.971,18.687,489.739,19.4,489.919,20.717z"/>
			<path fill-rule="evenodd" clip-rule="evenodd" fill="#F9D994" d="M244.078,21.408c-0.778,0.458-1.546,0.912-2.324,1.369
				C242.047,21.516,242.809,21.037,244.078,21.408z"/>
			<path fill-rule="evenodd" clip-rule="evenodd" fill="#8F4A10" d="M301.152,90.387c1.398,0.117,2.788,0.238,4.19,0.354
				c2.375,3.235,7.014,3.248,8.896,6.85c3.327-1.827,0.571-4.924,3.215-7.071c7.981-1.835,9.942,3.209,9.113,10.894
				c6.073,1.27,11.638-3.054,17.537,0.609c7.453,4.639,7.843,6.47,0.915,11.663c-11.212,8.405-24.361,9.592-37.568,10.833
				c-15.517-1.996-31.056,1.187-46.572-0.238c0.504-5.914-0.438-12.073,3.795-17.925c-3.319-1.041-7.957,2.401-8.829-1.516
				c-1.305-5.882-6.954-6.393-9.968-9.956c9.406-3.365,19.374-5.27,28.048-10.595C282.813,87.16,291.295,91.852,301.152,90.387z"/>
			<path fill-rule="evenodd" clip-rule="evenodd" fill="#8F4A10" d="M331.015,183.565c0.215,0.813,0.423,1.625,0.631,2.437
				c-6.1,10.284-18.003,7.209-26.666,11.584c-5.806-0.523-11.594-0.635-17.312,0.747c-0.13-1.157-0.26-2.32-0.39-3.481
				c8.916-1.59,18.504-1.672,26.505-5.279C319.475,187.004,324.691,184.028,331.015,183.565z"/>
			<path fill-rule="evenodd" clip-rule="evenodd" fill="#8A9C9A" d="M287.278,194.853c0.13,1.161,0.26,2.324,0.39,3.481
				c-2.73,1.028-5.393,1.201-7.853-0.721C282.088,196.104,284.393,194.68,287.278,194.853z"/>
			<path fill-rule="evenodd" clip-rule="evenodd" fill="#8F4A10" d="M137.237,87.727c7.075,5.291,7.159,18.192,19.41,17.852
				c-1.538,7.576-7.765,9.174-13.893,10.513c-16.532,3.615-33.108,6.984-49.973,8.729c-6.754,3.292-14.304-4.297-20.886,1.517
				c-0.961-1.677-2.637-1.814-4.286-2c-0.657-4.06-1.304-8.124-1.961-12.185c3.031,0.303,6.056,0.605,9.71,0.972
				c0.06-3.015,2.92-5.334,1.063-9.995c-4.32,2.544-8.225-3.52-13.201-0.285c-1.382-0.022-2.772-0.039-4.154-0.061
				c-3.914-6.098-9.855-3.049-15.057-3.343c-1.321-0.812-2.642-1.62-3.964-2.428c1.993-4.38,6.521-3.338,9.95-4.647
				c9.055,5.179,19.558,1.551,29.008,4.705c2.367,0.786,5.606,0.777,7.523-2.04c7.25,0.255,13.685-2.189,19.81-5.8
				c4.009-2.363,9.719-5.244,12.664-2.103c5.978,6.371,11.032,3.07,16.681,0.937C136.2,87.964,136.72,87.851,137.237,87.727z"/>
			<path fill-rule="evenodd" clip-rule="evenodd" fill="#DC6875" d="M101.586,46.249c-6.702,5.957-17.659,2.298-23.446,10.344
				c-1.909,1.905-2.045,3.728,1.038,3.849c2.564,0.104,5.173-0.825,7.765-1.296c-0.665,3.525,3.344,3.879,4.294,6.302
				c-0.415,1.266-0.83,2.535-1.233,3.802c-7.621,1.999-15.249,4.003-22.868,6.007c0.009-3.119,0.863-6.31-0.839-9.347
				c-4.956-0.821-7.973,4.415-13.154,4.06c-2.938-7.853,5.182-13.774,3.125-21.683c-0.052-0.017-1.104-0.751-1.993-0.591
				c-2.548,0.457-5.496,5.498-7.396,0.177c-1.399-3.917,2.195-6.815,5.694-7.516c4.767-0.951,9.777-0.734,14.641-1.02
				c1.393,3.65-4.312,3.813-2.351,8.069c5.66-5.045,13.253-5.253,19.688-8.522c0.64-0.484,1.278-0.968,1.918-1.451
				c3.958,4.876,9.694,5.77,15.342,6.876C101.706,44.949,101.638,45.597,101.586,46.249z"/>
			<path fill-rule="evenodd" clip-rule="evenodd" fill="#B73855" d="M135.682,88.063c-5.648,2.134-10.703,5.434-16.681-0.937
				c-2.945-3.141-8.655-0.26-12.664,2.103c-6.125,3.611-12.56,6.055-19.81,5.8c-8.292,0.743-15.055-2.535-20.982-7.99
				c4.035-6.561,10.229-1.054,15.387-2.708c14.115-4.526,28.583-7.925,43.665-11.969C120.159,83.8,132.39,82.483,135.682,88.063z"/>
			<path fill-rule="evenodd" clip-rule="evenodd" fill="#E2B24E" d="M40.046,97.012c1.322,0.808,2.643,1.616,3.964,2.428
				c4.414,4.333,3.466,9.463,2.178,14.647c-4.848,0.475-5.175,4.324-5.874,7.887c-0.285,0.812-0.563,1.62-0.839,2.432
				c-5.484-5.55-12.88-1.776-19.257-3.78c-4.076-1.286-6.131-2.267-5.64-6.569c0.036-3.361-1.097-7.719,2.557-9.283
				c6.618-2.829,5.426-8.733,6.694-13.743C29.679,91.838,32.944,99.608,40.046,97.012z"/>
			<path fill-rule="evenodd" clip-rule="evenodd" fill="#590A0B" d="M65.545,87.04c5.928,5.455,12.69,8.733,20.982,7.99
				c-1.917,2.816-5.156,2.825-7.523,2.04c-9.45-3.154-19.953,0.474-29.008-4.705C54.885,89.751,59.586,86.56,65.545,87.04z"/>
			<path fill-rule="evenodd" clip-rule="evenodd" fill="#B73855" d="M67.135,75.256c7.619-2.004,15.247-4.008,22.868-6.007
				c0.319,0.894,0.646,1.787,0.966,2.682c-8.042,2.401-16.077,4.807-24.117,7.212c-2.249-1.649-4.805-0.821-7.25-0.912
				c-0.216-0.933-0.423-1.861-0.639-2.794C61.683,75.373,64.415,75.317,67.135,75.256z"/>
			<path fill-rule="evenodd" clip-rule="evenodd" fill="#E2B24E" d="M88.681,27.495c4.871-2.63,9.362-0.277,13.88,1.161
				c2.101,0.67,3.879,2.043,2.826,4.591c-1.021,2.471-3.146,2.268-5.243,1.439c-3.188-1.27-6.366-2.574-9.554-3.866
				C89.959,29.714,89.319,28.604,88.681,27.495z"/>
			<path fill-rule="evenodd" clip-rule="evenodd" fill="#DC6875" d="M88.61,54.373c6.125-3.822,13.303-1.205,19.826-3.326
				c-4.103,3.447-8.009,6.98-13.641,7.261C94.77,53.794,91.141,54.947,88.61,54.373z"/>
			<path fill-rule="evenodd" clip-rule="evenodd" fill="#8F1229" d="M88.681,27.495c0.639,1.109,1.278,2.22,1.909,3.325l0.086,0.152
				c-0.649,0.444-1.288,0.89-1.936,1.334c-3.679-0.769-7.765-0.293-10.633-3.511c-0.589-0.739-1.177-1.478-1.756-2.221
				c-0.025-0.457-0.05-0.916-0.094-1.373C80.939,23.08,84.576,26.531,88.681,27.495z"/>
			<path fill-rule="evenodd" clip-rule="evenodd" fill="#B73855" d="M88.61,54.373c2.53,0.574,6.159-0.579,6.186,3.935
				c-0.759-0.021-1.512-0.047-2.273-0.069c-1.961-2.021-3.826-1.668-5.64,0.225l0.06,0.682c-2.592,0.471-5.2,1.4-7.765,1.296
				c-3.083-0.121-2.947-1.943-1.038-3.849C81.631,55.85,85.121,55.112,88.61,54.373z"/>
			<path fill-rule="evenodd" clip-rule="evenodd" fill="#B73855" d="M54.937,82.829c-4.37,4.958-10.002,3.369-15.678,3.157
				c2.497-5.123,8.353-2.726,11.498-5.775c1.46,0.112,2.93,0.229,4.388,0.346C55.076,81.312,55.007,82.073,54.937,82.829z"/>
			<path fill-rule="evenodd" clip-rule="evenodd" fill="#B73855" d="M76.258,25.201c0.044,0.458,0.068,0.916,0.094,1.373
				c-2.393,0.553-2.979,2.173-2.59,4.372c-1.938,0.082-3.87,0.164-5.806,0.25c-0.785-0.044-1.572-0.083-2.367-0.126
				C67.411,25.953,71.705,25.348,76.258,25.201z"/>
			<path fill-rule="evenodd" clip-rule="evenodd" fill="#8F1229" d="M127.397,71.499c2.177-2.928,2.376-6.885,5.676-5.162
				c3.109,1.62,0.312,3.347-1.192,4.449C131.18,71.3,129.989,71.127,127.397,71.499z"/>
			<path fill-rule="evenodd" clip-rule="evenodd" fill="#DC6875" d="M55.145,80.557c-1.458-0.117-2.928-0.233-4.388-0.346
				c0.725-5.049,3.023-7.382,8.206-4.773c0.216,0.933,0.423,1.861,0.639,2.794C58.116,79.01,56.63,79.783,55.145,80.557z"/>
			<path fill-rule="evenodd" clip-rule="evenodd" fill="#8F1229" d="M55.145,80.557c1.485-0.774,2.972-1.547,4.457-2.325
				c2.445,0.091,5.001-0.738,7.25,0.912c-3.975,1.228-7.94,2.458-11.915,3.685C55.007,82.073,55.076,81.312,55.145,80.557z"/>
			<path fill-rule="evenodd" clip-rule="evenodd" fill="#355C96" d="M90.969,71.931c-0.319-0.895-0.646-1.789-0.966-2.682
				c0.403-1.267,0.818-2.536,1.233-3.802c1.953,1.296,3.923,2.557,6.463,2.397C96.557,72.203,93.577,71.693,90.969,71.931z"/>
			<path fill-rule="evenodd" clip-rule="evenodd" fill="#B73855" d="M101.586,46.249c0.052-0.652,0.12-1.3,0.224-1.939
				c2.229-1.43,3.774-3.996,7.775-4.212C108.244,44.49,105.249,45.748,101.586,46.249z"/>
			<path fill-rule="evenodd" clip-rule="evenodd" fill="#B73855" d="M86.468,37.433c-0.64,0.483-1.278,0.967-1.918,1.451
				c-0.933-0.065-1.873-0.134-2.815-0.203c0.312-0.774,0.415-1.918,0.984-2.251C84.119,35.619,85.847,34.824,86.468,37.433z"/>
			<path fill-rule="evenodd" clip-rule="evenodd" fill="#37835D" d="M36.692,36.141c0.743,0.186,1.556,1.063,1.081,2.065
				c-0.312,0.648-1.574,0.972-2.463,1.131c-0.268,0.048-1.036-0.938-1.028-1.443C34.3,36.75,34.965,35.951,36.692,36.141z"/>
			<path fill-rule="evenodd" clip-rule="evenodd" fill="#E2B24E" d="M67.956,31.196c1.936-0.087,3.868-0.169,5.806-0.25
				c0.725,0.082,1.45,0.164,2.169,0.246c-2.102,2.994-5.159,1.818-7.949,1.805C67.811,32.396,67.8,31.796,67.956,31.196z"/>
			<path fill-rule="evenodd" clip-rule="evenodd" fill="#8F1229" d="M86.883,58.463c1.813-1.893,3.679-2.246,5.64-0.225
				C90.649,58.316,88.767,58.39,86.883,58.463z"/>
			<path fill-rule="evenodd" clip-rule="evenodd" fill="#DC6875" d="M137.599,62.912c1.418-0.626,2.834-1.252,4.25-1.875
				C141.157,63.305,141.123,67.063,137.599,62.912z"/>
			<path fill-rule="evenodd" clip-rule="evenodd" fill="#006AA8" d="M75.931,31.191c-0.719-0.082-1.444-0.164-2.169-0.246
				c-0.39-2.199,0.197-3.819,2.59-4.372c0.579,0.743,1.167,1.482,1.756,2.221C77.381,29.593,76.653,30.393,75.931,31.191z"/>
			<path fill-rule="evenodd" clip-rule="evenodd" fill="#F9D994" d="M67.956,31.196c-0.156,0.6-0.146,1.2,0.025,1.8
				c-0.75,1.127-1.728,2.669-3.102,1.603c-1.355-1.058,0.458-2.319,0.709-3.529C66.384,31.113,67.171,31.152,67.956,31.196z"/>
			<path fill-rule="evenodd" clip-rule="evenodd" fill="#E2B24E" d="M88.74,32.306c0.647-0.444,1.286-0.89,1.936-1.334
				C90.026,31.416,89.388,31.861,88.74,32.306z"/>
			<path fill-rule="evenodd" clip-rule="evenodd" fill="none" d="M405.712,173.372c-0.907-0.755-1.813-1.511-2.729-2.267
				C405.116,170.388,405.124,172.233,405.712,173.372z"/>
			<path fill-rule="evenodd" clip-rule="evenodd" fill="#DC6875" d="M71.896,126.336c6.582-5.814,14.132,1.774,20.886-1.517
				c-2.221,12.108-1.634,24.53-3.491,36.801c-5.396-10.21,0.676-22.375-5.406-32.148c-0.916,0.061-1.823,0.121-2.737,0.182
				c0,19.419,0,38.834,0,58.254c-1.106,0.082-2.213,0.16-3.317,0.242C73.829,167.805,73.649,146.969,71.896,126.336z"/>
			<path fill-rule="evenodd" clip-rule="evenodd" fill="#F3A1A0" d="M62.773,194.247c-1.322-0.219-3.707-0.219-3.811-0.686
				c-3.541-17.58-6.91-35.193-10.21-52.82c-0.389-2.078-0.096-4.211,1.882-5.637c6.902,11.165,5.322,24.296,8.328,36.377
				C60.82,178.923,61.537,186.65,62.773,194.247z"/>
			<path fill-rule="evenodd" clip-rule="evenodd" fill="#F3A1A0" d="M64.803,124.772c-0.276,18.266,4.673,36.329,1.849,57.182
				c-3.247-20.469-7.74-38.359-4.69-56.94C62.901,124.932,63.852,124.851,64.803,124.772z"/>
			<path fill-rule="evenodd" clip-rule="evenodd" fill="#C7754B" d="M64.803,124.772c-0.951,0.078-1.901,0.16-2.842,0.242
				c-0.354-0.203-0.649-0.458-0.907-0.773c0.319-4.155-0.881-7.723-4.104-10.496c0.709-3.654,1.418-7.309,2.117-10.962
				c1.382,0.022,2.772,0.039,4.154,0.061c0.813,3.101,1.618,6.206,2.429,9.308c0.657,4.061,1.304,8.125,1.961,12.185
				C66.668,124.479,65.737,124.625,64.803,124.772z"/>
			<path fill-rule="evenodd" clip-rule="evenodd" fill="#8F4A10" d="M56.949,113.745c3.224,2.773,4.424,6.341,4.104,10.496
				c-2.815,0.117-5.632,0.229-8.45,0.346l-0.268-0.358C52.51,120.133,53.555,116.419,56.949,113.745z"/>
			<path fill-rule="evenodd" clip-rule="evenodd" fill="#B73855" d="M122.812,195.215c3.747-4.846,9.83-5.917,14.631-9.062
				C139.846,194.563,134.273,198.014,122.812,195.215z"/>
			<path fill-rule="evenodd" clip-rule="evenodd" fill="#167F88" d="M409.798,87.151c9.798-5.45,19.602-10.901,29.751-16.556
				c-4.94-2.483-8.801,1.111-12.967,0.58c-5.716-7.279,1.357-11.356,4.13-16.513c1.366-0.838,3.094-1.56,2.645-3.521
				c-0.097-0.418-1.813-0.47-2.793-0.691c-0.136-2.272-0.275-4.547-0.413-6.819c0.856-0.769,1.702-1.534,2.549-2.303
				c3.568,0.035,8.154,1.887,8.086-4.54c3.214-0.73,6.427-1.46,9.641-2.19c-0.156,0.994-0.312,1.987-0.466,2.981
				c0.691,2.371,1.07,5.26,4.646,2.742l0.554,0.492l0.717-0.207l0.052,0.121c-0.397,2.639-0.795,5.278-4.138,5.805
				c-4.777,0.078-6.193,8.095-12.23,5.158c-0.743,3.334-5.186,7.493,2.003,9.074c1.452,8.012,6.314,3.162,10.02,2.67
				c2.108-0.276,4.208-0.557,6.307-0.833c2.564,0.583,4.993,0.617,6.876-1.646c0.502-0.026,1.011-0.043,1.513-0.052
				c2.6,6.224,6.712,4.729,11.032,2.168c1.382-0.691,2.771-1.378,4.153-2.064c1.314,0.078,2.627,0.16,3.938,0.237
				c-5.432,8.695-13.448,13.778-22.935,17.264c-6.479,2.375-13.734,3.015-19.169,7.957c-9.511,0.099-16.127,6.997-24.273,10.318
				l-0.595,0.432c-1.574-0.286-3.136-0.566-4.71-0.851C412.416,93.293,411.104,90.223,409.798,87.151z"/>
			<path fill-rule="evenodd" clip-rule="evenodd" fill="#5DB4B5" d="M443.298,86.465c5.435-4.942,12.689-5.581,19.169-7.957
				c9.486-3.485,17.503-8.569,22.935-17.264c2.188-0.096,4.372-0.194,6.559-0.294c-0.994,4.471-0.742,7.784,5.313,5.776
				c5.253-1.742,9.57-6.138,17.491-5.382c-13.992,5.827-5.691,16.396-7.461,24.672c-0.268,0.613-0.434,1.252-0.485,1.917
				c-7.636,0.627-15.36,0.455-22.806,2.669c1.055-7.542,11.955-6.768,12.458-14.767c0.673-0.268,1.993-0.169,0.827-1.469
				c-0.328,0.436-0.655,0.873-0.982,1.305c-3.707-0.748-6.791,1.559-10.204,2.064c-13.648,2.021-24.914,11.282-38.761,12.625
				C446.002,89.061,444.656,87.76,443.298,86.465z"/>
			<path fill-rule="evenodd" clip-rule="evenodd" fill="#5DB4B5" d="M449.96,37.58c0.154-0.994,0.31-1.987,0.466-2.981
				c6.479,0.57,12.076-4.125,19.29-1.969c4.897,1.459,8.12,3.01,9.614,8.582c-0.883,1.926-5.089-0.411-6.299,2.652
				c-4.103,5.184-11.101-0.147-15.418,4.25c-2.636,2.022-4.372,0.748-5.823-1.581c3.343-0.526,3.74-3.166,4.138-5.805
				c2.522,0.955,4.598,0.95,5.156-2.401c-2.779-1.577-4.396-0.574-5.208,2.281l-0.717,0.207l-0.554-0.492
				C454.106,37.627,452.257,37.226,449.96,37.58z"/>
			<path fill-rule="evenodd" clip-rule="evenodd" fill="#167F88" d="M457.613,48.114c4.317-4.397,11.315,0.934,15.418-4.25
				c1.278,0.168,2.559,0.336,3.837,0.505c0.233,4.367,5.434,2.989,6.876,5.957l-0.044,0.035c-3.065,0-6.142,0-10.287,0
				c0.457,3.26,3.964,5.489,1.468,8.038c-1.978,0.276-3.957,0.557-5.936,0.833c-2.098-0.211-4.206-0.419-6.315-0.631
				C460.998,55.086,460.946,50.814,457.613,48.114z"/>
			<path fill-rule="evenodd" clip-rule="evenodd" fill="#5DB4B5" d="M474.881,58.398c2.496-2.548-1.011-4.777-1.468-8.038
				c4.146,0,7.222,0,10.287,0c0.511,3.071-0.405,5.792-2.073,8.318c-0.052,0.778-0.111,1.551-0.164,2.329
				c-1.382,0.686-2.771,1.373-4.153,2.064l-0.657-0.708C477.396,60.445,476.806,59.125,474.881,58.398z"/>
			<path fill-rule="evenodd" clip-rule="evenodd" fill="#4B6C77" d="M453.415,23.331c4.905-3.396,5.364,1.681,7.35,3.853
				c-1.969,2.817-4.621,4.013-8.128,3.503c-2.625-2.872,0.018-5.045,0.906-7.412L453.415,23.331z"/>
			<path fill-rule="evenodd" clip-rule="evenodd" fill="#167F88" d="M462.433,26.885c-0.05-2.147-0.102-4.298-0.154-6.449
				c0.432-0.955,0.552-3.568,1.666-2.311c2.626,2.985,4.338,6.777,6.463,10.301C467.201,31.17,464.963,28.211,462.433,26.885z"/>
			<path fill-rule="evenodd" clip-rule="evenodd" fill="#5DB4B5" d="M483.744,50.326c-1.442-2.968-6.643-1.589-6.876-5.957
				c3.317-1.417,6.322-0.125,8.717,1.792C489.22,49.061,486.464,49.843,483.744,50.326z"/>
			<path fill-rule="evenodd" clip-rule="evenodd" fill="#4B6C77" d="M496.07,31.843c2.557,1.482,8.448-0.185,6.809,5.249
				c-1.788,5.909-5.546-0.315-8.406,0.311C495.008,35.55,495.535,33.697,496.07,31.843z"/>
			<path fill-rule="evenodd" clip-rule="evenodd" fill="none" d="M496.07,31.843c-0.535,1.854-1.063,3.707-1.598,5.559
				c-1.538-0.669-3.075-1.343-4.613-2.012c1.296-2.626,2.68-5.089,6.291-3.335L496.07,31.843z"/>
			<path fill-rule="evenodd" clip-rule="evenodd" fill="#4B6C77" d="M440.785,36.789c0.068,6.427-4.518,4.575-8.086,4.54
				c-0.19-0.596-0.154-1.187,0.086-1.767c2.722,0.433,5.504,1.05,6.938-2.34C439.946,36.755,440.302,36.607,440.785,36.789z"/>
			<path fill-rule="evenodd" clip-rule="evenodd" fill="#52C6D6" d="M481.463,61.008c0.053-0.778,0.112-1.551,0.164-2.329
				c3.473,0.631,7.637-1.883,10.333,2.272c-2.187,0.1-4.371,0.199-6.559,0.294C484.09,61.167,482.777,61.085,481.463,61.008z"/>
			<path fill-rule="evenodd" clip-rule="evenodd" fill="#0E1C19" d="M439.723,37.222c-1.434,3.39-4.216,2.773-6.938,2.34
				C432.959,32.426,437.123,37.161,439.723,37.222z"/>
			<path fill-rule="evenodd" clip-rule="evenodd" fill="#167F88" d="M401.134,58.588c-0.623,2.173-2.064,3.555-4.172,4.281
				C396.073,59.219,397.713,58.036,401.134,58.588z"/>
			<path fill-rule="evenodd" clip-rule="evenodd" fill="#F9D994" d="M436.587,31.627c0.812-0.095,1.622-0.189,2.427-0.285
				C438.375,32.833,437.528,32.643,436.587,31.627z"/>
			<path fill-rule="evenodd" clip-rule="evenodd" fill="#B77F24" d="M245.876,94.883c3.014,3.563,8.663,4.073,9.968,9.956
				c0.872,3.917,5.51,0.476,8.829,1.516c-4.233,5.853-3.291,12.012-3.795,17.925c-10.804,0.622-21.509,0.652-31.305-5.399
				c0.518-3.991,3.992-6.496,4.06-10.703c0.12-7.036,0.959-13.822-9.562-12.332c-4.294,0.608-4.838-3.564-6.539-5.806
				c-2.444-3.217,1.97-3.637,3.092-5.459c6.323-1.577,12.087,1.943,18.226,2.008C241.349,89.22,241.634,93.726,245.876,94.883z"/>
			<path fill-rule="evenodd" clip-rule="evenodd" fill="#8F4A10" d="M484.012,90.603c7.445-2.215,15.17-2.042,22.806-2.669
				c-0.665,0.921-1.33,1.84-1.995,2.76c-4.762-0.609-9.399,0.876-12.259,4.121c-2.029,2.307-6.851,3.356-5.097,8.94
				c1.72,5.451,6.419,2.648,9.087,4.751c-3.471,4.734,0.831,9.313,0.096,13.938c-0.839,1.927-2.504,2.121-4.294,2.048
				c-7.325-2.104-14.184-4.384-22.46-3.166c-11.731,1.728-24.195,4.652-35.503-2.683c1.097-2.203,2.194-4.41,3.257-6.535
				c-4.545-7.576-13.339-9.346-19.22-14.893l0.595-0.432c2.263,3.248,5.84,1.499,8.743,2.311c10.246,0.363,20.1,6.492,30.665,2.035
				C468.626,101.668,476.263,95.994,484.012,90.603z"/>
			<path fill-rule="evenodd" clip-rule="evenodd" fill="#B77F24" d="M496.649,122.444c0.735-4.625-3.566-9.204-0.096-13.938
				c-2.668-2.103-7.367,0.7-9.087-4.751c-1.754-5.584,3.067-6.633,5.097-8.94c2.859-3.245,7.497-4.73,12.259-4.121
				c1.226,10.858,8.017,17.778,16.604,23.415c-3.171,4.418-9.624,3.412-12.829,7.767c-1.19,0.129-2.375,0.259-3.56,0.393
				C502.237,122.323,499.441,122.384,496.649,122.444z M508.018,104.416c-0.172-0.232-0.396-0.695-0.518-0.669
				c-0.509,0.112-0.992,0.366-1.485,0.57c0.173,0.237,0.396,0.704,0.509,0.678C507.043,104.878,507.526,104.624,508.018,104.416z"/>
			<path fill-rule="evenodd" clip-rule="evenodd" fill="#C9C1B9" d="M496.649,122.444c2.792-0.06,5.588-0.121,8.388-0.177
				c-5.346,8.293-7.411,8.656-12.682,2.225C494.146,124.565,495.811,124.371,496.649,122.444z"/>
			<path fill-rule="evenodd" clip-rule="evenodd" fill="#DC6875" d="M47.06,187.889C40.805,168.44,35.414,149.868,30.982,131
				c-0.509-2.19-1.01-4.332,2.341-4.337c1.842-0.004,2.896,0.419,3.195,2.877c2.05,17.023,7.533,33.271,11.56,49.849
				C48.649,181.73,49.245,184.193,47.06,187.889z"/>
			<path fill-rule="evenodd" clip-rule="evenodd" fill="#DC6875" d="M22.379,125.646c6.073,10.322,9.563,21.423,10.461,33.305
				C27.164,148.511,24.116,137.277,22.379,125.646z"/>
			<path fill-rule="evenodd" clip-rule="evenodd" fill="#DC6875" d="M33.723,163.334c3.22,3.196,4.232,5.529,3.516,9.296
				C33.323,170.539,33.531,167.71,33.723,163.334z"/>
			<path fill-rule="evenodd" clip-rule="evenodd" fill="#DC6875" d="M41.636,185.177c-2.912-2.493-3.847-4.859-3.579-8.851
				C40.841,178.849,42.039,180.927,41.636,185.177z"/>
			<path fill-rule="evenodd" clip-rule="evenodd" fill="#E2B24E" d="M254.556,27.118c3.482-0.095,6.437,0.168,9.131,3.335
				c4.501,5.287,10.445,6.116,16.775,2.963c1.574,1.015,1.383,2.389,0.787,3.849c-0.449,0.829-0.898,1.663-1.348,2.492l-0.019-0.013
				c-0.715,0.699-1.434,1.403-2.158,2.103l0.033,0.022c-6.183-5.563-5.336,3.96-8.853,4.129c-5.427-5.08-10.635-5.14-16.509-0.276
				c-2.419,2-4.975,5.226-9.097,4.03c-0.458-6.332,5.504-7.589,8.819-10.812c2.662-2.587,6.93-3.503,8.052-7.424
				C259.878,27.658,253.935,31.9,254.556,27.118z"/>
			<path fill-rule="evenodd" clip-rule="evenodd" fill="#E2B24E" d="M284.307,50.412c-0.39,1.633-1.166,4.233-2.826,3.278
				c-7.513-4.328-5.156,2.035-5.881,5.093c-7.232-2.479-12.906,3.447-19.53,3.806c-3.683-3.119-0.088-5.671,0.344-8.401
				c1.365-2.786,3.49-4.246,6.687-3.857c2.143,4.32,4.613,5.416,8.647,1.714c4.637-4.258,10.081-7.066,16.758-5.981
				C288.608,48.965,283.133,46.473,284.307,50.412z"/>
			<path fill-rule="evenodd" clip-rule="evenodd" fill="#B77F24" d="M263.1,50.33c-3.196-0.389-5.321,1.071-6.687,3.857
				c-3.809,0.143-7.646,0.566-11.436,0.341c-3.535-0.217-4.053-2.147-1.678-4.777c4.122,1.196,6.678-2.03,9.097-4.03
				c5.874-4.863,11.082-4.803,16.509,0.276c0.88,0.121,1.761,0.242,2.642,0.362C268.731,47.687,265.915,49.009,263.1,50.33z"/>
			<path fill-rule="evenodd" clip-rule="evenodd" fill="#E2B24E" d="M235.215,43.877c-3.067,3.577-5.875,6.928-0.906,11.455
				c1.621,1.482,1.642,4.48-1.271,6.786c-4.466-3.831-3.067-11.667-11.68-12.863c5.848-3.796,9.683-5.092,13.9-5.334L235.215,43.877
				z"/>
			<path fill-rule="evenodd" clip-rule="evenodd" fill="#E2B24E" d="M235.259,43.92c0.3-1.23,0.258-2.725,1.865-3.062
				c0.302-0.061,1.139,0.751,1.087,1.049c-0.268,1.641-1.806,1.581-2.996,1.969L235.259,43.92z"/>
			<path fill-rule="evenodd" clip-rule="evenodd" fill="#B77F24" d="M267.125,78.072c1.502-5.485,6.659-6.574,10.765-8.936
				c3.489-2.008,8.163-2.851,8.188-8.284c4.934-0.661,7.29,1.278,6.479,6.418c-3.584,2.06-6.41,4.872-8.455,8.457l0.05-0.044
				C277.992,73.023,273.033,78.963,267.125,78.072z"/>
			<path fill-rule="evenodd" clip-rule="evenodd" fill="#B77F24" d="M284.307,50.412c-1.174-3.938,4.302-1.447,4.198-4.349
				c1.909-0.877,3.818-1.75,5.728-2.626c1.219,1.538,6.469-1.896,4.448,3.624C294.75,51.89,289.146,49.509,284.307,50.412z"/>
			<path fill-rule="evenodd" clip-rule="evenodd" fill="#EF4718" d="M305.325,56.623c-0.735,2.415-2.351,4.591-4.829,3.792
				c-2.652-0.851,0.769-2.418,0.345-3.792C302.335,56.623,303.829,56.623,305.325,56.623z"/>
			<path fill-rule="evenodd" clip-rule="evenodd" fill="#E2B24E" d="M305.325,56.623c-1.496,0-2.99,0-4.484,0
				c-1.434-2.363,0.655-2.237,1.746-2.077C303.665,54.702,306.509,53.285,305.325,56.623z"/>
			<path fill-rule="evenodd" clip-rule="evenodd" fill="#37835D" d="M309.533,49.984c1.458,0.38,2.92,0.765,4.377,1.145
				c-1.233,0.999-2.013,3.049-3.912,2.427C309.505,53.396,309.669,51.229,309.533,49.984z"/>
			<path fill-rule="evenodd" clip-rule="evenodd" fill="#B73855" d="M133.305,169.118c-0.136,0.277-0.292,0.557-0.432,0.834
				c0.164-0.26,0.33-0.519,0.493-0.778L133.305,169.118z"/>
			<path fill-rule="evenodd" clip-rule="evenodd" fill="#A4D9D9" d="M430.563,50.451c0.979,0.221,2.696,0.272,2.793,0.691
				c0.449,1.961-1.278,2.683-2.645,3.521c-5.069-1.045-10.487,5.749-16.283-0.372C419.897,50.43,426.272,54.93,430.563,50.451z"/>
			<path fill-rule="evenodd" clip-rule="evenodd" fill="#B77F24" d="M301.152,90.387c-9.857,1.465-18.339-3.227-27.229-6.098
				c1.529-5.106,8-4.333,10.228-8.605l-0.05,0.044C300.392,78.38,300.392,78.38,301.152,90.387z"/>
			<path fill-rule="evenodd" clip-rule="evenodd" fill="#F9D994" d="M284.151,75.684c-2.228,4.272-8.698,3.499-10.228,8.605
				c-8.674,5.325-18.642,7.229-28.048,10.595c-4.242-1.157-4.527-5.663-7.026-8.293c4.857-3.83,10.627-1.084,15.836-2.237
				c3.603-0.794,7.447-1.084,10.271-3.935c0.743-0.842,1.479-1.685,2.213-2.526l-0.044,0.181
				C273.033,78.963,277.992,73.023,284.151,75.684z"/>
			<path fill-rule="evenodd" clip-rule="evenodd" fill="#B77F24" d="M267.169,77.892c-0.734,0.842-1.47,1.685-2.213,2.526
				C265.148,79.092,265.787,78.168,267.169,77.892z"/>
			<path fill-rule="evenodd" clip-rule="evenodd" fill="#8F4A10" d="M409.798,87.151c1.306,3.071,2.618,6.142,3.922,9.214
				c-4.948-0.553-10.633-0.057-10.824-7.49C405.194,88.301,407.493,87.727,409.798,87.151z"/>
			<path fill-rule="evenodd" clip-rule="evenodd" fill="#F9D994" d="M294.232,43.437c-1.909,0.877-3.818,1.75-5.728,2.626
				c-6.677-1.084-12.121,1.724-16.758,5.981c-4.034,3.702-6.505,2.605-8.647-1.714c2.815-1.321,5.632-2.644,8.447-3.97
				c2.74-0.583,5.712-0.825,6.211-4.491l-0.033-0.022c1.382-0.021,2.437-0.38,2.158-2.103l0.019,0.013
				c2.393,1.719,3.784,0.246,5.063-1.589c8.846-5.292,6.142-12.224,2.729-19.256c5.364-4.487,8.544-5.205,11.516,3.17
				C302.379,31.031,299.727,37.222,294.232,43.437z"/>
			<path fill-rule="evenodd" clip-rule="evenodd" fill="#B77F24" d="M287.692,18.912c3.413,7.032,6.117,13.964-2.729,19.256
				c-1.244-0.303-2.48-0.601-3.715-0.903c0.596-1.46,0.787-2.834-0.787-3.849c0.252-4.928-3.618-7.417-6.297-10.617
				c1.608,0.134,2.946-0.268,3.663-1.871l0.302-0.056C281.354,20.411,284.213,18.139,287.692,18.912z"/>
			<path fill-rule="evenodd" clip-rule="evenodd" fill="#E2B24E" d="M277.828,20.929c-0.717,1.603-2.055,2.004-3.663,1.871
				c-1.961-0.173-3.92-0.35-7.144-0.635C271.375,19.478,274.658,20.946,277.828,20.929z"/>
			<path fill-rule="evenodd" clip-rule="evenodd" fill="#B77F24" d="M56.949,113.745c-3.395,2.674-4.439,6.388-4.613,10.483
				c-1.182,0.042-2.374,0.091-3.559,0.138c-0.12-0.738-0.231-1.477-0.354-2.216c-0.751-2.69-1.494-5.377-2.236-8.063
				c1.288-5.184,2.236-10.314-2.178-14.647c5.201,0.293,11.143-2.755,15.057,3.343C58.367,106.437,57.658,110.091,56.949,113.745z"
				/>
			<path fill-rule="evenodd" clip-rule="evenodd" fill="#8F4A10" d="M46.188,114.087c0.742,2.686,1.485,5.373,2.236,8.063
				c-1.615,0.233-3.229,0.466-4.837,0.704c-1.097-0.294-2.188-0.587-3.273-0.881C41.013,118.411,41.34,114.562,46.188,114.087z"/>
			<path fill-rule="evenodd" clip-rule="evenodd" fill="#B73855" d="M45.039,133.92c-0.969-2.519-0.676-4.12,1.485-4.647
				c0.726-0.177,2.417,0.605,2.4,0.851C48.777,132.059,47.405,133.1,45.039,133.92z"/>
			<path fill-rule="evenodd" clip-rule="evenodd" fill="#BE4628" d="M43.587,122.854c1.607-0.238,3.222-0.471,4.837-0.704
				c0.122,0.739,0.233,1.478,0.354,2.216C46.8,124.721,44.969,124.544,43.587,122.854z"/>
			<path fill-rule="evenodd" clip-rule="evenodd" fill="#167F88" d="M443.342,26.967c-1.33,0.009-2.66,0.017-3.99,0.022
				c0.076-2.63,2.54-2.372,4.016-3.3c1.063,0.362,2.136,0.721,3.198,1.084C445.492,25.507,444.412,26.237,443.342,26.967z"/>
			<path fill-rule="evenodd" clip-rule="evenodd" fill="#B77F24" d="M65.649,112.151c-0.811-3.102-1.616-6.207-2.429-9.308
				c4.977-3.235,8.881,2.829,13.201,0.285c1.857,4.66-1.003,6.98-1.063,9.995C71.705,112.757,68.681,112.454,65.649,112.151z"/>
			<path fill-rule="evenodd" clip-rule="evenodd" fill="#4B6C77" d="M457.613,48.114c3.333,2.7,3.385,6.972,5.017,10.487
				c-1.405,0.126-2.823,0.247-4.231,0.372l-0.216-0.513c-0.302-1.56-0.38-3.581-2.626-3.063c-0.699,0.164-1.003,2.043-1.486,3.136
				c-3.585,0.406-7.178,0.817-10.765,1.222c-0.577,0.337-1.156,0.674-1.743,1.011c-7.188-1.581-2.746-5.74-2.003-9.074
				c6.037,2.937,7.453-5.08,12.23-5.158C453.241,48.862,454.978,50.136,457.613,48.114z"/>
			<path fill-rule="evenodd" clip-rule="evenodd" fill="#A4D9D9" d="M427.768,99.094c-2.903-0.812-6.48,0.938-8.743-2.311
				c8.146-3.321,14.763-10.22,24.273-10.318c1.358,1.295,2.704,2.595,4.052,3.896c-1.512,1.088-3.031,2.182-4.551,3.274
				c-1.868,0.173-3.733,0.346-5.608,0.522c-0.95-0.958-1.624-0.881-1.943,0.518C433.951,98.17,429.019,95.526,427.768,99.094z"/>
			<path fill-rule="evenodd" clip-rule="evenodd" fill="#5DB4B5" d="M477.31,63.072c-4.32,2.561-8.433,4.056-11.032-2.168
				c0.751-0.156,1.501-0.315,2.265-0.471c2.538,1.326,4.992,2.998,8.11,1.931L477.31,63.072z"/>
			<path fill-rule="evenodd" clip-rule="evenodd" fill="#8F4A10" d="M441.563,60.765c0.587-0.337,1.166-0.673,1.743-1.011
				c0.052,0.536,0.147,1.067,0.288,1.59c1.294,2.411,3.446,1.265,5.312,1.278c0.777,0.113,1.555,0.225,2.333,0.338l0.344,0.475
				C447.877,63.927,443.015,68.777,441.563,60.765z"/>
			<path fill-rule="evenodd" clip-rule="evenodd" fill="#8A9C9A" d="M468.542,60.433c-0.764,0.156-1.514,0.315-2.265,0.471
				c-0.502,0.009-1.011,0.026-1.513,0.052c-2.039,0.147-4.076,0.293-6.117,0.44l-0.524-0.427c0.301-0.635,0.396-1.3,0.275-1.996
				c1.408-0.125,2.826-0.246,4.231-0.372c2.109,0.212,4.218,0.419,6.315,0.631C468.766,59.617,468.636,60.018,468.542,60.433z"/>
			<path fill-rule="evenodd" clip-rule="evenodd" fill="#4B6C77" d="M455.876,40.608c0.813-2.855,2.429-3.857,5.208-2.281
				c-0.559,3.351-2.634,3.356-5.156,2.401L455.876,40.608z"/>
			<path fill-rule="evenodd" clip-rule="evenodd" fill="#C9C1B9" d="M457.889,62.602c-2.099,0.276-4.198,0.557-6.307,0.833
				l-0.344-0.475c2.289-0.661,4.586-1.326,6.885-1.991l0.524,0.427C458.305,61.742,458.053,62.143,457.889,62.602z"/>
			<path fill-rule="evenodd" clip-rule="evenodd" fill="#5DB4B5" d="M457.889,62.602c0.164-0.458,0.416-0.86,0.759-1.206
				c2.041-0.147,4.078-0.293,6.117-0.44C462.882,63.218,460.453,63.185,457.889,62.602z"/>
			<path fill-rule="evenodd" clip-rule="evenodd" fill="#93AC6C" d="M449.96,37.58c2.297-0.354,4.146,0.047,4.646,2.742
				C451.03,42.84,450.651,39.951,449.96,37.58z"/>
			<path fill-rule="evenodd" clip-rule="evenodd" fill="#167F88" d="M442.799,93.635c1.52-1.092,3.039-2.186,4.551-3.274
				c13.847-1.343,25.112-10.604,38.761-12.625c3.413-0.505,6.497-2.812,10.204-2.064l0.155,0.164
				c-0.503,8-11.403,7.226-12.458,14.767c-7.749,5.391-15.386,11.066-25.579,10.527C454.026,96.961,445.76,100.831,442.799,93.635z"
				/>
			<path fill-rule="evenodd" clip-rule="evenodd" fill="#167F88" d="M496.314,75.672c0.327-0.433,0.654-0.869,0.982-1.305
				c1.166,1.3-0.154,1.201-0.827,1.469L496.314,75.672z"/>
			<path fill-rule="evenodd" clip-rule="evenodd" fill="#A4D9D9" d="M468.542,60.433c0.094-0.415,0.224-0.816,0.403-1.201
				c1.979-0.276,3.958-0.557,5.936-0.833c1.925,0.726,2.515,2.047,1.771,3.965C473.534,63.43,471.08,61.758,468.542,60.433z"/>
			<path fill-rule="evenodd" clip-rule="evenodd" fill="#251308" d="M442.799,93.635c2.961,7.196,11.228,3.327,15.634,7.495
				c-10.565,4.457-20.419-1.672-30.665-2.035c1.251-3.568,6.184-0.924,7.479-4.419c0.726,0.13,1.374-0.042,1.943-0.518
				C439.065,93.98,440.931,93.808,442.799,93.635z"/>
			<path fill-rule="evenodd" clip-rule="evenodd" fill="#E2B24E" d="M508.027,104.416c-0.501,0.208-0.984,0.462-1.504,0.579
				c-0.112,0.026-0.336-0.44-0.509-0.678c0.493-0.204,0.977-0.458,1.485-0.57C507.622,103.721,507.846,104.183,508.027,104.416z"/>
			<path fill-rule="evenodd" clip-rule="evenodd" fill="#C7754B" d="M277.758,41.869c-0.499,3.667-3.471,3.908-6.211,4.491
				c-0.881-0.121-1.762-0.242-2.642-0.362C272.422,45.829,271.575,36.306,277.758,41.869z"/>
			<path fill-rule="evenodd" clip-rule="evenodd" fill="#C7754B" d="M281.249,37.265c1.234,0.302,2.471,0.6,3.715,0.903
				c-1.278,1.835-2.67,3.308-5.063,1.589C280.351,38.927,280.8,38.093,281.249,37.265z"/>
			<path fill-rule="evenodd" clip-rule="evenodd" fill="#C7754B" d="M279.883,39.744c0.278,1.723-0.776,2.082-2.158,2.103
				C278.449,41.147,279.168,40.443,279.883,39.744z"/>
			<path fill-rule="evenodd" clip-rule="evenodd" fill="#C7754B" d="M458.123,60.969c-2.299,0.665-4.596,1.33-6.885,1.991
				c-0.778-0.113-1.556-0.225-2.333-0.338c-1.226-2.669-3.387-1.498-5.312-1.278c-0.141-0.522-0.236-1.054-0.288-1.59
				c3.587-0.405,7.18-0.816,10.765-1.222c1.374-0.026,2.74-0.052,4.112-0.073l0.216,0.513
				C458.52,59.668,458.424,60.333,458.123,60.969z"/>
			<path fill-rule="evenodd" clip-rule="evenodd" fill="#167F88" d="M458.183,58.459c-1.372,0.021-2.738,0.047-4.112,0.073
				c0.483-1.092,0.787-2.972,1.486-3.136C457.803,54.878,457.881,56.899,458.183,58.459z"/>
			<path fill-rule="evenodd" clip-rule="evenodd" fill="#167F88" d="M437.19,94.157c-0.569,0.476-1.218,0.648-1.943,0.518
				C435.566,93.276,436.24,93.199,437.19,94.157z"/>
			<path fill-rule="evenodd" clip-rule="evenodd" fill="#EF4718" d="M443.594,61.344c1.925-0.22,4.086-1.391,5.312,1.278
				C447.04,62.609,444.888,63.755,443.594,61.344z"/>
		</g>
	</g>
</g>
<g id="Layer_2">
</g>
</svg>
