<?xml version="1.0" encoding="utf-8"?>
<!-- Generator: Adobe Illustrator 16.0.3, SVG Export Plug-In . SVG Version: 6.00 Build 0)  -->
<!DOCTYPE svg PUBLIC "-//W3C//DTD SVG 1.1//EN" "http://www.w3.org/Graphics/SVG/1.1/DTD/svg11.dtd">
<svg version="1.1" xmlns="http://www.w3.org/2000/svg" xmlns:xlink="http://www.w3.org/1999/xlink" x="0px" y="0px"
	 width="545.76px" height="763.68px" viewBox="0 0 545.76 763.68" enable-background="new 0 0 545.76 763.68" xml:space="preserve">
<g id="Background">
</g>
<g id="Text">
	<g id="Layer_4">
		<g>
			<path fill-rule="evenodd" clip-rule="evenodd" fill="none" stroke="#2A5663" stroke-miterlimit="10" d="M326.46,163.502
				c-3.402,3.235-6.12,7.339-11.358,8.458c1.323,3.54,2.531,6.77,3.706,9.914c-2.62,1.766-4.754,4.122-7.298,4.712
				c-4.194,0.974-6.735,3.781-9.409,6.512c-4.336,4.429-9.238,7.668-15.833,8.701c-0.406,1.197-0.676,2.679-1.39,3.902
				c-0.683,1.168-1.827,2.067-2.62,2.924c-1.904-0.629-3.288-1.086-4.467-1.477c-3.551,2.628-6.813,5.148-7.704,9.626
				c-0.153,0.771-1.198,1.408-1.908,2.017c-2.287,1.965-4.312,4.022-4.332,7.365c-0.004,0.689-0.701,1.38-1.101,2.058
				c-0.729,1.238-1.475,2.467-2.025,3.385c2.043,3.941,3.872,7.47,5.559,10.724c-1.563,5.252-1.068,9.287,4.926,11.052
				c-1.088,0.449-1.795,0.741-2.374,0.98c-0.947,2.582,0.243,4.208,1.944,5.98c2.481-1.869,4.769-3.601,7.071-5.313
				c0.19-0.142,0.474-0.159,0.715-0.234c0.707,0.578,1.415,1.155,2.051,1.675c0.907-0.358,1.645-0.649,2.383-0.94
				c-0.236,0.299-0.473,0.598-0.709,0.898c1.264,0.817,2.528,1.635,3.792,2.453l-0.11,0.122c-1.498,0.541-2.997,1.082-4.75,1.715
				c-0.204,0.993-0.652,2.018-0.546,2.981c0.104,0.942,0.773,1.822,1.242,2.829c-1.536,0.999-2.744,1.785-3.509,2.282
				c-1.437-0.171-2.398-0.286-3.303-0.393c-2.721,9.632-2.721,9.632,0.333,13.567c-1.809,2.159-4.293,4.056-5.22,6.536
				c-0.898,2.404-0.195,5.406-0.195,8.201c-2.117,1.207-4.746,1.766-5.128,4.277c0.732,2.648,1.366,4.94,1.938,7.006
				c1.624,1.554,3.126,2.991,4.743,4.54c-1.117,0.973-1.857,1.617-2.376,2.068c1.318,3.002,2.44,5.693,3.683,8.328
				c0.624,1.322,1.388,2.659,3.271,2.254l0.144,0.1c-0.379,1.518,0.558,3.627-1.525,4.156c-2.318-1.635-4.428-3.123-6.761-4.768
				c-1.712,1.12-3.175,2.078-4.639,3.035l-0.16,0.119c-0.674,0.313-1.78,0.475-1.947,0.961c-0.673,1.953-1.056,4.006-1.471,5.715
				c1.946,1.5,3.36,2.589,5.21,4.014c-2.306,3.151-4.318,5.9-6.686,9.137c0.042,0.662,0.125,1.973,0.217,3.424
				c1.106-0.115,1.972-0.207,3.053-0.32c-2.727,1.236-5.214,2.363-8.123,3.681c2.465,3.229,4.487,5.878,6.556,8.588
				c0.534,2.64-1.206,4.557-2.814,6.214c-2.103,2.166-3.123,4.543-2.83,7.443c0.303,3.014,0.017,6.351,2.406,8.658
				c3.312,3.199,6.898,6.114,10.358,9.16c0.189,0.167,0.298,0.424,0.452,0.648c-0.617,2.81-1.288,5.617-1.836,8.448
				c-0.342,1.767,0.064,3.227,2.164,3.593l-0.042,0.32c-1.348,1.464-2.695,2.929-4.296,4.668c-3.495,0.225-5.532,3.113-7.689,5.758
				c-0.95-0.131-1.831-0.25-2.973-0.406c-1.201,3.395-2.343,6.625-3.665,10.36c-1.885,0-4.188-0.273-6.399,0.061
				c-3.695,0.561-6.84,0.127-9.319-3.007c-0.607-0.768-1.72-1.432-2.684-1.574c-5.048-0.748-10.11-1.449-15.192-1.891
				c-3.135-0.271-6.312-0.049-9.442-0.049c-1.073,1.418-2.021,2.672-3.002,3.969c0.81,1.558,1.531,2.94,2.763,5.308
				c-3.743-2.424-4.519,1.42-6.123,1.742c-2.634-1.084-4.681-1.926-6.67-2.742c-3.942,3.881-3.038,9.035-4.653,12.895
				c-1.449,1.131-2.747,1.898-3.731,2.959c-2.412,2.6-5.913,4.09-7.57,7.447c-0.05,0.102-0.222,0.145-0.336,0.213l-0.105-0.078
				c0.128-1.291-0.7-1.281-1.526-1.016c-2.099,0.672-4.174,1.422-6.431,2.199c-0.849,1.947-1.748,4.006-2.723,6.242
				c-0.995,0.324-2.113,0.689-3.238,1.057c-0.596,1.297-1.151,2.502-1.366,2.969c-1.982,1.508-3.22,2.746-4.705,3.494
				c-1.502,0.754-3.249,1.023-5.044,1.551c-0.484,0.57-1.084,1.285-1.698,1.986c-0.081,0.092-0.24,0.113-0.363,0.168
				c-2.68-2.385-2.677-2.365-5.412-0.68c-0.771,0.475-1.618,1.012-2.479,1.117c-1.599,0.195-3.216,0.615-3.348,2.297
				c-0.157,2-2.325,4.418,1.102,6.199c2.859,0.365,5.37-0.549,6.552-3.82c2.394,1.4,4.574,2.672,6.911,4.037
				c0.098,1.047,0.459,2.146,0.239,3.111c-0.457,2.008,0.371,3.383,1.695,4.654"/>
			<path fill-rule="evenodd" clip-rule="evenodd" fill="none" stroke="#2A5663" stroke-miterlimit="10" d="M156.573,488.714
				c0.635-0.465,1.278-1.336,1.903-1.324c2.438,0.049,3.606-1.398,4.588-3.314c-0.178-0.641-0.458-1.277-0.508-1.93
				c-0.057-0.752,0.089-1.52,0.163-2.488c4.658,0.053,7.15-5.486,12.179-3.779c0.857-1.914,1.608-3.594,2.133-4.764
				c3.591,0.252,6.942,1.16,9.938,0.482c2.341-0.527,4.388-0.223,6.576-0.258c0.956,1.037,1.691,2.41,2.791,2.834
				c0.795,0.305,2.075-0.648,2.856-0.938c1.274,1.121,2.494,2.563,4.033,3.445c1.583,0.908,3.479,1.271,5.167,1.85
				c-0.029,4.08,1.47,5.41,4.738,4.434l0.116,0.104c0.197,0.543,0.394,1.086,0.667,1.836c1.342-0.643,2.396-1.148,3.373-1.615
				c0.543-1.553,1.026-2.932,1.514-4.322c2.457-1.061,5.261-1.582,6.191-4.545c-0.64-0.902-1.238-1.748-1.898-2.68
				c0.994-1.121,1.867-2.107,2.736-3.088c-0.125-1.041-0.245-2.039-0.288-2.396c1.562-1.404,2.696-2.426,3.851-3.465
				c2.968,0.691,4.887-1.346,6.682-2.811c2.204-0.145,4.123-0.047,5.941-0.428c9.205-1.93,13.487,0.535,19.853,7.92
				c1.166,1.354,2.506,2.828,2.141,4.951c-0.019,0.111,0.386,0.293,0.806,0.594c0.627-0.467,1.318-0.98,1.905-1.418
				c-0.204-1.545-0.371-2.811-0.544-4.129c0.655-0.141,1.092-0.389,1.402-0.279c3.843,1.377,7.722,2.678,11.471,4.277
				c1.641,0.699,3.109,1.949,4.731,0.365c1.498-1.463,2.531-3.189,1.012-5.527c-1.042-0.436-2.236-0.934-3.67-1.533
				c0.479-0.502,0.833-0.875,1.153-1.209c3.012,2.059,9.289,2.633,12.509,1.297c1.586,0.762,3.142,1.508,4.697,2.256
				c0.055,0.223,0.191,0.373,0.407,0.453l-0.068,0.096c-0.596,0.51-1.193,1.021-2.261,1.934c5.604-0.049,6.981,4.938,10.855,6.828
				c1.427-0.262,3.098-0.568,4.278-0.785c1.541-1.887,2.745-3.361,4.132-5.059c-0.346-0.967-0.789-2.203-0.993-2.773
				c-2.696-1.723-4.832-3.086-6.967-4.449c0.43-0.666,0.86-1.332,1.629-2.523c3.256,5.811,8.059,4.193,12.618,4.467
				c0.088-1.033,0.158-1.85,0.245-2.865c2.262,2.256,0.852,6.869,5.14,6.996c1.405-0.779,2.878-1.381,4.403-1.791
				c1.008-0.271,2.088-0.357,3.139-0.377c7.51-0.148,15.222-1.99,22.182,2.604c0.882,0.582,1.813,1.107,2.768,1.563
				c1.438,0.684,2.87,1.623,4.389,1.826c1.857,0.25,4.128,0.51,4.711-2.266l0.13-0.158c2.295-0.477,4.599-0.918,6.885-1.432
				c3.629-0.816,7.935-0.355,9.588-4.982c0.131-0.127,0.242-0.27,0.334-0.426c2.585,0.814,5.17,1.629,7.759,2.445
				c0.828-1.891,1.616-3.18,1.953-4.578c0.487-2.021,2.024-2.838,3.626-3.383c2.351-0.801,4.812-1.285,7.238-1.852
				c4.099-0.955,6.329-3.699,6.433-7.941c0.052-2.094-0.268-4.127,1.287-6.096c0.945-1.197,0.646-3.15-0.455-3.654
				c-3.223-0.244-5.58-0.627-7.919-0.539c-2.228,0.082-4.487,0.473-6.64,1.064c-2.551,0.701-4.999,1.631-7.553-0.139
				c1.849-0.115,3.555-0.223,5.744-0.359c-4.297-4.326-7.973-6.828-12.5-8.213c-1.309-0.4-2.874-0.172-4.286,0.023
				c-1.524,0.209-3.007,0.719-5.066,1.238c1-0.643,1.437-0.922,1.873-1.203c2.841-0.645,5.683-1.289,9.008-2.043
				c4.28,1.475,8.282,0.137,11.346-3.269c0.426-1.441,0.95-2.535,1.03-3.66c0.101-1.408,0.028-2.893-0.324-4.254
				c-0.301-1.162-1.267-1.227-2.173-0.393c-1.968,0.033-3.64,2.887-6.312,0.588c3.895-1.25,7.392-2.373,10.991-3.529
				c-0.265-0.936-0.458-1.617-0.833-2.947c1.022,1.173,1.617,1.851,2.208,2.533c0.675,0.777,1.347,1.557,1.911,2.207
				c5.605-1.305,6.496-1.861,8.394-5.182c-0.527-0.46-1.071-0.935-1.874-1.634c1.056-0.78,2.107-1.328,2.855-2.153
				c1.763-1.945,5.156-2.309,5.488-5.631l0.119-0.128c3.764-0.207,5.721-2.452,6.676-5.867c0.359-1.291,0.715-2.595,1.227-3.829
				c0.861-2.079,1.896-4.087,2.76-6.164c0.873-2.1,1.65-4.24,2.428-6.379c0.482-1.326,0.889-2.68,1.064-3.214
				c0-2.899-0.211-5.042,0.043-7.126c0.551-4.499-0.67-8.499-3.52-11.816c-2.523-2.938-5.449-5.555-8.377-8.108
				c-1.479-1.29-3.348-2.984-5.053-2.999c-4.368-0.037-8.337-1.766-12.39-2.705c-3.912-0.905-7.668-0.928-11.502-0.969
				c-2.134-0.022-3.698,1.219-4.376,3.479c-0.567,1.894-1.44,3.695-2.178,5.537l-0.135,0.111c-2.257,0.297-4.5-0.189-5.721-2.023
				c-1.744-2.618-4.072-3.908-7.912-4.201c1.998-1.463,3.618-2.113,4.375-3.311c1.768-2.795,4.41-4.223,7.214-5.508
				c1.857-0.852,2.751-2.156,3.259-4.2c1.457-5.861-0.362-11.161-2.736-16.222c-1.294-2.759-2.167-6.175-5.603-7.467l-0.121-0.141
				c-1.186-1.705-2.286-3.479-3.583-5.095c-1.256-1.564-3.216-2.746-3.977-4.485c-1.384-3.164-3.377-4.485-6.832-3.695
				c3.709-1.315,4.396-1.172,6.383,1.297c0.841,1.045,1.487,2.26,2.393,3.239c1.758,1.9,3.786,3.037,6.389,1.486l0.135,0.106
				c0.577,1.39,1.154,2.781,1.78,4.287c2.497-0.702,2.902-2.103,1.981-4.02c-1.624-3.381-2.951-6.982-5.062-10.034
				c-3.469-5.014-3.643-10.432-3.266-15.95c1.295-1.318,2.463-2.507,3.993-4.063c-2.065-1.449-3.655-2.564-5.257-3.689
				c-0.814-1.281-1.725-2.599-2.512-3.986c-0.766-1.351-1.493-2.737-2.077-4.173c-0.606-1.489-1.114-3.033-1.502-4.593
				c-1.665-6.698-6.465-10.33-12.263-13.317c-2.207-1.137-5.069-1.497-6.431-4.289c-0.428-0.878-2.226-1.088-3.837-1.797
				c-0.247-0.582,2.68-2.247-0.338-3.127l-0.099-0.12c-2.058-4.8-3.742-9.65-2.743-15.032c0.16-0.862-0.18-1.875-0.481-2.752
				c-1.042-3.034-2.168-6.039-3.299-9.155c1.039-1.559,1.69-3.216,0.56-5.132c-0.312-0.529-0.403-1.327-0.291-1.945
				c0.712-3.904-1.205-7.854,0.291-11.765c0.359-0.938,0.219-2.104,0.161-3.158c-0.153-2.742-0.692-5.143-3.609-6.576
				c-1.559-0.766-3.01-2.271-3.883-3.799c-1.705-2.987-2.969-6.226-4.416-9.361 M327.42,473.64
				c-0.096,1.949,0.215,4.041-0.406,5.805c-0.584,1.656-2.153,2.967-3.151,4.25C327.618,484.132,328.778,481.427,327.42,473.64z
				 M370.985,483.974c2.164-0.916,2.301-0.914,2.376-3.143c0.062-1.85,0.722-3.072,2.468-3.707c0.1-0.037,0.081-0.398,0.187-1.02
				c-1.223,0.563-2.229,1.023-2.576,1.184C372.428,480.044,371.685,482.069,370.985,483.974z M333.506,476.757
				c-2.108,0.91-2.108,0.91-2.295,7.693C332.111,481.433,332.848,478.964,333.506,476.757z"/>
			<path fill-rule="evenodd" clip-rule="evenodd" fill="none" stroke="#2A5663" stroke-miterlimit="10" d="M370.084,470.995
				c-0.583,2.775-2.854,2.516-4.711,2.266c-1.519-0.203-2.952-1.143-4.389-1.826c-0.955-0.455-1.885-0.98-2.768-1.563
				c-6.96-4.594-14.672-2.752-22.182-2.604c-1.051,0.02-2.131,0.105-3.139,0.377c-1.524,0.41-2.998,1.012-4.403,1.791
				c-4.289-0.127-2.878-4.74-5.14-6.996c-0.087,1.016-0.157,1.832-0.245,2.865c-4.559-0.273-9.361,1.344-12.618-4.467
				c-0.769,1.191-1.199,1.857-1.629,2.523c-0.4,0.387-0.8,0.771-1.2,1.158c-2.579,0.484-5.667-0.885-7.564,2.078
				c-0.206,0.174-0.412,0.346-0.619,0.52c-1.555-0.748-3.111-1.494-4.697-2.256c-3.22,1.336-9.497,0.762-12.509-1.297
				c-0.32,0.334-0.673,0.707-1.153,1.209c1.435,0.6,2.628,1.098,3.67,1.533c1.519,2.338,0.486,4.064-1.012,5.527
				c-1.622,1.584-3.09,0.334-4.731-0.365c-3.75-1.6-7.628-2.9-11.471-4.277c-0.31-0.109-0.747,0.139-1.402,0.279
				c0.174,1.318,0.341,2.584,0.544,4.129c-0.587,0.438-1.278,0.951-1.905,1.418c-0.42-0.301-0.825-0.482-0.806-0.594
				c0.365-2.123-0.975-3.598-2.141-4.951c-6.365-7.385-10.648-9.85-19.853-7.92c-1.818,0.381-3.737,0.283-5.941,0.428
				c-1.794,1.465-3.713,3.502-6.682,2.811c-1.155,1.039-2.29,2.061-3.851,3.465c0.043,0.357,0.163,1.355,0.288,2.396
				c-0.869,0.98-1.742,1.967-2.736,3.088c0.66,0.932,1.258,1.777,1.898,2.68c-0.93,2.963-3.734,3.484-6.191,4.545
				c-0.487,1.391-0.97,2.77-1.514,4.322c-0.977,0.467-2.031,0.973-3.373,1.615c-0.272-0.75-0.469-1.293-0.667-1.836
				c1.39-0.504,2.719-0.932,3.245-2.656c0.941-3.084,3.578-4.391,6.686-5.635c-3.335-2.918-0.376-4.93,1.078-7.025
				c-0.675-1.029-1.207-1.84-1.937-2.953c1.664-0.398,2.915-0.699,4.469-1.072c0.41-2.375,0.815-4.725,1.22-7.076
				c0.23-0.012,0.461-0.025,0.691-0.037c0.699,1.518,1.397,3.035,2.062,4.482c2.05-0.848,4.03-2.057,6.162-2.459
				c3.394-0.645,6.89-0.752,9.858-1.039c3.903-4.615-0.727-7.033-2.103-10.41c-0.814-0.072-1.708-0.15-2.263-0.199
				c-0.912-1.027-1.475-2.256-2.3-2.469c-2.027-0.525-3.106-1.828-4.245-3.412c-1.62-2.252-3.559-3.994-6.82-2.738
				c-0.915,0.352-2.225-0.32-3.288-0.512c-0.077-1.279-0.13-2.166-0.175-2.906c-6.319-3.818-7.374-5.428-6.311-9.304
				c1.119-1.17,3.321,0.823,4.266-1.904c-5.616-0.301-10.958-0.59-16.566-0.891c-0.562,1.322-1.106,2.607-1.735,4.089
				c1.098,0.443,1.819,0.717,2.524,1.023c0.839,0.365,1.695,0.711,2.477,1.176c0.201,0.121,0.151,0.662,0.234,1.104
				c-1.284,0.262-2.44,0.498-3.358,0.684c-0.982,1.07-1.772,1.932-2.802,3.053c-0.467-0.984-0.764-1.611-1.158-2.445
				c-2.048,2.598-4.254,3.271-6.898,0.92c-0.621-0.553-1.716-0.572-2.774-0.891c-0.423,0.971-0.777,1.785-1.095,2.516
				c3.148,3.398,3.301,4.662,1.488,8.508c0.689,1.998,1.579,3.529,1.697,5.119c0.353,4.732,1.561,9.176,3.49,13.494
				c0.409,0.916,0.386,2.5-0.157,3.271c-1.348,1.912-0.971,3.807,0.085,5.283c2.017,2.82,3.68,6.227,7.906,6.559
				c1.282,0.102,2.52,0.762,3.74,1.152c-0.133,1.402-0.24,2.539-0.271,2.871c0.498,2.195,3.371-0.102,2.763,2.627
				c-3.268,0.977-4.767-0.354-4.738-4.434c-1.688-0.578-3.583-0.941-5.167-1.85c-1.539-0.883-2.758-2.324-4.033-3.445
				c-0.781,0.289-2.061,1.242-2.856,0.938c-1.1-0.424-1.835-1.797-2.791-2.834c-2.188,0.035-4.235-0.27-6.576,0.258
				c-2.995,0.678-6.347-0.23-9.938-0.482c-0.524,1.17-1.276,2.85-2.133,4.764c-5.028-1.707-7.521,3.832-12.179,3.779
				c-0.073,0.969-0.22,1.736-0.163,2.488c0.05,0.652,0.331,1.289,0.508,1.93c-0.981,1.916-2.149,3.363-4.588,3.314
				c-0.625-0.012-1.269,0.859-1.903,1.324c-0.539,0-1.079,0-1.618,0c-1.324-1.271-2.151-2.646-1.695-4.654
				c0.22-0.965-0.141-2.064-0.239-3.111c-2.337-1.365-4.517-2.637-6.911-4.037c-1.183,3.271-3.693,4.186-6.552,3.82
				c-3.427-1.781-1.259-4.199-1.102-6.199c0.132-1.682,1.75-2.102,3.348-2.297c0.861-0.105,1.708-0.643,2.479-1.117
				c2.735-1.686,2.732-1.705,5.412,0.68c0.123-0.055,0.283-0.076,0.363-0.168c0.614-0.701,1.214-1.416,1.698-1.986
				c1.796-0.527,3.542-0.797,5.044-1.551c1.485-0.748,2.722-1.986,4.705-3.494c0.215-0.467,0.77-1.672,1.366-2.969
				c1.125-0.367,2.243-0.732,3.238-1.057c0.976-2.236,1.874-4.295,2.723-6.242c2.257-0.777,4.332-1.527,6.431-2.199
				c0.826-0.266,1.654-0.275,1.526,1.016c-1.481,0.791-2.922,2.129-4.455,2.242c-2.084,0.156-2.688,1.289-3.386,2.787
				c-0.611,1.311-1.102,2.938-2.165,3.721c-1.84,1.359-3.156,3.307-4.862,4.533c-2.787,2.006-5.24,5.238-9.25,4.494
				c-0.831,1.094-1.549,2.039-2.391,3.148c-1.594-1.16-2.618-1.908-3.373-2.457c-2.293,0.996-4.432,1.926-6.826,2.967
				c-0.233,1.236-0.515,2.73-0.875,4.635c1.694-0.246,2.963-0.434,3.711-0.543c1.094-1.559,1.919-2.734,2.729-3.889
				c2.227,1.303,3.908,2.4,5.688,3.305c3.102,1.576,3.866,2.922,3.526,6.361c-0.075,0.766,0.189,1.564,0.347,2.705
				c1.314-0.777,2.056-1.396,2.909-1.668c0.815-0.262,1.745-0.162,2.323-0.201c2.099-2.553-1.201-3.342-1.231-5.318
				c3.647-0.457,3.164-3.338,3.246-5.68c2.686-1.354,3.118,0.506,3.507,2.082c2.719-1.033,5.315-2.018,7.949-3.02
				c1.4-1.707,1.498-4.719,4.547-4.553c2.512,0.545,5.025,1.09,7.468,1.619c0.377-1.07,0.588-1.674,0.793-2.254
				c2.118,0.639,4.012,1.209,6.084,1.834c0.195-2.797,2.035-2.434,3.651-2.053c0.4-2.123,0.744-3.945,1.087-5.766
				c-1.493-5.217-4.064-10.189-3.183-15.646c-0.568-0.65-0.936-1.041-1.267-1.459c-0.406-0.514-0.781-1.053-1.098-1.482
				c1.861-5.756,1.861-5.756-0.868-7.182c-0.692,2.928,0.122,6.313-2.852,8.416c-2.429,1.717-4.612,3.781-6.938,5.721
				c-1.087,1.176-2.219,2.41-3.403,3.592c-0.021,0.021-0.676-0.594-1.035-0.914c0.115-0.068,0.286-0.111,0.336-0.213
				c1.657-3.357,5.158-4.848,7.57-7.447c0.984-1.061,2.283-1.828,3.731-2.959c1.615-3.859,0.711-9.014,4.653-12.895
				c1.989,0.816,4.036,1.658,6.67,2.742c1.604-0.322,2.38-4.166,6.123-1.742c-1.232-2.367-1.953-3.75-2.763-5.308
				c0.981-1.297,1.929-2.551,3.002-3.969c3.13,0,6.307-0.223,9.442,0.049c5.082,0.441,10.144,1.143,15.192,1.891
				c0.964,0.143,2.076,0.807,2.684,1.574c2.479,3.134,5.624,3.567,9.319,3.007c2.21-0.334,4.514-0.061,6.399-0.061
				c1.321-3.735,2.463-6.966,3.665-10.36c1.143,0.156,2.023,0.275,2.973,0.406c2.157-2.645,4.194-5.533,7.689-5.758
				c1.602-1.74,2.949-3.205,4.296-4.668c0.222,0.233,0.445,0.467,0.667,0.7c-0.771,1.179-1.543,2.358-2.226,3.399
				c2.02,1.258,3.686,2.297,5.32,3.315c0,1.465,0,2.6,0,3.793c2.228,0,4.21,0,5.793,0c1.223-2.867,2.311-5.416,3.198-7.497
				c2.956-1.426,5.522-2.664,8.469-4.086c1.161,0.378,2.803,0.912,4.445,1.447c-0.428,0.376-0.906,1.113-1.276,1.063
				c-1.288-0.177-2.539-0.625-3.803-0.971c0.029,0.231,0.059,0.463,0.089,0.695c-2.209,1.041-4.419,2.083-6.794,3.202
				c-2.226,5.402-4.718,11.061-1.924,17.052c-1.007,1.879-1.706,3.508-2.697,4.936c-1.052,1.512-2.812,2.648-1.688,4.639
				c2.286,3.035,4.572,6.07,6.698,8.893c3.415-0.531,6.571-1.025,9.571-1.492c2.541,1.053,3.885,4.107,7.629,3.52
				c-0.415-4.844-0.824-9.617-1.271-14.834c2.156-0.805,4.248-1.584,6.592-2.457c1.43-1.605,1.718-3.537,0.468-5.686
				c-0.761-1.308-1.241-2.597-0.381-4.177c0.379-0.695,0.296-1.854,0.014-2.658c-0.791-2.246-1.796-4.416-2.894-7.039
				c0.038-0.107,0.315-0.727,0.47-1.377c0.143-0.597,0.153-1.226,0.221-1.833c-4.553-0.679-4.553-0.679-6.309-2.257
				c0.732-0.519,1.464-1.038,2.17-1.539c1.833,1.89,1.833,1.89,3.787,1.162c0.604-2.943,0.757-5.993,1.898-8.612
				c1.166-2.674,1.757-5.306,1.896-8.136c0.009-0.177,0.339-0.339,0.61-0.592c0.616,0.354,1.292,0.742,2.167,1.245
				c0.753-0.473,1.581-0.99,3.027-1.897c-2.368-0.538-4.022-0.913-5.571-1.265c-1.031-1.561-1.964-2.971-2.976-4.502
				c-0.959,0.558-1.629,0.946-1.942,1.129c-0.259,1.581-0.458,2.794-0.722,4.411c-0.906-0.646-1.354-0.907-1.732-1.248
				c-0.485-0.438-0.913-0.938-1.22-1.26c-4.936,0.812-9.625,1.583-14.434,2.374c-0.65-1.091-1.25-2.099-1.748-2.934
				c-1.284,0.063-2.463,0.122-3.843,0.191c0.087,1.957,0.169,3.771,0.26,5.813c-2,0.722-3.934,1.251-5.704,2.118
				c-1.11,0.544-2.42,1.408-2.855,2.455c-1.087,2.616-1.983,5.378-1.422,8.326c0.003,0.716,0.007,1.432,0.011,2.148
				c-2.1-0.366-2.505-1.826-2.164-3.593c0.548-2.831,1.219-5.639,1.836-8.448c-0.153-0.225-0.263-0.481-0.452-0.648
				c-3.46-3.046-7.046-5.961-10.358-9.16c-2.389-2.308-2.103-5.645-2.406-8.658c-0.292-2.9,0.728-5.277,2.83-7.443
				c1.608-1.657,3.348-3.574,2.814-6.214c-2.069-2.71-4.09-5.358-6.556-8.588c2.909-1.317,5.396-2.444,8.123-3.681
				c-1.081,0.113-1.947,0.205-3.053,0.32c-0.092-1.451-0.175-2.762-0.217-3.424c2.368-3.236,4.38-5.985,6.686-9.137
				c-1.85-1.425-3.264-2.514-5.21-4.014c0.416-1.709,0.798-3.762,1.471-5.715c0.167-0.486,1.273-0.648,1.947-0.961
				c-0.645,1.854-1.29,3.707-1.666,4.791c2.038,2.434,3.684,4.398,5.208,6.219c-1.275,1.975-2.187,3.597-3.306,5.061
				c-1.127,1.475-2.461,2.793-4.197,4.729c2.115,0.106,3.349,0.169,4.577,0.231c0.938,2.068-0.042,2.905-1.632,3.496
				c-2.078,0.771-4.133,1.604-6.393,2.487c2.123,2.923,3.503,5.979,7.261,6.645c0.541-0.442,1.013-0.91,1.56-1.263
				c3.248-2.091,5.745-0.91,6.22,2.954c0.081,0.657-0.05,1.341-0.083,2.012c-0.801-1.249-1.603-2.499-2.578-4.02
				c-2.834-0.027-4.814,1.907-7.039,3.609c0.324,1.122,0.604,2.095,0.972,3.37c-3.782,0.016-4.155,3.544-5.972,4.939
				c0,1.446-0.078,2.488,0.014,3.516c0.333,3.706,0.569,7.488,3.861,10.038c3.007,2.33,6.073,4.587,8.956,6.758
				c2.482-0.795,4.803-1.538,7.048-2.257c0.051-3.104-0.629-5.953,2.026-7.826c0.783,0.409,1.506,0.787,2.615,1.367
				c0.591-2.487,1.079-4.536,1.59-6.689c-0.691-0.326-1.154-0.553-1.624-0.763c-0.489-0.22-0.985-0.422-1.167-0.5
				c1.468-4.026,1.468-4.026,0.854-6.951c-1.51,0-3.059,0-4.366,0c-1.571-1.563-1.123-4.366-3.823-4.611
				c0.354-0.61,0.707-1.221,1.158-1.998c1.082,0.879,1.897,1.541,2.098,1.704c2.277-0.213,3.855-0.36,5.647-0.528
				c1.892-2.004,3.891-4.122,6.093-6.453c0.409-1.29,0.932-2.939,1.397-4.403c-0.411-1.212-0.773-2.283-1.163-3.434
				c1.333-0.516,2.285-0.883,3.585-1.386c-2.08-5.442-4.083-10.683-6.098-15.952c0.717-1.057,1.337-1.972,1.882-2.775
				c-2.859-1.221-5.471-2.336-8.137-3.474c-1.187,2.112-1.611,4.948-4.484,4.583c-2.168-1.704-4.026-3.166-5.174-4.068
				c-2.484,0.322-4.023,0.523-5.562,0.723c1.463-0.957,2.927-1.915,4.639-3.035c2.333,1.645,4.442,3.133,6.761,4.768
				c2.083-0.529,1.146-2.639,1.525-4.156c1.426-0.025,3.426-0.658,4.168,0.043c1.916,1.808,4.329,1.503,6.59,2.743
				c1.031-1.29,1.873-2.466,2.844-3.521c0.877-0.953,1.815-2.398,2.87-2.537c3.521-0.467,5.304-2.912,6.982-5.193
				c1.628,0,3.056,0,4.566,0c0.354-3.233,0.65-5.947,1.018-9.306c-2.414,0.63-4.037,1.053-6.196,1.616
				c-2.886-1.578-6.145-3.359-9.021-4.931c-0.394-2.066-0.674-3.537-0.907-4.759c-1.957,0.725-3.451,1.277-5.307,1.964
				c-0.052,0.125-0.316,0.737-0.561,1.356c-1.84,4.67-4.01,5.685-9.046,4.489c-2.033-0.483-4.15-0.612-7.046-1.016
				c2.532,2.269,4.477,4.013,6.545,5.867c-1.037,1.594-1.714,2.635-2.21,3.397c1.585,3.36,3.076,6.524,4.567,9.687
				c-1.883,0.405-2.647-0.932-3.271-2.254c-1.243-2.635-2.365-5.326-3.683-8.328c0.519-0.451,1.259-1.096,2.376-2.068
				c-1.617-1.548-3.119-2.986-4.743-4.54c-0.571-2.066-1.205-4.358-1.938-7.006c0.382-2.512,3.011-3.071,5.128-4.277
				c0-2.795-0.703-5.797,0.195-8.201c0.926-2.479,3.411-4.377,5.22-6.536c-3.054-3.935-3.054-3.935-0.333-13.567
				c0.905,0.107,1.867,0.222,3.303,0.393c0.765-0.498,1.973-1.283,3.509-2.282c-0.468-1.007-1.138-1.887-1.242-2.829
				c-0.106-0.964,0.342-1.988,0.546-2.981c1.753-0.633,3.252-1.174,4.75-1.715c0.368,2.791-2.623,2.086-3.801,3.511
				c0.453,1.116,0.894,2.203,1.531,3.772c-1.314,1.332-2.765,2.802-4.486,4.546c-0.36,0.814-0.896,2.026-1.433,3.238
				c-0.318-0.05-0.635-0.1-0.953-0.15c-0.343-1.024-0.686-2.049-1.02-3.045c-0.481,2.448-0.966,4.909-1.538,7.819
				c1.169,0.319,2.123,0.521,3.033,0.844c1.063,0.377,2.09,0.861,4.014,1.668c-1.769,1.148-2.771,1.799-3.79,2.461
				c-0.677,1.149-1.122,2.818-2.2,3.535c-1.935,1.288-2.373,3.101-2.834,5.046c-0.398-0.287-0.805-0.563-1.188-0.869
				c-0.089-0.071-0.088-0.247-0.151-0.361c-0.021-0.04-0.113-0.04-0.5-0.158c1.646,4.762,1.381,10.238,6.772,13.011
				c1.425-1.382,2.343-3.369,4.453-2.595c0.827-1.253,1.581-2.396,2.502-3.79c-1.02-0.916-2.171-1.949-3.326-2.987
				c-0.97,0.659-1.819,1.236-3,2.037c-0.698-1.122-1.292-2.075-1.886-3.028c2.258,1.211,4.126-0.646,6.202-0.741
				c0.709-3.185,1.362-3.601,4.15-3.617c3.472-0.021,7.164,0.922,10.192-1.957c0.917,0.66,1.774,1.278,2.584,1.862
				c1.211-0.503,2.373-0.986,3.522-1.463c-0.221-4.179,3.177-6.195,5.414-8.925c-1.73-3.356-2.643-7.071-6.463-8.856
				c-0.767-0.359-1.005-1.823-1.518-2.762c-0.19-0.348-0.468-0.648-0.669-0.92c-1.173-0.424-2.28-0.824-3.275-1.183
				c-0.855-2.214-1.622-4.201-2.329-6.032c0.649-1.303,1.198-2.405,1.747-3.506c-0.186-0.219-0.371-0.438-0.556-0.658
				c-1.736,0.756-3.473,1.512-5.58,2.43c-0.955-0.503-2.326-1.227-3.698-1.949c0.117,1.214,0.747,1.73,1.067,2.395
				c0.108,0.225-0.564,0.826-0.88,1.256c-1.264-0.818-2.528-1.636-3.792-2.453c0.236-0.3,0.473-0.599,0.709-0.898
				c-0.738,0.291-1.476,0.582-2.383,0.94c-0.637-0.52-1.344-1.097-2.051-1.675c-0.241,0.075-0.524,0.093-0.715,0.234
				c-2.302,1.713-4.59,3.444-7.071,5.313c-1.701-1.772-2.891-3.399-1.944-5.98c0.579-0.239,1.286-0.531,2.374-0.98
				c-5.994-1.766-6.488-5.8-4.926-11.052c-1.687-3.254-3.516-6.783-5.559-10.724c0.55-0.918,1.296-2.147,2.025-3.385
				c0.399-0.678,1.097-1.369,1.101-2.058c0.02-3.343,2.044-5.4,4.332-7.365c0.71-0.609,1.754-1.246,1.908-2.017
				c0.892-4.478,4.153-6.998,7.704-9.626c1.179,0.39,2.563,0.847,4.467,1.477c0.793-0.856,1.938-1.755,2.62-2.924
				c0.714-1.223,0.984-2.705,1.39-3.902c6.595-1.033,11.497-4.271,15.833-8.701c2.674-2.73,5.214-5.538,9.409-6.512
				c2.544-0.591,4.679-2.947,7.298-4.712c-1.175-3.144-2.383-6.375-3.706-9.914c5.238-1.119,7.956-5.223,11.358-8.458
				c0.54,0,1.079,0,1.618,0c1.446,3.135,2.711,6.374,4.416,9.361c0.873,1.529,2.324,3.033,3.883,3.799
				c2.917,1.433,3.456,3.834,3.609,6.576c0.059,1.053,0.199,2.22-0.161,3.158c-1.496,3.91,0.421,7.861-0.291,11.765
				c-0.113,0.619-0.021,1.416,0.291,1.945c1.13,1.916,0.479,3.573-0.56,5.132c1.131,3.117,2.258,6.122,3.299,9.155
				c0.301,0.877,0.641,1.891,0.481,2.752c-0.999,5.382,0.685,10.232,2.743,15.032c-3.819-1.393-3.596-5.088-4.531-8.178
				c-1.002,0.716-1.914,1.369-3.163,2.261c-2.759-4.566-5.825-8.484-11.574-7.822c-0.918,1.184-1.648,2.125-2.347,3.027
				c-2.667-0.375-5.171-0.728-7.608-1.071c-1.571,1.093-2.995,2.084-4.334,3.016c-1.002-0.116-1.875-0.218-3.278-0.381
				c-0.311,3.469-0.598,6.662-0.848,9.451c1.791,2.859,3.381,5.396,4.87,7.774c1.791,0.653,3.695,1.347,6.125,2.233
				c2.292-1.005,5.096-2.235,8.262-3.624c2.177,1.494,4.472,3.068,7.381,5.064c3.066-1.837,6.547-3.924,9.619-5.766
				c0.585-2.252,1.055-4.06,1.524-5.866c3.018,0.88,0.091,2.545,0.338,3.127c1.611,0.709,3.409,0.919,3.837,1.797
				c1.361,2.792,4.224,3.151,6.431,4.289c5.797,2.987,10.598,6.619,12.263,13.317c0.388,1.56,0.896,3.104,1.502,4.593
				c0.584,1.436,1.311,2.822,2.077,4.173c0.788,1.388,1.698,2.705,2.512,3.986c1.603,1.125,3.192,2.24,5.257,3.689
				c-1.53,1.556-2.698,2.745-3.993,4.063c-0.377,5.518-0.203,10.936,3.266,15.95c2.111,3.052,3.438,6.653,5.062,10.034
				c0.921,1.917,0.516,3.317-1.981,4.02c-0.625-1.506-1.203-2.897-1.78-4.287c0.624-0.04,1.248-0.08,2.078-0.133
				c-1.984-3.779-3.655-7.564-5.856-11.01c-3.085-4.827-2.636-10.046-2.739-15.116c1.325-1.178,2.393-2.127,3.796-3.376
				c-1.135-0.304-1.98-0.842-2.548-0.631c-3.063,1.14-4.798-0.226-5.998-2.852c1.38,0.519,2.76,1.038,4.611,1.734
				c-2.676-4.96-5.894-8.975-6.704-14.17c-0.972-6.23-5.961-9.232-10.648-12.152c-2.866-1.786-6.415-2.479-8.208-5.777
				c-3.387,2.054-6.574,3.87-9.638,5.874c-4.068,2.661-4.5,2.63-7.914-0.323c-1.238-1.071-2.849-1.711-3.888-2.315
				c-3.377,1.438-6.093,2.593-8.831,3.759c-1.169-0.854-2.23-1.631-3.117-2.279c-2.671,0.372-5.045,0.703-6.944,0.967
				c-1.467,1.866-2.667,3.393-3.934,5.004c0,1.407,0,3.001,0,5c-1.698,0.507-3.443,1.028-5.439,1.625
				c-0.964,1.133-2.072,2.433-3.25,3.818c0.919,1.968,1.703,3.646,2.487,5.325c4.924,3.541,8.971,7.796,12.013,13.584
				c1.134-1.941,1.986-3.399,3.123-5.345c1.331,0.534,2.739,0.848,3.86,1.593c4.859,3.231,9.933,4.416,15.535,2.153
				c0.467-0.189,1.05-0.093,1.496-0.123c2.179,1.251,2.912,2.827,1.752,5.103c-0.335,0.658-0.527,1.45-0.559,2.19
				c-0.079,1.827-0.026,3.659-0.026,5.505c0.831,0.879,1.654,1.75,2.461,2.604c-0.687,1.164-1.318,2.234-2.07,3.51
				c3.443,0.959,5.005-1.03,6.287-3.016c1.798-0.437,3.346-0.813,4.894-1.189c0.493,0.254,0.985,0.509,2.388,1.235
				c-2.857,0.784-4.772,1.31-6.83,1.875c2.347,0.87,4.424,1.641,6.58,2.44c-0.078,1.159-0.138,2.042-0.213,3.159
				c1.057,0.504,2.083,0.994,3.638,1.735c0.835-2.844,1.565-5.332,2.414-8.221c1.625-0.215,3.521-1.039,4.891-0.507
				c1.894,0.735,3.602,0.721,5.439,0.461c3.92-0.554,7.123,0.29,9.06,4.162c1.008,2.015,2.502,3.463,5.118,2.98
				c0.357-0.065,0.861,0.67,1.297,1.035c-2.603,1.551-4.631,0.414-6.389-1.486c-0.906-0.979-1.552-2.193-2.393-3.239
				c-1.987-2.469-2.674-2.612-6.383-1.297c3.455-0.79,5.448,0.531,6.832,3.695c0.761,1.739,2.721,2.921,3.977,4.485
				c1.297,1.616,2.397,3.391,3.583,5.095c-0.681-0.366-1.522-0.584-2.015-1.122c-3.053-3.33-6.028-6.73-9.333-10.45
				c-2.333,0-5.237,0-8.695,0c-0.647-0.409-1.841-1.164-3.092-1.954c-2.187,2.472-1.113,6.598-4.848,7.809
				c-1.39-0.61-2.844-1.247-4.83-2.119c-0.409,2.014-0.758,3.728-1.105,5.438c1.706,0.716,2.92,1.227,4.506,1.893
				c0,3.745,0,7.534,0,11.359c0.792,0.544,1.923,1.32,3.45,2.369c-1.48,1.367-2.524,2.331-3.73,3.444
				c0.542,3.877-0.073,7.613-3.538,10.461c0.971,4.855,1.894,9.465,2.655,13.269c3.273,2.706,6.878,3.527,8.277,6.784
				c2.952,0.55,5.879,1.334,8.851,1.567c2.196,0.173,4.851,0.286,6.57-0.768c1.992-1.223,4.054-1.876,6.141-2.679
				c0.783-0.3,1.444-0.916,1.991-1.276c-1.576-4.896-5.512-5.68-9.704-6.006c1.182-2.094,2.1-3.722,3.083-5.465
				c0.48,0.062,1.231,0.159,1.982,0.255c2.076-2.314,4.371-4.098,6.882-5.492c2.028-1.126,3.271-2.415,3.684-4.827
				c0.885-5.165-0.879-9.739-2.813-14.263c-1.194-2.791-2.817-5.398-4.248-8.088c3.436,1.292,4.308,4.708,5.603,7.467
				c2.375,5.061,4.193,10.36,2.736,16.222c-0.508,2.044-1.401,3.349-3.259,4.2c-2.804,1.285-5.446,2.713-7.214,5.508
				c-0.757,1.197-2.376,1.848-4.375,3.311c3.84,0.293,6.168,1.583,7.912,4.201c1.22,1.834,3.463,2.32,5.721,2.023
				c-0.571,2.973-2.774,0.916-3.593,1.12c-1.978,1.428-3.457,2.494-4.463,3.222c0.244,4.272,0.458,8.044,0.698,12.236
				c3.664-0.467,5.29,2.228,6.7,4.747c3.568,0.822,7.22-1.1,10.325,1.279c-0.373,0.981-0.676,1.778-0.942,2.479
				c4.566,0.982,8.928,1.643,13.102,2.915c2.926,0.892,5.498,1.063,8.056-0.654c1.623-1.089,3.209-2.235,5.125-3.575
				c2.203,0.172,4.824,0.376,7.463,0.582c-0.133-1.182-0.246-2.199-0.371-3.303c1.236-0.602,2.281-1.109,3.301-1.605
				c0-0.585-0.188-1.219,0.029-1.642c1.994-3.865-0.051-7.341-1.984-10.009c-2.791-3.852-6.668-6.923-10.15-10.254
				c-0.65-0.621-1.588-1.122-2.467-1.293c-3.523-0.683-7.08-1.207-10.62-1.809c-0.655-0.111-1.43-0.131-1.919-0.498
				c-2.953-2.217-6.362-1.885-9.708-1.845c-3.541,0.043-3.933,0.431-5.048,3.899c-0.564,1.755-0.937,3.758-3.397,3.895
				c0.738-1.842,1.61-3.644,2.178-5.537c0.678-2.26,2.242-3.501,4.376-3.479c3.833,0.041,7.59,0.063,11.502,0.969
				c4.053,0.939,8.022,2.668,12.39,2.705c1.705,0.015,3.574,1.709,5.053,2.999c2.928,2.554,5.854,5.171,8.377,8.108
				c2.85,3.317,4.07,7.317,3.52,11.816c-0.254,2.084-0.043,4.227-0.043,7.126c-0.176,0.534-0.582,1.888-1.064,3.214
				c-0.777,2.139-1.555,4.279-2.428,6.379c-0.863,2.077-1.898,4.085-2.76,6.164c-0.512,1.234-0.867,2.538-1.227,3.829
				c-0.955,3.415-2.912,5.66-6.676,5.867c1.139-1.151,2.275-2.302,3.414-3.453c1.332-1.905,2.076-4.188,2.869-6.453
				c0.66-1.889,0.969-4.089,2.158-5.567c2.594-3.225,2.777-7.211,4.092-10.823c0.445-1.223-0.107-2.324-2.174-2.41
				c0.348,1.192,0.611,2.1,0.885,3.04c-2.799,3.64-6.381,0.383-9.199,1.627c-2.883,1.618-5.766,3.236-8.415,4.724
				c-7.152-1.433-13.993-2.667-20.614-5.054c0.406-1.218,0.641-1.922,1.051-3.152c-3.359,0.413-6.354,0.782-9.979,1.229
				c1.04,2.884,1.873,5.193,2.724,7.552c-0.679,0.862-1.401,1.779-2.123,2.696c-1.33,0.248-2.661,0.497-4.661,0.87
				c0.658-2.156,1.063-3.485,1.49-4.882c1.301,0.66,2.267,1.149,3.382,1.715c-0.885-2.825-1.608-5.134-2.344-7.482
				c0.522-0.938,1.027-1.844,1.595-2.864c-0.873-1.149-1.67-2.198-2.384-3.139c-1.291,0-2.295,0-3.335,0
				c-2.689-4.399-0.066-9.493-2.32-13.692c-1.403,0.899-2.746,2.328-4.314,2.65c-3.375,0.691-6.967,0.598-10.215-0.419
				c-3.124-0.978-5.544-0.24-8.031,1.336c-0.496-0.314-0.992-0.628-1.487-0.942c0.765-1.26,1.528-2.52,2.292-3.779
				c-0.09-0.1-0.17-0.208-0.271-0.295c-2.281-1.967-4.361-4.546-7.936-2.422c-0.229,0.136-0.901-0.473-1.367-0.734
				c0.716-0.68,1.433-1.358,2.439-2.313c-0.744-3.451-1.513-7.027-2.398-11.139c-3.658,6.622-9.671,8.023-16.752,8.202
				c-0.6-1.427-1.283-3.049-2.076-4.934c-2.871,2.021-5.678,3.997-9.077,6.39c-0.214,1.75-0.534,4.365-0.906,7.401
				c3.936,3.682,8.822,6.768,10.849,12.207c2.306-0.413,4.388-0.786,6.471-1.158c-0.451,0.562-0.795,1.402-1.377,1.627
				c-1.357,0.524-2.828,0.752-4.142,1.072c-0.682,2.345-1.011,4.697-2.04,6.688c-1.174,2.27-2.972,4.217-4.729,6.621
				c0.348,0.822,0.911,2.153,1.444,3.412c-1.612,1.994-2.083,5.405-0.845,6.729c0.617,0,1.386,0,2.16,0
				c0.562-0.948,1.096-1.849,1.546-2.608c3.425-0.988,6.704-3.222,9.813,1.202c0.311-2.106,0.517-3.509,0.787-5.343
				c2.459-1.133,5.08-2.34,7.993-3.683c0.074-0.805,0.177-1.923,0.313-3.402c1.41-0.077,2.663-0.146,3.932-0.216
				c0.792-0.754,2.462-1.662,2.387-2.39c-0.298-2.899,1.925-3.471,3.552-4.717c3.169-2.43,3.244-5.774,0.289-8.566
				c-0.571-0.539-1.173-1.064-1.625-1.694c-0.089-0.124,0.45-0.698,0.699-1.064c1.053,0.75,2.106,1.499,3.218,2.29
				c0.62,1.879,1.243,3.766,2.011,6.096c-2.004,2.106-3.985,4.188-6.147,6.462c1.476,2.636,2.227,5.992,4.68,7.05
				c2.037,2.976,3.576,5.224,5.505,8.041c0,1.012,0,2.736,0,4.485c1.073,0.094,1.963,0.172,2.854,0.25
				c-0.305,2.35-2.296,1.559-3.504,2.244c-0.539-1.067-0.932-1.848-1.371-2.719c-1.225,1.523-2.184,3.811-3.325,3.905
				c-2.313,0.193-3.459,1.611-5.199,2.711c1.014,1.746,2.497,3.357,0.812,5.223c-1.573,1.741-2.889-0.105-4.28-0.542
				c-1.896,2.981-5.068,0.887-7.532,1.81c1.718,2.73,3.278,5.208,4.981,7.913c-0.099,0.309-0.313,0.975-0.53,1.646
				c4.226,2.162,7.796-0.203,11.505-0.982c1.722-0.361,3.417-0.852,5.656-1.418c0.827-1.639,2.327-3.556,5.139-4.041
				c1.99-0.343,2.979-1.654,2.833-3.646c-0.533-1.339-0.934-2.69-1.223-4.066c-0.633-3.018-1.371-5.972-3.842-8.111
				c0.48-0.252,1.104-0.828,1.414-0.691c0.798,0.352,1.457,1.02,1.855,1.322c2.403-0.791,4.435-1.46,6.591-2.17
				c1.635,0.694,3.408,1.447,5.351,2.272c0.098-2.604,0.686-4.92,3.262-6.369c0.623-0.35,0.566-1.905,0.823-2.906
				c0.708,0.524,1.416,1.05,1.917,1.421c-0.023,3.283-5.068,3.049-3.894,6.74c1.082,0.519,2.221,1.063,2.991,1.433
				c2.411-0.183,4.485-0.339,6.508-0.491c0.931,2.294,1.508,4.239,2.5,5.942c0.508,0.872,1.699,1.727,2.688,1.871
				c4.151,0.608,8.342,0.946,12.478,1.38c-0.252-0.809-0.537-1.721-0.889-2.849c3.111-0.275,4.603,1.396,5.664,4.259
				c1.441-3.249-0.791-4.942-1.334-7.32c0.727-0.568,1.495-1.169,2.522-1.972c0.626,1.127,1.209,1.862,1.453,2.697
				c0.28,0.96,0.263,2.009,0.374,3.02c0.85-0.118,1.365-0.189,1.881-0.261c-0.332,3.322-3.726,3.686-5.488,5.631
				c-0.748,0.825-1.799,1.373-2.855,2.153c0.803,0.699,1.347,1.174,1.874,1.634c-1.897,3.321-2.789,3.877-8.394,5.182
				c-0.563-0.65-1.236-1.43-1.911-2.207c-0.591-0.682-1.186-1.359-2.208-2.533c0.376,1.33,0.569,2.011,0.833,2.947
				c-3.6,1.156-7.097,2.279-10.991,3.529c2.672,2.299,4.344-0.555,6.312-0.588c0.171,0.283,0.343,0.568,0.514,0.852
				c-1.984,0.984-3.968,1.971-6.339,3.146c-0.938-1.861-1.597-3.17-2.565-5.092c5.75-0.035,9.148-3.115,12.442-6.756
				c1.732,1.62,3.284,3.071,5.188,4.852c1.074-0.336,2.538-0.793,3.983-1.244c-0.365-1.389-0.625-2.376-0.857-3.26
				c0.741-0.986,1.353-1.801,2.172-2.893c-2.453-0.299-4.801-0.028-6.547-0.928c-2.63-1.354-5.12-2.176-8.07-1.775
				c-0.84,0.114-1.768-0.416-2.638-0.646c-1.076-2.448-2.083-4.744-3.205-7.298c-1.64,0.376-3.307,0.758-4.974,1.141
				c-1.083-0.468-2.168-0.937-3.124-1.35c-0.979,0.559-1.744,0.997-2.813,1.606c-2.269-4.808-6.081-1.105-9.092-2.041
				c-2.262,2.531,0.593,5.111-0.433,8.045c0.914,0.519,1.842,1.045,2.521,1.43c-0.567,3.566-1.671,5.754-5.042,6.599
				c-3.167,0.794-3.671,2.013-3.691,5.783c0.712,0.861,1.462,1.77,2.086,2.523c2.069,0,3.921,0,5.789,0
				c1.388,1.896,3.563,3.178,3.161,6.088c-0.969,0.728-2.025,1.522-3.462,2.603c2.081,0.561,3.797,1.023,5.513,1.484
				c0.198,0.25,0.396,0.5,0.594,0.75c-0.436,0.281-0.872,0.561-1.873,1.203c2.059-0.52,3.542-1.029,5.066-1.238
				c1.413-0.195,2.977-0.424,4.286-0.023c4.528,1.385,8.203,3.887,12.5,8.213c-2.188,0.137-3.895,0.244-5.744,0.359
				c2.554,1.77,5.002,0.84,7.553,0.139c2.153-0.592,4.413-0.982,6.64-1.064c2.34-0.088,4.697,0.295,7.919,0.539
				c1.101,0.504,1.4,2.457,0.455,3.654c-1.555,1.969-1.235,4.002-1.287,6.096c-0.104,4.242-2.333,6.986-6.433,7.941
				c-2.426,0.566-4.888,1.051-7.238,1.852c-1.602,0.545-3.14,1.361-3.626,3.383c-0.337,1.398-1.125,2.688-1.953,4.578
				c-2.589-0.816-5.174-1.631-7.759-2.445c0.533-0.633,1.067-1.264,1.597-1.891c-1.659-0.924-3.354-1.867-5.345-2.975
				c-2.146,1.178-4.182-0.225-5.897-1.58c-2.064-1.629-3.722-3.775-5.486-5.623c-2.111-0.785-4.365-0.184-6.248-2.145
				c-1.63-1.697-4.82,0.137-5.387,2.75c-0.197,0.91-0.301,1.848-0.366,2.777c-0.161,2.289-1.415,3.303-3.563,3.205
				c-0.632,1.668-1.242,3.279-1.765,4.66c-1.225,0.676-2.199,1.213-3.622,1.998c3.731,1.588,7.218,2.506,10.026,4.42
				C363.986,471.655,366.845,471.833,370.084,470.995z M349.807,431.192c-1.751-0.979-3.501-1.957-5.348-2.988
				c-2.949,1.533-6.171,3.211-9.511,4.949c0.282,2.426,1.436,4.992-0.934,7.178c-0.714-0.354-1.299-0.645-1.883-0.934
				c1.838-3,1.865-4.713-0.118-5.947c-1.239-0.77-2.616-1.537-4.022-1.777c-4.327-0.742-8.723-1.09-13.042-1.867
				c-2.755-0.496-5.212-0.273-7.484,1.367c-0.781,1.227-1.562,2.453-2.24,3.521c-1.191,0.201-2.119,0.262-2.981,0.529
				c-0.865,0.27-1.665,0.748-2.306,1.047c0.139,1.42,0.268,2.582,0.364,3.746c0.173,2.111-0.006,4.322,0.58,6.311
				c0.616,2.092,0.248,3.611-1.023,5.029c-2.792,1.078-4.781-0.314-6.73-1.814c-1.665-1.279-3.269-1.83-4.735,0.266
				c-2.177,0-4.354,0-7.069,0c-0.752-0.994-1.995-2.406-2.966-3.986c-1.022-1.66-1.342-3.9-4.042-4.07
				c-0.571,1.543-1.15,3.107-1.838,4.965c-1.346,0.354-3.005,0.791-4.566,1.201c-0.757-0.861-1.346-1.531-1.788-2.035
				c-3.135,0.205-3.216,2.738-3.993,4.566c-3.792,2.217-7.88,1.184-11.608,1.34c-0.462,1.951-0.86,3.627-1.256,5.299
				c6.325,1.623,10.86,5.629,14.846,10.771c0.655-1.01,1.297-1.998,1.856-2.861c6.017,2.141,11.335,4.033,16.848,5.996
				c0.518-1.309,0.879-2.223,1.254-3.172c-2.055-0.881-3.817-1.637-6.233-2.674c1.872-1.428,3.092-2.359,4.468-3.41
				c1.281,0.824,2.486,1.598,3.16,2.031c2.749,0,4.891,0,7.033,0c-4.202-1.662-0.899-6.076-3.368-8.02
				c0.473-1.029,0.855-1.859,1.189-2.586c-0.658-1.178-1.233-2.207-1.81-3.236c2.125,0.064,3.652,1.602,3.31,3.242
				c-0.583,2.787,1.106,5.213,0.34,7.572c2.333,1.59,4.379,2.986,5.915,4.033c3.705-0.992,6.885-1.844,10.097-2.703
				c-1.142-3.02-4.596-4.305-4.268-7.773c1.514,0.301,2.79,0.555,4.12,0.818c1.319,1.805,2.56,3.711,4.014,5.436
				c1.373,1.629,2.821,3.338,5.336,3.041c0.24-0.029,0.464-0.188,0.346-0.137c0.866-1.225,1.544-2.186,2.145-3.035
				c1.153,0.086,2.017,0.148,3.027,0.223c1.027-5.621,1.492-11.408,7.689-12.904c-0.386-2.709-0.924-4.996-0.953-7.289
				c-0.015-1.234,0.862-2.436,2.389-0.969c-0.336,1.521-0.673,3.045-0.986,4.461c1.1,1.473,2.112,2.828,3.025,4.053
				c6.574,0.514,12.818,0.199,18.907-2.043c1.006-0.369,2.583,0.193,3.656,0.771c1.569,0.842,2.973,1.813,4.781,0.895
				c1.307-7.811,1.307-7.811-0.479-9.691c-1.25,0.578-2.538,1.172-3.97,1.834c-1.533-1.834-2.917-3.492-4.301-5.148
				c-0.713,0.666-1.542,1.439-2.767,2.584c-0.257-1.174-0.565-1.865-0.521-2.533c0.076-1.125,0.374-2.234,0.579-3.352
				c3.527,0.967,5.982,3.164,7.306,6.773c1.396-0.953,2.565-1.75,4.43-3.023c0.955,1.182,1.918,2.375,2.928,3.623
				c1.956-3.186,3.611-6.381,4.458-10.014c-1.792-0.373-3.132-0.652-4.717-0.982c2.282-3.175,4.767-1.655,7.086-1.139
				c1.075-0.563,2.096-1.099,3.327-1.745c-1.123-1.389-2.108-2.607-3.26-4.031c-4.076,1.428-7.512,1.15-8.707-4.404
				c-1.609,0.172-3.15,0.146-4.583,0.527c-3.57,0.951-6.983,2.652-10.869,1.854c-0.531,2.488-1.029,4.822-1.52,7.125
				C347.16,427.659,348.484,429.425,349.807,431.192z M345.049,389.214c-0.834,3.466-1.668,6.931-2.467,10.246
				c1.384,1.771,2.696,3.451,4.074,5.215c0.76-0.302,1.683-0.916,2.64-0.975c0.895-0.055,1.825,0.48,2.811,0.777
				c-0.335-2.451-0.618-4.525-0.902-6.605c4.741-0.583,7.141-3.979,10.091-6.498c0.451-0.385,0.325-1.446,0.366-1.665
				c-1.813-2.232-3.305-4.069-4.796-5.905c0.112-0.106,0.223-0.212,0.335-0.318c-0.94-0.45-1.88-0.899-2.874-1.375
				c-0.337-1.92,0.287-4.367-2.977-4.766c-0.855,1.057-1.813,2.241-2.726,3.369c-0.768-0.326-1.362-0.579-1.997-0.85
				c-0.848,1.742-0.95,3.217-0.153,4.997c0.646,1.443,1.298,3.495-1.311,4.202c-0.215-1.664-0.43-3.328-0.657-5.075
				c-3.329-0.401-4.987,1.843-7.273,2.763c0.235,1.151,0.417,2.041,0.649,3.175c-1.088,0.858-2.174,1.715-3.279,2.586
				c-1.072-1.278-1.826-2.177-2.731-3.256c-1.656,0.466-3.237,0.911-4.979,1.401c0.769,1.237,1.327,2.138,1.886,3.038
				c-0.233,0.011-0.466,0.021-0.7,0.032c-0.156,2.864-0.312,5.729-0.49,9.007c-0.427,0.17-1.341,0.534-2.836,1.129
				c1.355,1.058,2.3,2.402,3.346,2.488c2.401,0.196,3.47,1.762,4.657,3.23c-0.057,1.312-0.108,2.482-0.164,3.757
				c-0.79,0.697-1.68,1.482-2.643,2.332c0.407,1.357,0.781,2.605,1.242,4.145c2.272-0.27,4.358-0.516,6.23-0.736
				c2.549,1.594,4.942,3.09,7.282,4.553c0.241-0.988,0.522-2.141,0.803-3.291c-1.25-6.145-4.611-11.281-8.021-16.604
				c1.054-0.636,1.805-1.09,2.438-1.472c1.471,1.082,2.75,2.022,4.029,2.962c0.235-0.285,0.47-0.57,0.705-0.856
				c-1.469-1.401-2.938-2.804-4.331-4.134c0.799-2.92,1.442-5.798,2.421-8.557C343.091,390.709,344.257,390.029,345.049,389.214z
				 M298.968,198.405c-3.469,1.602-7.281,3.362-11.756,5.429c-0.274,1.066-0.749,2.907-1.062,4.125
				c0.567,0.541,1.131,1.079,1.696,1.616c-0.212,0.294-0.424,0.588-0.636,0.881c-4.274,0.387-8.548,0.774-12.919,1.169
				c-0.535,0.81-1.325,1.521-1.502,2.362c-0.622,2.937-2.467,4.941-4.527,6.933c-1.017,0.983-1.725,2.366-2.328,3.681
				c-1.137,2.478-2.097,5.038-3.089,7.463c1.689,3.364,3.473,6.915,5.373,10.699c-0.406,0.843-0.92,1.911-1.436,2.982
				c0.729,2.021,0.495,4.428,2.867,5.431c0.994-0.876,1.934-1.705,3.004-2.647c1.194,2.473,0.5,4.344-0.434,6.156
				c-0.699,1.358-0.193,1.994,1.426,2.343c1.183-1.284,2.593-2.553,3.671-4.06c0.981-1.374,0.328-3.732,3.013-4.807
				c0.176,2.304,0.327,4.275,0.517,6.757c2.307-1.943,4.145-3.492,6.052-5.098c1.654,1.893-0.228,4.767,1.738,5.266
				c5.136-1.156,9.515-2.143,14.052-3.164c-0.169-1.751-0.318-3.299-0.406-4.208c1.763-2.163,3.143-3.856,4.84-5.939
				c0.6-0.153,1.752-0.447,2.781-0.709c1.474-2.055,0.188-3.344-1.03-4.66c-1.661-1.795-2.821-3.432-2.363-6.387
				c0.308-1.984,0.334-4.023,0.933-6.056c0.362-1.227-0.139-2.708-0.262-4.18c-2.518-0.132-4.492-0.236-6.5-0.342
				c-2.979-4.701,0.964-8.568,0.831-12.531c1.488-0.74,2.583-1.284,3.521-1.75C302.851,202.728,300.964,200.627,298.968,198.405z
				 M301.556,218.033c2.082,0.161,3.93,0.303,5.665,0.438c0.43,0.38,0.744,0.63,1.026,0.911c2.739,2.724,2.956,2.699,6.112,0.812
				c0.976-0.583,2.19-0.994,3.316-1.048c1.963-0.094,3.941,0.151,6.361,0.278c0.641-1.696,1.332-3.524,1.679-4.441
				c3.517-4.945,7.759-6.644,13.303-5.899c-0.632-1.77-1.022-2.861-1.402-3.925c0.526-1.017,1.007-1.947,1.413-2.731
				c-2.473-4.181-1.283-8.613-1.084-12.66c0.18-3.67-0.112-7.106-0.647-10.764c-6.208-2.347-7.737-8.265-10.26-13.681
				c-1.677,1.526-3.147,2.898-4.655,4.227c-1.526,1.345-3.09,2.647-4.934,4.222c0.915,2.49,2.056,5.592,3.198,8.701
				c-2.881,2.008-5.456,3.802-8.792,6.128c-3.758,0.528-7.366,3.098-10.967,8.458c0.609,1.384,1.252,2.848,1.874,4.26
				c1.155,0.608,2.205,1.161,3.437,1.809c0,1.146,0,2.288,0,3.419c-1.219,0.617-2.26,1.145-3.427,1.736
				C303.036,211.522,299.89,214.16,301.556,218.033z M249.433,434.601c-0.608-2.289-0.98-3.691-1.343-5.055
				c-6.225,0.484-12.552,1.711-16.532-4.327c-2.306-0.203-4.171-0.365-5.359-0.469c-2.421,1.098-4.309,1.952-6.371,2.888
				c1.409,2.309,3.149,3.982,5.436,5.301c1.173,0.676,1.876,2.166,2.954,3.486c3.208-0.854,6.006,0.299,8.43,3.152
				c1.283,1.508,3.142,2.527,4.741,3.768c0.044-0.041,0.088-0.086,0.133-0.127c1.39,1.053,2.78,2.105,3.681,2.789
				c1.599,1.537,2.706,3.537,3.957,3.633c3.738,0.283,7.607,1.205,11.196-0.213c1.81-4.035,1.81-4.035,5.746-5.15
				c1.689,0.574,3.08,1.047,4.719,1.605c0.796-2.227,1.783-3.926,1.943-5.699c0.207-2.293,1.153-3.979,2.438-5.791
				c1.178-1.66,2.212-3.732,2.401-5.711c0.242-2.534-0.425-5.155-0.749-8.188c-3.322,0-6.919,0-10.878,0
				c-0.234-1.576-0.482-3.248-0.709-4.771c-1.017-0.729-1.874-1.34-3.121-2.23c-1.833,2.037-3.567,3.963-5.479,6.088
				c-4.468-1.191-2.855,4.008-5.005,5.32C252.151,428.19,252.499,431.247,249.433,434.601z M410.333,442.669
				c1.583-0.182,3.826,1.057,3.871-1.881c-6.718-1.199-13.19-0.689-19.103,1.695c-2.247-1.369-4.055-2.473-5.76-3.512
				c-0.191-0.773-0.36-1.457-0.596-2.414c-3.063,2.785-5.406,0.389-7.954-0.066c0.177-3.936,3.858-2.324,6.045-4.447
				c-2.108,0.102-3.604-0.143-4.866,0.293c-3.972,1.365-7.609,0.766-10.978-1.494c-2.134,3.473-4.291,6.648-6.078,10.02
				c-1.021,1.928-1.444,4.174-2.149,6.316c3.75,1.24,6.955,2.299,10.315,3.408c1.736,1.834,3.558,3.963,5.615,5.83
				c0.816,0.74,2.124,1.102,3.265,1.293c4.066,0.682,7.655,2.076,10.037,5.711c0.331,0.504,0.991,0.795,1.452,1.148
				c0.32-0.303,0.591-0.438,0.656-0.639c1.376-4.256,3.51-7.314,8.73-7.168c1.973,0.057,4.106-0.994,5.951-1.955
				c3.3-1.719,3.907-4.836,3.58-8.33C410.927,445.817,409.351,445.157,410.333,442.669z M292.096,324.527
				c-1.331,2.263-3.118,5.299-4.969,8.443c0.475,0.16,1.281,0.432,2.239,0.755c-0.569,1.358-1.067,2.548-1.422,3.394
				c1.71,4.048,3.265,7.729,4.932,11.674c-0.952,1.094-1.864,2.141-2.793,3.207c0.225,0.5,0.488,1.086,0.728,1.62
				c-1.476,1.861-2.808,3.579-1.758,6.092c0.646,0.339,1.377,0.722,1.806,0.946c0.678-1.966,1.244-3.607,1.939-5.627
				c-0.191-0.594-0.546-1.693-0.94-2.913c1.296-1.057,2.409-1.964,3.521-2.872c0.072,0.221,0.143,0.442,0.215,0.664
				c2.409-0.209,4.818-0.418,7.78-0.674c0.314,0.755,0.793,1.904,1.268,3.043c1.248,0.644,2.525,1.302,4.345,2.24
				c1.757-1.842,3.503-3.672,5.281-5.535c-1.368-1.124-2.279-1.872-3.563-2.928c1.49-1.541,2.815-2.91,4.526-4.68
				c-0.717-0.647-1.337-1.43-2.142-1.882c-1.378-0.773-2.945-1.218-4.301-2.022c-2.271-1.348-2.488-2.771-0.868-4.917
				c0.956-1.266,2.023-2.448,3.037-3.663c-0.203-1.042-0.423-1.953-0.548-2.877c-0.126-0.93-0.169-1.873-0.229-2.811
				c-0.266-4.102-0.313-4.162-4.175-5.352c-2.177,0.583-4.099,1.098-6.02,1.613c0.078,0.132,0.155,0.264,0.233,0.396
				C297.847,321.224,295.476,322.586,292.096,324.527z M327.551,338.667c-1.528-5.365-1.373-10.799,0.986-16.339
				c0.989-0.088,2.14-0.191,3.067-0.275c0.831-2.248,1.584-4.287,2.238-6.06c-2.504-0.962-5.112-1.965-7.265-2.792
				c-2.535,0-4.681,0-6.736,0c-2.922-5.288-3.802-11.235-8.706-15.101c-4.476,5.557-5.091,11.541-4.473,17.938
				c4.346,1.36,5.606,4.435,5.446,8.512c-0.062,1.565,0.405,3.151,0.605,4.553c-1.468,2.003-2.85,3.89-4.508,6.152
				c3.263,1.777,5.985,3.259,8.749,4.765c-0.418,1.763-0.717,3.025-0.948,3.996c-1.194,0.437-2.084,0.763-3.449,1.262
				c1.094,0.962,1.75,1.539,1.947,1.712C318.951,344.153,323.091,341.511,327.551,338.667z M320.162,393.474
				c-0.43-3.092-0.754-5.425-1.089-7.833c-1.666,0-3.087,0-4.721,0c-0.69,1.86-1.334,3.594-2.078,5.597
				c-1.513,0.688-3.181,1.447-4.848,2.207c-3.046,6.344-3.364,13.228-3.455,20.823c0.221,0.357,0.908,1.471,1.675,2.713
				c5.709-0.777,11.281-0.418,16.761,2.771c0.881,3.438,3.979,3.52,7.905,3.717c-0.496-1.871-0.892-3.334-1.271-4.801
				c-0.52-2.01-0.765-3.828,1.125-5.51c0.753-0.672,0.674-2.276,0.979-3.475c-3.589-1.834-8.173-2.256-7.09-7.692
				c0.703-0.546,1.416-1.098,1.963-1.522c0.232-2.595,0.442-4.934,0.627-6.994C324.497,393.474,322.49,393.474,320.162,393.474z
				 M329.563,344.204c10.68-1.401,10.68-1.401,15.909-10.683c0.065-0.116,0.131-0.246,0.231-0.328
				c3.058-2.545,3.387-5.846,2.406-9.432c1.149-0.846,2.135-1.571,3.486-2.565c-1.499-0.337-2.457-0.552-3.553-0.798
				c0.766-5.234,2.999-10.714-3.479-13.424c-1.877,1.067-3.684,2.094-5.491,3.12c-0.186-0.146-0.372-0.293-0.558-0.439
				c-1.816,4.214-3.632,8.427-5.776,13.4c-0.597,0.251-2.036,0.854-3.193,1.34c-0.589,2.047-1.099,3.82-1.608,5.594
				c0.158-0.015,0.316-0.031,0.474-0.046C328.795,334.702,329.18,339.461,329.563,344.204z M314.309,274.688
				c-2.205,2.233-4.435,4.451-6.613,6.716c-1.465,1.523-2.77,3.158-2.737,5.593c1.226,0.604,2.372,1.167,3.461,1.703
				c0.446,4.281,1.918,7.708,5.587,9.371c2.677-0.567,4.987-1.057,7.714-1.635c0.264-0.303,0.875-1.003,1.629-1.868
				c2.923,1.477,6.915-0.972,8.91,2.995c3.311-1.432,1.303-4.583,2.845-6.21c-0.785-1.105-1.401-1.972-1.974-2.778
				c0.379-1.295,0.718-2.452,1.071-3.658c-0.406-0.969-0.819-1.953-1.228-2.927c0.631-1.121,1.254-2.227,2.138-3.794
				c-1.373-0.141-2.459-0.608-3.053-0.252c-2.602,1.561-5.25,1.061-7.806,0.297C320.833,277.217,317.514,275.851,314.309,274.688z
				 M353.305,447.353c-6.206,2.381-13.083,3.422-20.238,2.254c-2.807-0.457-5.463,0.74-6.542,3.4
				c-0.976,2.404-1.352,5.053-2.001,7.631c1.253,0.445,1.954,0.693,2.119,0.752c2.292,2.162-2.34,4.477,0.177,5.826
				c2.165-0.563,3.71-1.24,5.288-1.328c5.575-0.314,11.16-0.428,16.663-0.613c0.514-3.057,3.009-2.582,4.726-3.52
				c0.435-1.551,0.895-3.189,1.386-4.939c1.144-0.277,2.228-0.541,3.231-0.783c0.41-2.328,0.783-4.451,1.122-6.377
				C357.476,448.972,355.576,448.233,353.305,447.353z M299.235,378.136c4.056,1.365,5.588,4.932,7.636,8.283
				c1.418,0.418,2.941,0.865,4.516,1.33c0.818-1.207,1.557-2.297,2.307-3.401c1.284-0.163,2.471-0.313,3.368-0.427
				c2.752-3.2,5.31-6.174,7.75-9.012c-0.565-1.55-0.96-2.633-1.381-3.787c1.011-0.487,1.81-0.873,2.56-1.235
				c-0.622-4.805-3.422-8.113-6.973-10.624c-2.985-2.111-5.07-4.264-3.549-8.461c-0.31,0.043-0.62,0.086-0.93,0.129
				c-0.493,1.121-0.985,2.243-1.482,3.365c-1.473,0.516-2.946,1.031-4.639,1.625c1.546,1.905-0.308,4.764,2.687,6.4
				c1.051,0,2.527,0.011,4.003-0.003c1.844-0.017,3.058,0.726,3.524,2.622c0.48,1.955,0.204,3.461-1.962,3.777
				c-4.65,0-9.302,0-13.748,0c-1.089,1.683-2.29,3.537-3.687,5.694C299.235,375.236,299.235,376.443,299.235,378.136z
				 M284.134,387.106c3.015,0.956,2.952-2.229,4.821-3.46c1.19,0.899,2.383,1.801,3.852,2.909c3.073-1.295,6.291-2.651,9.508-4.008
				c-0.017-0.277-0.033-0.555-0.05-0.832c-1.438-0.532-2.876-1.064-4.473-1.655c-1.504-2.601,0.496-5.093,0.346-7.629
				c0.66-0.521,1.231-0.889,1.696-1.362c0.46-0.468,0.813-1.04,1.156-1.494c-0.988-2.991-0.988-2.991-4.281-4.307
				c0-0.698,0-1.45,0-2.569c-3.545,0.206-6.95,0.037-9.961-1.876c-0.051-0.032-0.21,0.104-0.412,0.21
				c-0.123,0.847-0.255,1.756-0.322,2.215c-1.915,1.044-3.664,1.688-5.005,2.816c-1.301,1.095-4.15-1.131-4.359,2.343
				c1.678,0,3.296,0,5.45,0c0,2.67,0,4.956,0,7.422c2.281,1.04,1.932,3.188,1.334,5.345
				C282.843,383.315,282.478,385.379,284.134,387.106z M333.21,298.833c-3.44-1.045-6.266-1.905-9.462-2.876
				c-0.725,1.179-1.291,2.099-1.679,2.732c-4.193-0.37-4.193-0.37-6.354,1.634c1.364,3.216,2.588,6.448,4.102,9.538
				c0.919,1.877,2.795,2.506,4.785,1.951c1.526-0.426,2.58-0.292,4.048,0.592c1.647,0.992,3.884,1.007,5.88,1.45
				c1.753-3.239,2.962-6.541,7.041-6.847c0.514-0.038,1.133-0.782,1.421-1.343c1.431-2.792,2.766-5.633,4.164-8.516
				C341.388,293.968,336.965,296.811,333.21,298.833z M297.687,290.299c-4.607,0.381-8.744,0.723-13.056,1.079
				c-0.265,1.017-0.559,2.143-0.855,3.275c1.053,0.93,1.838,1.979,2.884,2.453c1.138,0.516,2.518,0.496,3.921,0.731
				c0.472,1.903,0.913,3.686,1.349,5.449c6.156,4.128,4.7,3.651,13.015,2.453c1.557-3.049,3.094-6.06,4.574-8.96
				c-1.152-2.43-2.331-4.916-3.56-7.507c-2.171,0.85-4.393,1.719-6.826,2.671C298.585,291.319,297.899,290.54,297.687,290.299z
				 M306.906,418.719c-0.257,2.373-0.476,4.396-0.773,7.143c0.305,0.575,0.984,1.856,1.792,3.38
				c1.062-0.742,1.899-1.328,2.708-1.895c7.592,1.543,15.406,1.568,22.323,4.596c2.001-0.773,3.841-1.484,5.797-2.24
				c1.5-1.168,3.144-2.447,5.016-3.903c-0.871-0.639-1.675-1.227-2.373-1.74c-1.049,0.631-1.808,1.088-2.305,1.389
				c-2.951-0.99-1.806-3.094-1.655-4.904c-1.978,0.264-3.663,0.486-4.75,0.631c-1.493,1.857-2.681,3.334-3.716,4.621
				c-3.954-0.574-6.584-2.1-7.762-4.789c-2.71-1.164-4.987-2.145-6.297-2.707C311.574,418.473,309.224,418.598,306.906,418.719z
				 M293.319,360.54c4.459,0.363,4.796,0.597,5.785,3.918c1.509-0.144,3.015-0.288,4.435-0.423c0.522,1.518,0.885,2.57,1.291,3.748
				c2.803-0.413,5.36-0.79,8.344-1.23c0.905,0.236,2.267,0.591,4.38,1.141c-0.508-1.676-0.816-2.689-1.122-3.698
				c-2.609,0-4.802,0-7.132,0c-0.769-1.642-2.231-3.278-2.088-4.761c0.327-3.37-1.092-4.889-4.101-5.342
				c-0.154-0.74-0.227-1.268-0.38-1.77c-0.134-0.442-0.359-0.857-0.836-1.961c-2.09,3.785-5.644-0.146-8.038,2.502
				C297.227,355.581,292.271,357.561,293.319,360.54z M338.058,224.124c4.352-4.143,4.353-8.591,0.242-13.606
				c-2.242,0.311-4.715,0.654-7.189,0.998c0.249,0.32,0.498,0.64,0.747,0.96c-1.664,1.199-3.328,2.397-5.704,4.108
				c1.958-0.156,2.968-0.236,3.807-0.303C332.916,218.618,337.218,219.214,338.058,224.124z M271.557,304.756
				c-0.632-2.207-1.131-3.946-1.778-6.204c-1.306,0.806-2.426,1.498-3.56,2.197C267.143,303.57,268.666,304.828,271.557,304.756z
				 M270.474,416.074c-1.34-0.865-2.492-1.611-4.263-2.756c0.517,2.502,0.837,4.051,1.302,6.303
				C268.737,418.156,269.454,417.297,270.474,416.074z M272.398,301.756c1.181,2.184,1.875,5.136,5.613,4.487
				C276.002,304.638,274.2,303.197,272.398,301.756z"/>
			<path fill-rule="evenodd" clip-rule="evenodd" fill="none" stroke="#2A5663" stroke-miterlimit="10" d="M267.918,407.195
				c-0.003-0.717-0.007-1.433-0.011-2.148c0.904-0.877,1.754-1.819,2.724-2.616c1.963-1.612,3.99-3.146,6.25-4.913
				c0.6,0.47,1.593,1.249,2.778,2.178c-4.031,3.09-7.573,5.806-11.115,8.521c-0.222-0.233-0.445-0.467-0.667-0.7L267.918,407.195z"
				/>
			<path fill-rule="evenodd" clip-rule="evenodd" fill="none" stroke="#2A5663" stroke-miterlimit="10" d="M370.084,470.995
				c-3.239,0.838-6.098,0.66-9.119-1.4c-2.808-1.914-6.295-2.832-10.026-4.42c1.423-0.785,2.397-1.322,3.622-1.998
				c0.522-1.381,1.132-2.992,1.765-4.66c2.148,0.098,3.402-0.916,3.563-3.205c0.065-0.93,0.169-1.867,0.366-2.777
				c0.567-2.613,3.756-4.447,5.387-2.75c1.883,1.961,4.137,1.359,6.248,2.145c1.764,1.848,3.422,3.994,5.486,5.623
				c1.716,1.355,3.751,2.758,5.897,1.58c1.991,1.107,3.687,2.051,5.345,2.975c-0.53,0.627-1.064,1.258-1.597,1.891
				c-0.092,0.156-0.203,0.299-0.334,0.426c-0.494,0.154-1.165,0.154-1.453,0.484c-1.965,2.258-4.531,2.693-7.313,2.645
				c-1.068-0.018-2.256-0.176-3.181,0.219c-1.672,0.713-4.301,0.189-4.526,3.066L370.084,470.995z"/>
			<path fill-rule="evenodd" clip-rule="evenodd" fill="none" stroke="#2A5663" stroke-miterlimit="10" d="M397.4,417.193
				c0.906-0.834,1.872-0.77,2.173,0.393c0.353,1.361,0.425,2.846,0.324,4.254c-0.081,1.125-0.604,2.219-1.03,3.66
				c-3.064,3.405-7.066,4.743-11.346,3.269c-3.325,0.754-6.167,1.398-9.008,2.043c-0.198-0.25-0.396-0.5-0.594-0.75
				c2.11-1.258,4.221-2.518,6.14-3.662c2.753,0.537,5.208,1.018,7.918,1.547c-0.655-0.979-1.104-1.648-1.548-2.312
				c2.751-1.475,5.199-2.787,7.963-4.27c-0.146-1.02-0.312-2.17-0.477-3.32C397.743,417.762,397.572,417.477,397.4,417.193z"/>
			<path fill-rule="evenodd" clip-rule="evenodd" fill="none" stroke="#2A5663" stroke-miterlimit="10" d="M307.66,464.521
				c0.4-0.387,0.8-0.771,1.201-1.158c2.135,1.363,4.27,2.727,6.966,4.449c0.204,0.57,0.647,1.807,0.993,2.773
				c-1.387,1.697-2.591,3.172-4.132,5.059c-1.18,0.217-2.851,0.523-4.278,0.785c-3.874-1.891-5.25-6.877-10.855-6.828
				c1.068-0.912,1.665-1.424,2.261-1.934c1.865,1.441,3.728,2.887,5.595,4.324c1.915,1.475,3.537,3.955,5.893,2.348
				c1.359-1.99,2.323-3.4,3.388-4.961c-1.397-2.564-3.873-0.977-5.843-1.133c-0.291-0.555-0.531-1.014-0.827-1.576
				c-2.618,1.467-5.345,1.535-8.137,0.902c-0.216-0.08-0.352-0.23-0.407-0.453c0.207-0.174,0.413-0.346,0.619-0.52
				C302.583,465.784,305.706,467.278,307.66,464.521z"/>
			<path fill-rule="evenodd" clip-rule="evenodd" fill="none" stroke="#2A5663" stroke-miterlimit="10" d="M370.214,470.837
				c0.226-2.877,2.854-2.354,4.526-3.066c0.925-0.395,2.113-0.236,3.181-0.219c2.782,0.049,5.348-0.387,7.313-2.645
				c0.289-0.33,0.959-0.33,1.453-0.484c-1.653,4.627-5.959,4.166-9.588,4.982C374.813,469.919,372.51,470.36,370.214,470.837z"/>
			<path fill-rule="evenodd" clip-rule="evenodd" fill="none" stroke="#2A5663" stroke-miterlimit="10" d="M327.42,473.64
				c1.358,7.787,0.198,10.492-3.558,10.055c0.999-1.283,2.567-2.594,3.151-4.25C327.635,477.681,327.324,475.589,327.42,473.64z"/>
			<path fill-rule="evenodd" clip-rule="evenodd" fill="none" stroke="#2A5663" stroke-miterlimit="10" d="M370.985,483.974
				c0.699-1.904,1.442-3.93,2.454-6.686c0.347-0.16,1.354-0.621,2.576-1.184c-0.106,0.621-0.087,0.982-0.187,1.02
				c-1.746,0.635-2.406,1.857-2.468,3.707C373.287,483.06,373.149,483.058,370.985,483.974z"/>
			<path fill-rule="evenodd" clip-rule="evenodd" fill="none" stroke="#2A5663" stroke-miterlimit="10" d="M333.506,476.757
				c-0.658,2.207-1.395,4.676-2.295,7.693C331.398,477.667,331.398,477.667,333.506,476.757z"/>
			<path fill-rule="evenodd" clip-rule="evenodd" fill="none" stroke="#2A5663" stroke-miterlimit="10" d="M346.761,290.587
				c-1.548,0.376-3.096,0.752-4.894,1.189c-1.281,1.985-2.843,3.975-6.287,3.016c0.752-1.275,1.384-2.346,2.07-3.51
				c-0.807-0.854-1.63-1.724-2.461-2.604c0-1.846-0.053-3.678,0.026-5.505c0.032-0.74,0.224-1.532,0.559-2.19
				c1.16-2.276,0.427-3.852-1.752-5.103c-0.445,0.03-1.028-0.066-1.496,0.123c-5.602,2.262-10.676,1.078-15.535-2.153
				c-1.121-0.745-2.529-1.059-3.86-1.593c-1.137,1.945-1.989,3.403-3.123,5.345c-3.042-5.788-7.089-10.043-12.013-13.584
				c-0.784-1.679-1.568-3.357-2.487-5.325c1.179-1.385,2.286-2.686,3.25-3.818c1.996-0.596,3.741-1.117,5.439-1.625
				c0-1.999,0-3.592,0-5c1.266-1.611,2.467-3.138,3.934-5.004c1.899-0.264,4.273-0.595,6.944-0.967
				c0.887,0.648,1.948,1.424,3.117,2.279c2.738-1.166,5.454-2.321,8.831-3.759c1.04,0.604,2.65,1.245,3.888,2.315
				c3.414,2.953,3.846,2.984,7.914,0.323c3.064-2.004,6.251-3.82,9.638-5.874c1.792,3.299,5.341,3.992,8.208,5.777
				c4.687,2.92,9.677,5.922,10.648,12.152c0.811,5.196,4.028,9.21,6.704,14.17c-1.851-0.696-3.23-1.215-4.611-1.734l-0.125-0.094
				c-0.292-0.415-0.584-0.83-1.056-1.5c-1.072,1.558-1.894,2.752-2.716,3.946c-4.999,2.694-10.523,3.382-16.23,4.239
				c-1.323,5.474-2.577,10.662-3.854,15.946c0.468,0,0.848,0,1.227,0L346.761,290.587z"/>
			<path fill-rule="evenodd" clip-rule="evenodd" fill="none" stroke="#2A5663" stroke-miterlimit="10" d="M379.891,308.335
				c1.431,2.69,3.054,5.297,4.248,8.088c1.934,4.523,3.698,9.098,2.813,14.263c-0.413,2.412-1.656,3.701-3.684,4.827
				c-2.511,1.395-4.806,3.178-6.882,5.492c-0.751-0.096-1.502-0.193-1.982-0.255c-0.983,1.743-1.901,3.371-3.083,5.465
				c4.192,0.326,8.128,1.11,9.704,6.006c-0.547,0.36-1.208,0.977-1.991,1.276c-2.087,0.803-4.149,1.456-6.141,2.679
				c-1.719,1.054-4.374,0.94-6.57,0.768c-2.971-0.233-5.899-1.018-8.851-1.567c-1.399-3.257-5.003-4.078-8.277-6.784
				c-0.761-3.804-1.684-8.413-2.655-13.269c3.465-2.848,4.08-6.584,3.538-10.461c1.206-1.113,2.25-2.077,3.73-3.444
				c-1.527-1.049-2.659-1.825-3.45-2.369c0-3.825,0-7.614,0-11.359c-1.585-0.667-2.8-1.177-4.506-1.893
				c0.348-1.711,0.696-3.425,1.105-5.438c1.986,0.872,3.439,1.509,4.83,2.119c3.735-1.211,2.661-5.337,4.848-7.809
				c1.251,0.791,2.445,1.545,3.092,1.954c3.458,0,6.362,0,8.695,0c3.305,3.719,6.28,7.12,9.333,10.45
				c0.493,0.538,1.334,0.756,2.015,1.122L379.891,308.335z"/>
			<path fill-rule="evenodd" clip-rule="evenodd" fill="none" stroke="#2A5663" stroke-miterlimit="10" d="M213.128,482.964
				c0.607-2.729-2.265-0.432-2.763-2.627c0.031-0.332,0.139-1.469,0.271-2.871c-1.22-0.391-2.458-1.051-3.74-1.152
				c-4.226-0.332-5.89-3.738-7.906-6.559c-1.056-1.477-1.433-3.371-0.085-5.283c0.542-0.771,0.565-2.355,0.157-3.271
				c-1.929-4.318-3.137-8.762-3.49-13.494c-0.118-1.59-1.008-3.121-1.697-5.119c1.813-3.846,1.661-5.109-1.488-8.508
				c0.318-0.73,0.672-1.545,1.095-2.516c1.058,0.318,2.153,0.338,2.774,0.891c2.645,2.352,4.85,1.678,6.898-0.92
				c0.395,0.834,0.691,1.461,1.158,2.445c1.03-1.121,1.82-1.982,2.802-3.053c0.918-0.186,2.074-0.422,3.358-0.684
				c-0.083-0.441-0.033-0.982-0.234-1.104c-0.782-0.465-1.638-0.811-2.477-1.176c-0.706-0.307-1.426-0.58-2.524-1.023
				c0.629-1.481,1.174-2.767,1.735-4.089c5.608,0.301,10.951,0.59,16.566,0.891c-0.944,2.728-3.146,0.734-4.266,1.904
				c-1.063,3.876-0.009,5.485,6.311,9.304c0.045,0.74,0.098,1.627,0.175,2.906c1.063,0.191,2.373,0.863,3.288,0.512
				c3.261-1.256,5.2,0.486,6.82,2.738c1.139,1.584,2.218,2.887,4.245,3.412c0.825,0.213,1.388,1.441,2.3,2.469
				c0.555,0.049,1.449,0.127,2.263,0.199c1.375,3.377,6.005,5.795,2.103,10.41c-2.968,0.287-6.464,0.395-9.858,1.039
				c-2.132,0.402-4.112,1.611-6.162,2.459c-0.665-1.447-1.363-2.965-2.062-4.482c-0.23,0.012-0.46,0.025-0.691,0.037
				c-0.405,2.352-0.811,4.701-1.22,7.076c-1.554,0.373-2.806,0.674-4.469,1.072c0.73,1.113,1.262,1.924,1.937,2.953
				c-1.455,2.096-4.413,4.107-1.078,7.025c-3.108,1.244-5.745,2.551-6.686,5.635c-0.526,1.725-1.854,2.152-3.245,2.656
				L213.128,482.964z"/>
			<path fill-rule="evenodd" clip-rule="evenodd" fill="none" stroke="#2A5663" stroke-miterlimit="10" d="M298.968,198.405
				c1.996,2.222,3.882,4.323,6.064,6.753c-0.938,0.466-2.033,1.01-3.521,1.75c0.133,3.963-3.811,7.831-0.831,12.531
				c2.008,0.105,3.982,0.209,6.5,0.342c0.123,1.472,0.624,2.953,0.262,4.18c-0.598,2.032-0.625,4.072-0.933,6.056
				c-0.458,2.955,0.703,4.592,2.363,6.387c1.218,1.316,2.504,2.605,1.03,4.66c-1.029,0.262-2.182,0.556-2.781,0.709
				c-1.697,2.083-3.077,3.776-4.84,5.939c0.088,0.909,0.237,2.457,0.406,4.208c-4.537,1.021-8.916,2.008-14.052,3.164
				c-1.966-0.499-0.084-3.373-1.738-5.266c-1.907,1.606-3.745,3.155-6.052,5.098c-0.19-2.482-0.341-4.453-0.517-6.757
				c-2.685,1.075-2.032,3.434-3.013,4.807c-1.078,1.507-2.488,2.775-3.671,4.06c-1.619-0.35-2.125-0.985-1.426-2.343
				c0.933-1.812,1.627-3.683,0.434-6.156c-1.07,0.943-2.011,1.771-3.004,2.647c-2.372-1.003-2.138-3.409-2.867-5.431
				c0.516-1.071,1.03-2.139,1.436-2.982c-1.9-3.785-3.684-7.335-5.373-10.699c0.993-2.425,1.953-4.985,3.089-7.463
				c0.604-1.315,1.311-2.698,2.328-3.681c2.061-1.991,3.905-3.996,4.527-6.933c0.178-0.841,0.968-1.552,1.502-2.362
				c4.371-0.395,8.645-0.782,12.919-1.169c0.212-0.293,0.424-0.587,0.636-0.881c-0.564-0.538-1.128-1.075-1.696-1.616
				c0.313-1.217,0.788-3.058,1.062-4.125C291.687,201.768,295.499,200.007,298.968,198.405z"/>
			<path fill-rule="evenodd" clip-rule="evenodd" fill="none" stroke="#2A5663" stroke-miterlimit="10" d="M387.15,351.156
				c2.46-0.137,2.833-2.14,3.397-3.895c1.115-3.469,1.507-3.856,5.048-3.899c3.346-0.04,6.755-0.372,9.708,1.845
				c0.489,0.367,1.264,0.387,1.919,0.498c3.54,0.602,7.096,1.126,10.62,1.809c0.879,0.171,1.816,0.672,2.467,1.293
				c3.482,3.331,7.359,6.402,10.15,10.254c1.934,2.668,3.979,6.144,1.984,10.009c-0.217,0.423-0.029,1.057-0.029,1.642
				c-1.02,0.496-2.064,1.004-3.301,1.605c0.125,1.104,0.238,2.121,0.371,3.303c-2.639-0.206-5.26-0.41-7.463-0.582
				c-1.916,1.34-3.502,2.486-5.125,3.575c-2.558,1.717-5.13,1.546-8.056,0.654c-4.174-1.272-8.536-1.933-13.102-2.915
				c0.267-0.701,0.57-1.498,0.942-2.479c-3.104-2.379-6.756-0.457-10.325-1.279c-1.41-2.52-3.036-5.214-6.7-4.747
				c-0.239-4.192-0.454-7.964-0.698-12.236c1.006-0.728,2.485-1.794,4.463-3.222c0.819-0.204,3.022,1.853,3.593-1.12L387.15,351.156
				z"/>
			<path fill-rule="evenodd" clip-rule="evenodd" fill="none" stroke="#2A5663" stroke-miterlimit="10" d="M301.556,218.033
				c-1.667-3.873,1.479-6.511,1.213-9.752c1.167-0.592,2.208-1.119,3.427-1.736c0-1.131,0-2.272,0-3.419
				c-1.232-0.648-2.282-1.201-3.437-1.809c-0.621-1.412-1.265-2.875-1.874-4.26c3.601-5.361,7.208-7.93,10.967-8.458
				c3.336-2.326,5.911-4.12,8.792-6.128c-1.143-3.108-2.283-6.21-3.198-8.701c1.844-1.575,3.408-2.877,4.934-4.222
				c1.508-1.329,2.978-2.701,4.655-4.227c2.522,5.416,4.052,11.334,10.26,13.681c0.536,3.658,0.828,7.094,0.647,10.764
				c-0.198,4.047-1.388,8.479,1.084,12.66c-0.406,0.784-0.887,1.715-1.413,2.731c0.38,1.064,0.771,2.155,1.402,3.925
				c-5.544-0.744-9.786,0.954-13.303,5.899c-0.347,0.917-1.038,2.745-1.679,4.441c-2.419-0.126-4.398-0.372-6.361-0.278
				c-1.126,0.054-2.341,0.464-3.316,1.048c-3.156,1.887-3.373,1.912-6.112-0.812c-0.282-0.281-0.596-0.531-1.026-0.911
				C305.486,218.336,303.638,218.193,301.556,218.033z"/>
			<path fill-rule="evenodd" clip-rule="evenodd" fill="none" stroke="#2A5663" stroke-miterlimit="10" d="M249.433,434.601
				c3.066-3.354,2.718-6.41,2.229-9.702c2.149-1.313,0.537-6.512,5.005-5.32c1.912-2.125,3.646-4.051,5.479-6.088
				c1.247,0.891,2.104,1.502,3.121,2.23c0.227,1.523,0.475,3.195,0.709,4.771c3.958,0,7.556,0,10.878,0
				c0.323,3.033,0.99,5.654,0.749,8.188c-0.189,1.979-1.223,4.051-2.401,5.711c-1.284,1.813-2.231,3.498-2.438,5.791
				c-0.16,1.773-1.147,3.473-1.943,5.699c-1.64-0.559-3.03-1.031-4.719-1.605c-3.936,1.115-3.936,1.115-5.746,5.15
				c-3.589,1.418-7.458,0.496-11.196,0.213c-1.251-0.096-2.358-2.096-3.957-3.633c-0.901-0.684-2.291-1.736-3.681-2.789
				c-0.044,0.041-0.088,0.086-0.133,0.127c-1.599-1.24-3.458-2.26-4.741-3.768c-2.424-2.854-5.222-4.006-8.43-3.152
				c-1.078-1.32-1.781-2.811-2.954-3.486c-2.287-1.318-4.027-2.992-5.436-5.301c2.062-0.936,3.949-1.79,6.371-2.888
				c1.188,0.104,3.053,0.266,5.359,0.469c3.98,6.038,10.307,4.812,16.532,4.327C248.452,430.909,248.824,432.312,249.433,434.601z"
				/>
			<path fill-rule="evenodd" clip-rule="evenodd" fill="none" stroke="#2A5663" stroke-miterlimit="10" d="M332.02,439.481
				c-1.527-1.467-2.404-0.266-2.389,0.969c0.028,2.293,0.567,4.58,0.953,7.289c-6.197,1.496-6.662,7.283-7.689,12.904
				c-1.01-0.074-1.875-0.137-3.027-0.223c-0.601,0.85-1.279,1.811-2.145,3.035c0.119-0.051-0.106,0.107-0.346,0.137
				c-2.516,0.297-3.964-1.412-5.336-3.041c-1.454-1.725-2.695-3.631-4.014-5.436c-1.33-0.264-2.606-0.518-4.12-0.818
				c-0.329,3.469,3.126,4.754,4.268,7.773c-3.211,0.859-6.392,1.711-10.097,2.703c-1.536-1.047-3.582-2.443-5.915-4.033
				c0.766-2.359-0.923-4.785-0.34-7.572c0.343-1.641-1.185-3.178-3.31-3.242l-0.118-0.119c1.467-2.096,3.071-1.545,4.735-0.266
				c1.949,1.5,3.938,2.893,6.73,1.814c1.271-1.418,1.639-2.938,1.023-5.029c-0.586-1.988-0.407-4.199-0.58-6.311
				c-0.096-1.164-0.225-2.326-0.364-3.746c0.641-0.299,1.44-0.777,2.306-1.047c0.862-0.268,1.79-0.328,2.981-0.529
				c0.679-1.068,1.459-2.295,2.24-3.521c2.271-1.641,4.729-1.863,7.484-1.367c4.32,0.777,8.716,1.125,13.042,1.867
				c1.406,0.24,2.783,1.008,4.022,1.777c1.983,1.234,1.956,2.947,0.118,5.947L332.02,439.481z"/>
			<path fill-rule="evenodd" clip-rule="evenodd" fill="none" stroke="#2A5663" stroke-miterlimit="10" d="M420.228,401.445
				c-0.516,0.071-1.031,0.143-1.881,0.261c-0.111-1.011-0.094-2.06-0.374-3.02c-0.244-0.835-0.827-1.57-1.453-2.697
				c-1.027,0.803-1.796,1.403-2.522,1.972c0.543,2.378,2.775,4.071,1.334,7.32c-1.061-2.862-2.552-4.534-5.664-4.259
				c0.352,1.128,0.637,2.04,0.889,2.849c-4.136-0.434-8.327-0.771-12.478-1.38c-0.988-0.145-2.179-0.999-2.688-1.871
				c-0.992-1.703-1.569-3.648-2.5-5.942c-2.023,0.152-4.097,0.309-6.508,0.491c-0.77-0.369-1.909-0.914-2.991-1.433
				c-1.175-3.691,3.871-3.457,3.894-6.74c-0.5-0.371-1.208-0.896-1.917-1.421c-0.096-0.118-0.207-0.219-0.333-0.304
				c0.722-0.917,1.444-1.834,2.123-2.696c-0.851-2.358-1.684-4.668-2.724-7.552c3.625-0.446,6.62-0.815,9.979-1.229
				c-0.41,1.23-0.645,1.935-1.051,3.152c6.621,2.387,13.462,3.621,20.614,5.054c2.649-1.487,5.532-3.105,8.415-4.724
				c2.818-1.244,6.4,2.013,9.199-1.627c-0.273-0.94-0.537-1.848-0.885-3.04c2.066,0.086,2.619,1.188,2.174,2.41
				c-1.314,3.612-1.498,7.599-4.092,10.823c-1.189,1.479-1.498,3.679-2.158,5.567c-0.793,2.265-1.537,4.548-2.869,6.453
				c-1.139,1.151-2.275,2.302-3.414,3.453L420.228,401.445z"/>
			<path fill-rule="evenodd" clip-rule="evenodd" fill="none" stroke="#2A5663" stroke-miterlimit="10" d="M296.26,407.805
				c1.756,1.578,1.756,1.578,6.309,2.257c-0.068,0.606-0.078,1.235-0.221,1.833c-0.155,0.65-0.432,1.27-0.47,1.377
				c1.097,2.623,2.103,4.793,2.894,7.039c0.283,0.805,0.365,1.963-0.014,2.658c-0.86,1.58-0.379,2.869,0.381,4.177
				c1.25,2.148,0.962,4.08-0.468,5.686c-2.344,0.873-4.436,1.652-6.592,2.457c0.447,5.217,0.855,9.99,1.271,14.834
				c-3.744,0.588-5.088-2.467-7.629-3.52c-3,0.467-6.156,0.961-9.571,1.492c-2.126-2.822-4.412-5.857-6.698-8.893
				c-1.124-1.99,0.636-3.127,1.688-4.639c0.991-1.428,1.689-3.057,2.697-4.936c-2.794-5.991-0.302-11.649,1.924-17.052
				c2.375-1.119,4.584-2.161,6.794-3.202c-0.03-0.232-0.06-0.464-0.089-0.695c1.265,0.346,2.515,0.794,3.803,0.971
				c0.37,0.051,0.848-0.687,1.276-1.063C294.449,408.327,295.354,408.066,296.26,407.805z"/>
			<path fill-rule="evenodd" clip-rule="evenodd" fill="none" stroke="#2A5663" stroke-miterlimit="10" d="M410.333,442.669
				c-0.983,2.488,0.593,3.148,2.034,3.809c0.328,3.494-0.279,6.611-3.58,8.33c-1.845,0.961-3.978,2.012-5.951,1.955
				c-5.221-0.146-7.354,2.912-8.73,7.168c-0.064,0.201-0.335,0.336-0.656,0.639c-0.461-0.354-1.121-0.645-1.452-1.148
				c-2.381-3.635-5.97-5.029-10.037-5.711c-1.141-0.191-2.449-0.553-3.265-1.293c-2.058-1.867-3.879-3.996-5.615-5.83
				c-3.361-1.109-6.565-2.168-10.315-3.408c0.706-2.143,1.128-4.389,2.149-6.316c1.788-3.371,3.944-6.547,6.078-10.02
				c3.369,2.26,7.006,2.859,10.978,1.494c1.262-0.436,2.758-0.191,4.866-0.293c-2.188,2.123-5.868,0.512-6.045,4.447
				c2.547,0.455,4.89,2.852,7.954,0.066c0.236,0.957,0.405,1.641,0.596,2.414c1.705,1.039,3.513,2.143,5.76,3.512
				c5.912-2.385,12.384-2.895,19.103-1.695C414.16,443.726,411.916,442.487,410.333,442.669z"/>
			<path fill-rule="evenodd" clip-rule="evenodd" fill="none" stroke="#2A5663" stroke-miterlimit="10" d="M263.371,327.712
				c1.539-0.199,3.078-0.4,5.562-0.723c1.148,0.902,3.006,2.364,5.174,4.068c2.873,0.365,3.298-2.471,4.484-4.583
				c2.666,1.138,5.278,2.253,8.137,3.474c-0.545,0.804-1.166,1.719-1.882,2.775c2.015,5.27,4.018,10.51,6.098,15.952
				c-1.3,0.503-2.252,0.87-3.585,1.386c0.39,1.15,0.752,2.222,1.163,3.434c-0.465,1.464-0.988,3.113-1.397,4.403
				c-2.202,2.331-4.201,4.449-6.093,6.453c-1.792,0.168-3.371,0.315-5.647,0.528c-0.201-0.163-1.016-0.825-2.098-1.704
				c-0.451,0.777-0.804,1.388-1.158,1.998c-0.457,0.007-0.913,0.013-1.369,0.02c0.033-0.671,0.163-1.354,0.083-2.012
				c-0.475-3.864-2.973-5.045-6.22-2.954c-0.547,0.353-1.02,0.82-1.56,1.263c-3.758-0.665-5.138-3.722-7.261-6.645
				c2.26-0.883,4.315-1.716,6.393-2.487c1.59-0.591,2.569-1.428,1.632-3.496c-1.228-0.063-2.461-0.125-4.577-0.231
				c1.736-1.937,3.069-3.255,4.197-4.729c1.119-1.464,2.031-3.086,3.306-5.061c-1.523-1.82-3.17-3.785-5.208-6.219
				c0.376-1.084,1.021-2.938,1.666-4.791L263.371,327.712z"/>
			<path fill-rule="evenodd" clip-rule="evenodd" fill="none" stroke="#2A5663" stroke-miterlimit="10" d="M397.915,418.045
				c0.166,1.15,0.331,2.301,0.477,3.32c-2.764,1.482-5.212,2.795-7.963,4.27c0.444,0.663,0.893,1.333,1.548,2.312
				c-2.71-0.529-5.165-1.01-7.918-1.547c-1.919,1.145-4.029,2.404-6.14,3.662c-1.716-0.461-3.432-0.924-5.513-1.484
				c1.437-1.08,2.493-1.875,3.462-2.603c0.402-2.91-1.773-4.191-3.161-6.088c-1.868,0-3.72,0-5.789,0
				c-0.624-0.754-1.374-1.662-2.086-2.523c0.021-3.77,0.524-4.988,3.691-5.783c3.37-0.845,4.475-3.032,5.042-6.599
				c-0.679-0.385-1.608-0.911-2.521-1.43c1.025-2.934-1.83-5.514,0.433-8.045c3.011,0.936,6.824-2.767,9.092,2.041
				c1.068-0.609,1.834-1.048,2.813-1.606c0.956,0.413,2.041,0.882,3.124,1.35c1.667-0.383,3.334-0.765,4.974-1.141
				c1.122,2.554,2.129,4.85,3.205,7.298c0.87,0.23,1.798,0.761,2.638,0.646c2.951-0.4,5.44,0.421,8.07,1.775
				c1.746,0.899,4.094,0.629,6.547,0.928c-0.819,1.092-1.431,1.906-2.172,2.893c0.232,0.884,0.492,1.871,0.857,3.26
				c-1.445,0.451-2.909,0.908-3.983,1.244c-1.904-1.781-3.457-3.232-5.188-4.852c-3.294,3.641-6.691,6.721-12.442,6.756
				c0.968,1.922,1.627,3.23,2.565,5.092C393.946,420.016,395.93,419.029,397.915,418.045z"/>
			<path fill-rule="evenodd" clip-rule="evenodd" fill="none" stroke="#2A5663" stroke-miterlimit="10" d="M176.896,453.226
				c0.359,0.32,1.014,0.936,1.035,0.914c1.185-1.182,2.316-2.416,3.403-3.592c2.327-1.939,4.51-4.004,6.938-5.721
				c2.974-2.104,2.16-5.488,2.852-8.416c2.729,1.426,2.729,1.426,0.868,7.182c0.317,0.43,0.692,0.969,1.098,1.482
				c0.331,0.418,0.699,0.809,1.267,1.459c-0.881,5.457,1.69,10.43,3.183,15.646c-0.343,1.82-0.687,3.643-1.087,5.766
				c-1.616-0.381-3.456-0.744-3.651,2.053c-2.072-0.625-3.966-1.195-6.084-1.834c-0.205,0.58-0.416,1.184-0.793,2.254
				c-2.443-0.529-4.956-1.074-7.468-1.619c-3.049-0.166-3.147,2.846-4.547,4.553c-2.634,1.002-5.23,1.986-7.949,3.02
				c-0.389-1.576-0.821-3.436-3.507-2.082c-0.082,2.342,0.401,5.223-3.246,5.68c0.03,1.977,3.331,2.766,1.231,5.318
				c-0.578,0.039-1.508-0.061-2.323,0.201c-0.853,0.271-1.594,0.891-2.909,1.668c-0.157-1.141-0.422-1.939-0.347-2.705
				c0.339-3.439-0.425-4.785-3.526-6.361c-1.779-0.904-3.461-2.002-5.688-3.305c-0.81,1.154-1.634,2.33-2.729,3.889
				c-0.748,0.109-2.017,0.297-3.711,0.543c0.36-1.904,0.642-3.398,0.875-4.635c2.394-1.041,4.532-1.971,6.826-2.967
				c0.755,0.549,1.779,1.297,3.373,2.457c0.842-1.109,1.56-2.055,2.391-3.148c4.01,0.744,6.462-2.488,9.25-4.494
				c1.707-1.227,3.022-3.174,4.862-4.533c1.063-0.783,1.553-2.41,2.165-3.721c0.698-1.498,1.302-2.631,3.386-2.787
				c1.532-0.113,2.973-1.451,4.455-2.242L176.896,453.226z"/>
			<path fill-rule="evenodd" clip-rule="evenodd" fill="none" stroke="#2A5663" stroke-miterlimit="10" d="M385.036,385.271
				c0.126,0.085,0.237,0.186,0.333,0.304c-0.256,1.001-0.2,2.557-0.823,2.906c-2.576,1.449-3.164,3.765-3.262,6.369
				c-1.942-0.825-3.715-1.578-5.351-2.272c-2.156,0.71-4.188,1.379-6.591,2.17c-0.399-0.303-1.058-0.971-1.855-1.322
				c-0.31-0.137-0.934,0.439-1.414,0.691c0,0-0.119,0.072-0.119,0.073c-0.89-0.078-1.78-0.156-2.854-0.25c0-1.749,0-3.474,0-4.485
				c-1.929-2.817-3.468-5.065-5.505-8.041c-2.454-1.058-3.205-4.414-4.68-7.05c2.163-2.273,4.143-4.355,6.147-6.462
				c-0.769-2.33-1.391-4.217-2.011-6.096c-1.111-0.791-2.165-1.54-3.218-2.29l0.063-0.152c2.487-1.576,4.908-2.313,8.031-1.336
				c3.249,1.017,6.841,1.11,10.215,0.419c1.569-0.322,2.912-1.751,4.314-2.65c2.254,4.199-0.369,9.293,2.32,13.692
				c1.041,0,2.045,0,3.335,0c0.714,0.94,1.511,1.989,2.384,3.139c-0.568,1.021-1.073,1.926-1.595,2.864
				c0.736,2.349,1.459,4.657,2.344,7.482c-1.115-0.565-2.081-1.055-3.382-1.715c-0.426,1.396-0.832,2.726-1.49,4.882
				C382.375,385.768,383.706,385.519,385.036,385.271z"/>
			<path fill-rule="evenodd" clip-rule="evenodd" fill="none" stroke="#2A5663" stroke-miterlimit="10" d="M296.26,407.805
				c-0.905,0.261-1.811,0.521-2.716,0.782c-1.643-0.535-3.285-1.069-4.445-1.447c-2.946,1.422-5.513,2.66-8.469,4.086
				c-0.887,2.081-1.975,4.629-3.198,7.497c-1.583,0-3.565,0-5.793,0c0-1.193,0-2.328,0-3.793c-1.634-1.018-3.3-2.057-5.32-3.315
				c0.682-1.041,1.454-2.221,2.226-3.399c3.542-2.715,7.084-5.431,11.115-8.521c-1.185-0.929-2.178-1.708-2.778-2.178
				c-2.26,1.768-4.287,3.301-6.25,4.913c-0.97,0.797-1.82,1.739-2.724,2.616c-0.562-2.948,0.334-5.71,1.422-8.326
				c0.435-1.047,1.746-1.911,2.855-2.455c1.77-0.867,3.704-1.396,5.704-2.118c-0.091-2.043-0.173-3.856-0.26-5.813
				c1.38-0.069,2.559-0.128,3.843-0.191c0.498,0.835,1.098,1.843,1.748,2.934c4.809-0.791,9.498-1.563,14.434-2.374
				c0.308,0.321,0.735,0.822,1.22,1.26c0.377,0.341,0.826,0.603,1.732,1.248c0.265-1.617,0.463-2.83,0.722-4.411
				c0.313-0.183,0.982-0.571,1.942-1.129c1.012,1.531,1.945,2.941,2.976,4.502c1.549,0.352,3.203,0.727,5.571,1.265
				c-1.447,0.907-2.274,1.425-3.027,1.897c-0.875-0.503-1.551-0.892-2.167-1.245c-0.271,0.253-0.602,0.415-0.61,0.592
				c-0.14,2.83-0.73,5.462-1.896,8.136c-1.142,2.619-1.294,5.669-1.898,8.612c-1.955,0.728-1.955,0.728-3.787-1.162
				C297.724,406.767,296.992,407.287,296.26,407.805z"/>
			<path fill-rule="evenodd" clip-rule="evenodd" fill="none" stroke="#2A5663" stroke-miterlimit="10" d="M272.494,292.243
				c0.461-1.946,0.899-3.759,2.834-5.046c1.078-0.717,1.522-2.386,2.2-3.535c1.019-0.662,2.021-1.313,3.79-2.461
				c-1.924-0.808-2.95-1.291-4.014-1.668c-0.91-0.323-1.864-0.524-3.033-0.844c0.572-2.91,1.057-5.371,1.538-7.819
				c0.333,0.996,0.677,2.021,1.02,3.045c0.318,0.05,0.635,0.1,0.953,0.15c0.536-1.212,1.072-2.424,1.433-3.238
				c1.721-1.744,3.171-3.214,4.486-4.546c-0.637-1.57-1.078-2.657-1.531-3.772c1.178-1.425,4.168-0.72,3.801-3.511l0.11-0.122
				c0.316-0.43,0.989-1.031,0.88-1.256c-0.32-0.665-0.95-1.181-1.067-2.395c1.372,0.723,2.743,1.446,3.698,1.949
				c2.107-0.917,3.844-1.673,5.58-2.43c0.186,0.219,0.371,0.438,0.556,0.658c-0.549,1.102-1.098,2.203-1.747,3.506
				c0.707,1.831,1.474,3.817,2.329,6.032c0.996,0.359,2.102,0.759,3.275,1.183c0.201,0.272,0.479,0.573,0.669,0.92
				c0.513,0.938,0.751,2.403,1.518,2.762c3.821,1.785,4.733,5.5,6.463,8.856c-2.237,2.73-5.635,4.747-5.414,8.925
				c-1.149,0.478-2.312,0.96-3.522,1.463c-0.81-0.583-1.667-1.202-2.584-1.862c-3.028,2.879-6.72,1.936-10.192,1.957
				c-2.788,0.017-3.44,0.432-4.15,3.617c-2.075,0.095-3.943,1.952-6.202,0.741C274.945,293.083,273.72,292.663,272.494,292.243z"/>
			<path fill-rule="evenodd" clip-rule="evenodd" fill="none" stroke="#2A5663" stroke-miterlimit="10" d="M345.888,232.297
				c-0.469,1.807-0.939,3.614-1.524,5.866c-3.072,1.842-6.553,3.928-9.619,5.766c-2.909-1.996-5.204-3.57-7.381-5.064
				c-3.167,1.389-5.97,2.619-8.262,3.624c-2.43-0.886-4.334-1.581-6.125-2.233c-1.489-2.378-3.079-4.915-4.87-7.774
				c0.25-2.79,0.537-5.982,0.848-9.451c1.403,0.163,2.276,0.265,3.278,0.381c1.339-0.931,2.763-1.922,4.334-3.016
				c2.437,0.344,4.94,0.696,7.608,1.071c0.699-0.901,1.429-1.843,2.347-3.027c5.749-0.663,8.815,3.256,11.574,7.822
				c1.249-0.893,2.161-1.545,3.163-2.261c0.936,3.09,0.712,6.785,4.531,8.178L345.888,232.297z"/>
			<path fill-rule="evenodd" clip-rule="evenodd" fill="none" stroke="#2A5663" stroke-miterlimit="10" d="M292.096,324.527
				c3.379-1.94,5.75-3.303,8.122-4.665c-0.078-0.132-0.155-0.264-0.233-0.396c1.921-0.516,3.843-1.03,6.02-1.613
				c3.863,1.189,3.91,1.25,4.175,5.352c0.06,0.938,0.104,1.881,0.229,2.811c0.125,0.924,0.346,1.835,0.548,2.877
				c-1.014,1.215-2.081,2.397-3.037,3.663c-1.62,2.146-1.403,3.569,0.868,4.917c1.356,0.805,2.923,1.249,4.301,2.022
				c0.804,0.452,1.424,1.234,2.142,1.882c-1.711,1.77-3.037,3.139-4.526,4.68c1.284,1.056,2.195,1.804,3.563,2.928
				c-1.777,1.863-3.523,3.693-5.281,5.535c-1.82-0.938-3.097-1.597-4.345-2.24c-0.475-1.139-0.953-2.288-1.268-3.043
				c-2.962,0.256-5.371,0.465-7.78,0.674c-0.072-0.222-0.143-0.443-0.215-0.664c-1.112,0.908-2.225,1.815-3.521,2.872
				c0.394,1.22,0.749,2.319,0.94,2.913c-0.696,2.02-1.262,3.661-1.939,5.627c-0.429-0.225-1.16-0.607-1.806-0.946
				c-1.05-2.513,0.282-4.23,1.758-6.092c-0.24-0.534-0.503-1.12-0.728-1.62c0.929-1.066,1.841-2.113,2.793-3.207
				c-1.667-3.944-3.222-7.626-4.932-11.674c0.354-0.846,0.853-2.035,1.422-3.394c-0.958-0.323-1.764-0.595-2.239-0.755
				C288.979,329.826,290.765,326.79,292.096,324.527z"/>
			<path fill-rule="evenodd" clip-rule="evenodd" fill="none" stroke="#2A5663" stroke-miterlimit="10" d="M288.512,449.927
				c0.576,1.029,1.152,2.059,1.81,3.236c-0.334,0.727-0.716,1.557-1.189,2.586c2.468,1.943-0.834,6.357,3.368,8.02
				c-2.142,0-4.284,0-7.033,0c-0.674-0.434-1.879-1.207-3.16-2.031c-1.376,1.051-2.597,1.982-4.468,3.41
				c2.416,1.037,4.178,1.793,6.233,2.674c-0.375,0.949-0.737,1.863-1.254,3.172c-5.512-1.963-10.831-3.855-16.848-5.996
				c-0.56,0.863-1.202,1.852-1.856,2.861c-3.986-5.143-8.521-9.148-14.846-10.771c0.396-1.672,0.794-3.348,1.256-5.299
				c3.728-0.156,7.816,0.877,11.608-1.34c0.777-1.828,0.858-4.361,3.993-4.566c0.441,0.504,1.03,1.174,1.788,2.035
				c1.562-0.41,3.22-0.848,4.566-1.201c0.688-1.857,1.268-3.422,1.838-4.965c2.7,0.17,3.02,2.41,4.042,4.07
				c0.971,1.58,2.214,2.992,2.966,3.986c2.715,0,4.892,0,7.069,0L288.512,449.927z"/>
			<path fill-rule="evenodd" clip-rule="evenodd" fill="none" stroke="#2A5663" stroke-miterlimit="10" d="M327.551,338.667
				c-4.46,2.845-8.601,5.486-13.046,8.322c-0.196-0.173-0.853-0.75-1.947-1.712c1.365-0.499,2.255-0.825,3.449-1.262
				c0.23-0.971,0.53-2.233,0.948-3.996c-2.764-1.506-5.486-2.987-8.749-4.765c1.658-2.263,3.04-4.149,4.508-6.152
				c-0.2-1.401-0.667-2.987-0.605-4.553c0.161-4.077-1.1-7.151-5.446-8.512c-0.618-6.396-0.002-12.38,4.473-17.938
				c4.904,3.866,5.784,9.813,8.706,15.101c2.055,0,4.201,0,6.736,0c2.153,0.827,4.761,1.83,7.265,2.792
				c-0.654,1.772-1.408,3.812-2.238,6.06c-0.927,0.084-2.079,0.188-3.067,0.275C326.179,327.868,326.023,333.301,327.551,338.667z"
				/>
			<path fill-rule="evenodd" clip-rule="evenodd" fill="none" stroke="#2A5663" stroke-miterlimit="10" d="M320.162,393.474
				c2.329,0,4.335,0,6.482,0c-0.185,2.061-0.395,4.399-0.627,6.994c-0.547,0.425-1.26,0.977-1.963,1.522
				c-1.083,5.437,3.501,5.858,7.09,7.692c-0.305,1.199-0.226,2.803-0.979,3.475c-1.891,1.682-1.646,3.5-1.125,5.51
				c0.379,1.467,0.775,2.93,1.271,4.801c-3.925-0.197-7.024-0.279-7.905-3.717c-5.479-3.189-11.051-3.549-16.761-2.771
				c-0.767-1.242-1.454-2.355-1.675-2.713c0.091-7.595,0.408-14.479,3.455-20.823c1.667-0.76,3.335-1.519,4.848-2.207
				c0.744-2.003,1.388-3.736,2.078-5.597c1.634,0,3.056,0,4.721,0C319.408,388.049,319.732,390.382,320.162,393.474z"/>
			<path fill-rule="evenodd" clip-rule="evenodd" fill="none" stroke="#2A5663" stroke-miterlimit="10" d="M369.413,267.93
				c1.2,2.626,2.935,3.992,5.998,2.852c0.567-0.211,1.413,0.327,2.548,0.631c-1.404,1.249-2.471,2.198-3.796,3.376
				c0.103,5.07-0.346,10.289,2.739,15.116c2.201,3.446,3.872,7.23,5.856,11.01c-0.83,0.053-1.454,0.093-2.078,0.133l-0.135-0.106
				c-0.436-0.365-0.94-1.1-1.297-1.035c-2.616,0.483-4.11-0.966-5.118-2.98c-1.937-3.873-5.14-4.716-9.06-4.162
				c-1.838,0.26-3.545,0.274-5.439-0.461c-1.37-0.532-3.267,0.292-4.891,0.507c-0.848,2.889-1.579,5.376-2.414,8.221
				c-1.554-0.741-2.581-1.23-3.638-1.735c0.075-1.118,0.135-2,0.213-3.159c-2.156-0.799-4.233-1.57-6.58-2.44
				c2.058-0.565,3.973-1.091,6.83-1.875c-1.403-0.726-1.896-0.98-2.388-1.235l-0.103-0.12c0.61-1.575,1.401-3.105,1.793-4.732
				c0.804-3.338,1.395-6.728,2.156-10.507c6.171,1.437,10.6-2.249,15.798-3.721c0.906-1.153,1.895-2.413,2.883-3.671L369.413,267.93
				z"/>
			<path fill-rule="evenodd" clip-rule="evenodd" fill="none" stroke="#2A5663" stroke-miterlimit="10" d="M352.41,358.421
				c0.496,0.314,0.992,0.628,1.487,0.942l-0.063,0.152c-0.249,0.366-0.788,0.94-0.699,1.064c0.452,0.63,1.055,1.155,1.625,1.694
				c2.955,2.792,2.88,6.137-0.289,8.566c-1.626,1.246-3.85,1.817-3.552,4.717c0.075,0.728-1.595,1.636-2.387,2.39
				c-1.269,0.069-2.521,0.139-3.932,0.216c-0.136,1.479-0.239,2.598-0.313,3.402c-2.914,1.343-5.534,2.55-7.993,3.683
				c-0.27,1.834-0.476,3.236-0.787,5.343c-3.108-4.424-6.387-2.19-9.813-1.202c-0.45,0.76-0.984,1.66-1.546,2.608
				c-0.774,0-1.543,0-2.16,0c-1.239-1.323-0.767-4.734,0.845-6.729c-0.533-1.259-1.096-2.59-1.444-3.412
				c1.757-2.404,3.555-4.352,4.729-6.621c1.029-1.991,1.357-4.344,2.04-6.688c1.313-0.32,2.785-0.548,4.142-1.072
				c0.582-0.225,0.926-1.065,1.377-1.627l0.131-0.146c1.361,0.428,2.723,0.854,4.237,1.328c0.796-1.138,1.529-2.186,2.231-3.189
				c1.464,0.263,2.74,0.491,3.466,0.621c2.517-1.423,4.614-2.506,6.591-3.776c0.788-0.506,1.311-1.425,1.955-2.156L352.41,358.421z"
				/>
			<path fill-rule="evenodd" clip-rule="evenodd" fill="none" stroke="#2A5663" stroke-miterlimit="10" d="M276.152,325.189
				c-1.491-3.162-2.982-6.326-4.567-9.687c0.496-0.763,1.173-1.804,2.21-3.397c-2.068-1.854-4.014-3.598-6.545-5.867
				c2.896,0.404,5.013,0.533,7.046,1.016c5.036,1.196,7.207,0.182,9.046-4.489c0.244-0.62,0.508-1.231,0.561-1.356
				c1.856-0.687,3.35-1.24,5.307-1.964c0.233,1.223,0.513,2.693,0.907,4.759c2.875,1.572,6.134,3.354,9.021,4.931
				c2.159-0.563,3.782-0.986,6.196-1.616c-0.368,3.358-0.664,6.072-1.018,9.306c-1.51,0-2.938,0-4.566,0
				c-1.678,2.281-3.461,4.727-6.982,5.193c-1.055,0.139-1.993,1.584-2.87,2.537c-0.972,1.055-1.813,2.23-2.844,3.521
				c-2.261-1.24-4.674-0.936-6.59-2.743c-0.742-0.701-2.742-0.068-4.168-0.043L276.152,325.189z"/>
			<path fill-rule="evenodd" clip-rule="evenodd" fill="none" stroke="#2A5663" stroke-miterlimit="10" d="M270.761,365.194
				c0.456-0.007,0.913-0.013,1.369-0.02c2.7,0.245,2.252,3.049,3.823,4.611c1.307,0,2.856,0,4.366,0
				c0.614,2.925,0.614,2.925-0.854,6.951c0.182,0.078,0.678,0.28,1.167,0.5c0.47,0.21,0.933,0.437,1.624,0.763
				c-0.512,2.153-0.999,4.202-1.59,6.689c-1.109-0.58-1.832-0.958-2.615-1.367c-2.655,1.873-1.975,4.723-2.026,7.826
				c-2.246,0.719-4.566,1.462-7.048,2.257c-2.883-2.171-5.949-4.428-8.956-6.758c-3.292-2.55-3.528-6.332-3.861-10.038
				c-0.092-1.027-0.014-2.069-0.014-3.516c1.817-1.396,2.19-4.924,5.972-4.939c-0.368-1.275-0.648-2.248-0.972-3.37
				c2.224-1.702,4.204-3.637,7.039-3.609C269.158,362.695,269.959,363.945,270.761,365.194z"/>
			<path fill-rule="evenodd" clip-rule="evenodd" fill="none" stroke="#2A5663" stroke-miterlimit="10" d="M333.677,365.848
				c-2.083,0.372-4.165,0.745-6.471,1.158c-2.027-5.439-6.913-8.525-10.849-12.207c0.372-3.036,0.691-5.651,0.906-7.401
				c3.399-2.393,6.207-4.369,9.077-6.39c0.793,1.885,1.476,3.507,2.076,4.934c7.082-0.179,13.095-1.58,16.752-8.202
				c0.885,4.111,1.655,7.688,2.398,11.139c-1.006,0.954-1.723,1.633-2.439,2.313l-0.093,0.073c-0.288,0.911-0.598,1.815-0.859,2.733
				c-0.425,1.491-0.816,2.992-1.228,4.488c-0.104,0.376-0.229,0.746-0.283,0.922c0.421,1.218,0.777,2.247,1.181,3.416
				c-1.692-0.225-2.973-0.394-4.212-0.557c-0.922,1.052-1.679,1.917-2.222,2.537c-1.471,0.243-2.993-1.317-3.604,0.898
				L333.677,365.848z"/>
			<path fill-rule="evenodd" clip-rule="evenodd" fill="none" stroke="#2A5663" stroke-miterlimit="10" d="M329.563,344.204
				c-0.383-4.742-0.768-9.502-1.153-14.261c-0.158,0.015-0.316,0.031-0.474,0.046c0.51-1.773,1.02-3.547,1.608-5.594
				c1.157-0.485,2.597-1.089,3.193-1.34c2.144-4.974,3.96-9.187,5.776-13.4c0.186,0.146,0.372,0.293,0.558,0.439
				c1.807-1.026,3.613-2.053,5.491-3.12c6.479,2.709,4.245,8.189,3.479,13.424c1.096,0.246,2.054,0.461,3.553,0.798
				c-1.351,0.994-2.336,1.72-3.486,2.565c0.981,3.586,0.651,6.887-2.406,9.432c-0.1,0.082-0.166,0.212-0.231,0.328
				C340.243,342.802,340.243,342.802,329.563,344.204z"/>
			<path fill-rule="evenodd" clip-rule="evenodd" fill="none" stroke="#2A5663" stroke-miterlimit="10" d="M314.309,274.688
				c3.206,1.162,6.524,2.529,9.945,3.552c2.555,0.764,5.204,1.264,7.806-0.297c0.593-0.356,1.68,0.111,3.053,0.252
				c-0.884,1.568-1.507,2.673-2.138,3.794c0.409,0.974,0.822,1.958,1.228,2.927c-0.353,1.206-0.692,2.363-1.071,3.658
				c0.573,0.807,1.188,1.673,1.974,2.778c-1.542,1.627,0.466,4.778-2.845,6.21c-1.996-3.967-5.987-1.519-8.91-2.995
				c-0.754,0.865-1.365,1.565-1.629,1.868c-2.727,0.578-5.037,1.068-7.714,1.635c-3.669-1.663-5.142-5.09-5.587-9.371
				c-1.089-0.536-2.235-1.1-3.461-1.703c-0.033-2.435,1.271-4.069,2.737-5.593C309.874,279.139,312.104,276.922,314.309,274.688z"/>
			<path fill-rule="evenodd" clip-rule="evenodd" fill="none" stroke="#2A5663" stroke-miterlimit="10" d="M353.305,447.353
				c2.271,0.881,4.171,1.619,5.931,2.303c-0.339,1.926-0.712,4.049-1.122,6.377c-1.003,0.242-2.087,0.506-3.231,0.783
				c-0.491,1.75-0.951,3.389-1.386,4.939c-1.717,0.938-4.212,0.463-4.726,3.52c-5.502,0.186-11.088,0.299-16.663,0.613
				c-1.578,0.088-3.124,0.766-5.288,1.328c-2.517-1.35,2.115-3.664-0.177-5.826c-0.165-0.059-0.866-0.307-2.119-0.752
				c0.649-2.578,1.025-5.227,2.001-7.631c1.078-2.66,3.735-3.857,6.542-3.4C340.221,450.774,347.099,449.733,353.305,447.353z"/>
			<path fill-rule="evenodd" clip-rule="evenodd" fill="none" stroke="#2A5663" stroke-miterlimit="10" d="M299.235,378.136
				c0-1.693,0-2.9,0-3.724c1.397-2.157,2.598-4.012,3.687-5.694c4.446,0,9.098,0,13.748,0c2.167-0.316,2.443-1.822,1.962-3.777
				c-0.466-1.896-1.681-2.639-3.524-2.622c-1.476,0.014-2.952,0.003-4.003,0.003c-2.995-1.637-1.141-4.495-2.687-6.4
				c1.693-0.594,3.166-1.109,4.641-1.626c0.495-1.121,0.987-2.243,1.479-3.364c0.31-0.043,0.62-0.086,0.93-0.129
				c-1.521,4.197,0.563,6.35,3.549,8.461c3.551,2.511,6.352,5.819,6.973,10.624c-0.75,0.362-1.549,0.748-2.56,1.235
				c0.421,1.154,0.816,2.237,1.381,3.787c-2.441,2.838-4.998,5.812-7.75,9.012c-0.896,0.113-2.083,0.264-3.368,0.427
				c-0.75,1.104-1.489,2.194-2.307,3.401c-1.575-0.465-3.098-0.912-4.516-1.33C304.823,383.068,303.291,379.501,299.235,378.136z"/>
			<path fill-rule="evenodd" clip-rule="evenodd" fill="none" stroke="#2A5663" stroke-miterlimit="10" d="M345.049,389.214
				c-0.792,0.814-1.958,1.495-2.303,2.467c-0.979,2.759-1.622,5.637-2.421,8.557c1.393,1.33,2.862,2.732,4.331,4.134
				c-0.235,0.286-0.47,0.571-0.705,0.856c-1.279-0.939-2.558-1.88-4.029-2.962c-0.633,0.382-1.384,0.836-2.438,1.472
				c3.41,5.323,6.771,10.459,8.021,16.604c-0.281,1.15-0.563,2.303-0.803,3.291c-2.34-1.463-4.733-2.959-7.282-4.553
				c-1.872,0.221-3.958,0.467-6.23,0.736c-0.461-1.539-0.835-2.787-1.242-4.145c0.963-0.85,1.853-1.635,2.643-2.332
				c0.056-1.275,0.107-2.446,0.164-3.757c-1.187-1.469-2.255-3.034-4.657-3.23c-1.046-0.086-1.991-1.431-3.346-2.488
				c1.495-0.595,2.409-0.959,2.836-1.129c0.179-3.278,0.334-6.143,0.49-9.007c0.233-0.011,0.467-0.021,0.7-0.032
				c-0.559-0.9-1.117-1.801-1.886-3.038c1.742-0.49,3.323-0.936,4.979-1.401c0.905,1.079,1.659,1.978,2.731,3.256
				c1.105-0.871,2.191-1.728,3.279-2.586c-0.232-1.134-0.414-2.023-0.649-3.175c2.287-0.92,3.944-3.164,7.273-2.763
				c0.227,1.747,0.441,3.411,0.657,5.075L345.049,389.214z"/>
			<path fill-rule="evenodd" clip-rule="evenodd" fill="none" stroke="#2A5663" stroke-miterlimit="10" d="M349.944,431.312
				c-0.205,1.117-0.503,2.227-0.579,3.352c-0.044,0.668,0.263,1.359,0.521,2.533c1.226-1.145,2.054-1.918,2.767-2.584
				c1.384,1.656,2.769,3.314,4.301,5.148c1.432-0.662,2.72-1.256,3.97-1.834c1.786,1.881,1.786,1.881,0.479,9.691
				c-1.809,0.918-3.212-0.053-4.781-0.895c-1.074-0.578-2.65-1.141-3.656-0.771c-6.089,2.242-12.333,2.557-18.907,2.043
				c-0.914-1.225-1.926-2.58-3.025-4.053c0.313-1.416,0.65-2.939,0.986-4.461l0.112-0.084c0.584,0.289,1.168,0.58,1.883,0.934
				c2.369-2.186,1.215-4.752,0.934-7.178c3.339-1.738,6.562-3.416,9.511-4.949c1.846,1.031,3.597,2.01,5.348,2.988L349.944,431.312z
				"/>
			<path fill-rule="evenodd" clip-rule="evenodd" fill="none" stroke="#2A5663" stroke-miterlimit="10" d="M284.134,387.106
				c-1.657-1.727-1.291-3.791-0.699-5.933c0.597-2.157,0.946-4.305-1.334-5.345c0-2.466,0-4.752,0-7.422c-2.154,0-3.772,0-5.45,0
				c0.208-3.474,3.058-1.248,4.359-2.343c1.342-1.128,3.09-1.772,5.005-2.816c0.067-0.459,0.199-1.368,0.322-2.215
				c0.202-0.106,0.36-0.242,0.412-0.21c3.011,1.913,6.416,2.082,9.961,1.876c0,1.119,0,1.871,0,2.569
				c3.292,1.315,3.292,1.315,4.281,4.307c-0.344,0.454-0.696,1.026-1.156,1.494c-0.465,0.474-1.036,0.842-1.696,1.362
				c0.15,2.536-1.85,5.028-0.346,7.629c1.597,0.591,3.035,1.123,4.473,1.655c0.017,0.277,0.033,0.555,0.05,0.832
				c-3.218,1.356-6.436,2.713-9.508,4.008c-1.468-1.108-2.662-2.01-3.852-2.909C287.086,384.876,287.149,388.062,284.134,387.106z"
				/>
			<path fill-rule="evenodd" clip-rule="evenodd" fill="none" stroke="#2A5663" stroke-miterlimit="10" d="M366.073,394.117
				c2.472,2.14,3.209,5.094,3.842,8.111c0.289,1.376,0.689,2.728,1.223,4.066c0.146,1.991-0.843,3.303-2.833,3.646
				c-2.813,0.484-4.312,2.402-5.139,4.041c-2.239,0.566-3.935,1.057-5.656,1.418c-3.709,0.779-7.28,3.145-11.505,0.982
				c0.217-0.672,0.431-1.338,0.53-1.646c-1.703-2.705-3.263-5.182-4.981-7.913c2.464-0.923,5.636,1.172,7.532-1.81
				c1.391,0.437,2.707,2.283,4.28,0.542c1.686-1.865,0.202-3.477-0.812-5.223c1.74-1.1,2.887-2.518,5.199-2.711
				c1.142-0.095,2.1-2.382,3.325-3.905c0.439,0.871,0.833,1.651,1.371,2.719c1.208-0.686,3.199,0.105,3.504-2.245L366.073,394.117z"
				/>
			<path fill-rule="evenodd" clip-rule="evenodd" fill="none" stroke="#2A5663" stroke-miterlimit="10" d="M333.21,298.833
				c3.755-2.022,8.178-4.865,13.945-1.685c-1.397,2.883-2.733,5.723-4.164,8.516c-0.288,0.562-0.908,1.305-1.421,1.343
				c-4.079,0.306-5.288,3.608-7.041,6.847c-1.996-0.443-4.232-0.458-5.88-1.45c-1.468-0.884-2.522-1.019-4.048-0.592
				c-1.99,0.555-3.865-0.073-4.785-1.951c-1.514-3.09-2.738-6.322-4.102-9.538c2.161-2.004,2.161-2.004,6.354-1.634
				c0.389-0.633,0.954-1.553,1.679-2.732C326.945,296.928,329.771,297.788,333.21,298.833z"/>
			<path fill-rule="evenodd" clip-rule="evenodd" fill="none" stroke="#2A5663" stroke-miterlimit="10" d="M349.807,431.192
				c-1.323-1.768-2.647-3.533-3.983-5.317c0.491-2.303,0.989-4.637,1.52-7.125c3.885,0.799,7.298-0.902,10.869-1.854
				c1.433-0.381,2.974-0.355,4.583-0.527c1.195,5.555,4.631,5.832,8.707,4.404c1.152,1.424,2.137,2.643,3.26,4.031
				c-1.231,0.646-2.252,1.182-3.327,1.745c-2.32-0.517-4.804-2.036-7.086,1.139c1.585,0.33,2.926,0.609,4.717,0.982
				c-0.847,3.633-2.501,6.828-4.458,10.014c-1.009-1.248-1.973-2.441-2.928-3.623c-1.865,1.273-3.034,2.07-4.43,3.023
				c-1.324-3.609-3.779-5.807-7.306-6.773L349.807,431.192z"/>
			<path fill-rule="evenodd" clip-rule="evenodd" fill="none" stroke="#2A5663" stroke-miterlimit="10" d="M297.687,290.299
				c0.212,0.241,0.898,1.02,1.447,1.645c2.433-0.952,4.654-1.822,6.826-2.671c1.229,2.591,2.408,5.077,3.56,7.507
				c-1.48,2.9-3.018,5.911-4.574,8.96c-8.315,1.199-6.858,1.676-13.015-2.453c-0.436-1.763-0.877-3.545-1.349-5.449
				c-1.403-0.235-2.783-0.215-3.921-0.731c-1.046-0.474-1.832-1.523-2.884-2.453c0.296-1.132,0.59-2.258,0.855-3.275
				C288.943,291.021,293.08,290.68,297.687,290.299z"/>
			<path fill-rule="evenodd" clip-rule="evenodd" fill="none" stroke="#2A5663" stroke-miterlimit="10" d="M345.163,389.064
				c2.608-0.707,1.957-2.759,1.311-4.202c-0.797-1.78-0.695-3.255,0.153-4.997c0.635,0.271,1.229,0.523,1.997,0.85
				c0.913-1.128,1.871-2.313,2.726-3.369c3.264,0.398,2.64,2.846,2.977,4.766c0.994,0.476,1.934,0.925,2.874,1.375
				c-0.112,0.106-0.223,0.212-0.335,0.318c1.492,1.836,2.983,3.673,4.796,5.905c-0.041,0.219,0.085,1.28-0.366,1.665
				c-2.95,2.519-5.35,5.915-10.091,6.498c0.284,2.08,0.567,4.154,0.902,6.605c-0.986-0.297-1.917-0.832-2.811-0.777
				c-0.957,0.059-1.879,0.673-2.64,0.975c-1.378-1.764-2.69-3.444-4.074-5.215c0.798-3.315,1.632-6.78,2.467-10.246L345.163,389.064
				z"/>
			<path fill-rule="evenodd" clip-rule="evenodd" fill="none" stroke="#2A5663" stroke-miterlimit="10" d="M306.906,418.719
				c2.318-0.121,4.668-0.246,8.006-0.42c1.31,0.563,3.587,1.543,6.297,2.707c1.178,2.689,3.808,4.215,7.762,4.789
				c1.035-1.287,2.223-2.764,3.716-4.621c1.087-0.145,2.772-0.367,4.75-0.631c-0.151,1.811-1.296,3.914,1.655,4.904
				c0.497-0.301,1.256-0.758,2.305-1.389c0.698,0.514,1.502,1.102,2.373,1.74c-1.872,1.456-3.515,2.735-5.016,3.903
				c-1.956,0.756-3.796,1.467-5.797,2.24c-6.917-3.027-14.731-3.053-22.323-4.596c-0.81,0.566-1.647,1.152-2.708,1.895
				c-0.808-1.523-1.487-2.805-1.792-3.38C306.43,423.115,306.648,421.092,306.906,418.719z"/>
			<path fill-rule="evenodd" clip-rule="evenodd" fill="none" stroke="#2A5663" stroke-miterlimit="10" d="M293.319,360.54
				c-1.049-2.979,3.908-4.959,0.539-7.876c2.395-2.648,5.948,1.283,8.038-2.502c0.478,1.104,0.702,1.519,0.836,1.961
				c0.153,0.502,0.226,1.029,0.38,1.77c3.008,0.453,4.427,1.972,4.101,5.342c-0.143,1.482,1.32,3.119,2.088,4.761
				c2.33,0,4.522,0,7.132,0c0.306,1.009,0.613,2.022,1.122,3.698c-2.114-0.55-3.475-0.904-4.38-1.141
				c-2.984,0.44-5.541,0.817-8.344,1.23c-0.406-1.178-0.769-2.23-1.291-3.748c-1.42,0.135-2.926,0.279-4.435,0.423
				C298.115,361.136,297.778,360.903,293.319,360.54z"/>
			<path fill-rule="evenodd" clip-rule="evenodd" fill="none" stroke="#2A5663" stroke-miterlimit="10" d="M338.058,224.124
				c-0.84-4.91-5.143-5.506-8.097-7.843c-0.839,0.067-1.848,0.147-3.807,0.303c2.376-1.711,4.04-2.91,5.704-4.108
				c-0.249-0.32-0.498-0.64-0.747-0.96c2.474-0.343,4.947-0.687,7.189-0.998C342.411,215.533,342.41,219.981,338.058,224.124z"/>
			<path fill-rule="evenodd" clip-rule="evenodd" fill="none" stroke="#2A5663" stroke-miterlimit="10" d="M272.494,292.243
				c1.226,0.42,2.451,0.84,3.677,1.26c0.594,0.954,1.188,1.907,1.886,3.028c1.181-0.801,2.03-1.378,3-2.037
				c1.155,1.038,2.306,2.071,3.326,2.987c-0.921,1.394-1.675,2.537-2.502,3.79c-2.11-0.774-3.028,1.213-4.453,2.595
				c-5.391-2.773-5.127-8.249-6.772-13.011c0.387,0.118,0.479,0.119,0.5,0.158c0.063,0.115,0.062,0.291,0.151,0.361
				C271.689,291.679,272.096,291.956,272.494,292.243z"/>
			<path fill-rule="evenodd" clip-rule="evenodd" fill="none" stroke="#2A5663" stroke-miterlimit="10" d="M345.128,351.191
				c0.466,0.262,1.138,0.87,1.367,0.734c3.575-2.124,5.655,0.455,7.936,2.422c0.1,0.087,0.18,0.195,0.271,0.295
				c-0.764,1.26-1.527,2.52-2.292,3.779l-0.122,0.108c-2.328,0.837-4.656,1.675-7.408,2.665c0-1.117-0.327-2.165,0.057-2.725
				c1.673-2.442,1.159-4.793,0.098-7.206L345.128,351.191z"/>
			<path fill-rule="evenodd" clip-rule="evenodd" fill="none" stroke="#2A5663" stroke-miterlimit="10" d="M271.557,304.756
				c-2.891,0.072-4.414-1.187-5.338-4.007c1.134-0.7,2.254-1.391,3.56-2.197C270.426,300.811,270.924,302.55,271.557,304.756z"/>
			<path fill-rule="evenodd" clip-rule="evenodd" fill="none" stroke="#2A5663" stroke-miterlimit="10" d="M270.474,416.074
				c-1.021,1.223-1.737,2.082-2.96,3.547c-0.465-2.252-0.786-3.801-1.302-6.303C267.982,414.463,269.134,415.209,270.474,416.074z"
				/>
			<path fill-rule="evenodd" clip-rule="evenodd" fill="none" stroke="#2A5663" stroke-miterlimit="10" d="M307.66,464.521
				c-1.955,2.758-5.077,1.264-7.564,2.078C301.994,463.636,305.082,465.005,307.66,464.521z"/>
			<path fill-rule="evenodd" clip-rule="evenodd" fill="none" stroke="#2A5663" stroke-miterlimit="10" d="M272.398,301.756
				c1.802,1.441,3.604,2.881,5.613,4.487C274.273,306.892,273.579,303.94,272.398,301.756z"/>
			<path fill-rule="evenodd" clip-rule="evenodd" fill="none" stroke="#2A5663" stroke-miterlimit="10" d="M299.884,467.571
				c2.792,0.633,5.519,0.564,8.137-0.902c0.296,0.563,0.537,1.021,0.827,1.576c1.971,0.156,4.446-1.432,5.843,1.133
				c-1.065,1.561-2.028,2.971-3.388,4.961c-2.356,1.607-3.979-0.873-5.893-2.348c-1.867-1.438-3.729-2.883-5.595-4.324
				L299.884,467.571z"/>
			<path fill-rule="evenodd" clip-rule="evenodd" fill="none" stroke="#2A5663" stroke-miterlimit="10" d="M369.288,267.836
				c-0.988,1.259-1.977,2.518-2.883,3.671c-5.198,1.472-9.627,5.157-15.798,3.721c-0.761,3.779-1.352,7.169-2.156,10.507
				c-0.392,1.627-1.183,3.158-1.793,4.732c-0.379,0-0.759,0-1.227,0c1.277-5.284,2.532-10.473,3.854-15.946
				c5.707-0.857,11.231-1.545,16.23-4.239c0.822-1.194,1.644-2.389,2.716-3.946C368.704,267.006,368.996,267.421,369.288,267.836z"
				/>
			<path fill-rule="evenodd" clip-rule="evenodd" fill="none" stroke="#2A5663" stroke-miterlimit="10" d="M345.035,351.264
				c1.061,2.413,1.575,4.764-0.098,7.206c-0.384,0.56-0.057,1.607-0.057,2.725c2.752-0.99,5.08-1.828,7.408-2.665
				c-0.644,0.731-1.167,1.65-1.955,2.156c-1.977,1.271-4.074,2.354-6.591,3.776c-0.726-0.13-2.002-0.358-3.466-0.621
				c-0.702,1.004-1.436,2.052-2.231,3.189c-1.514-0.475-2.875-0.9-4.237-1.328c0.611-2.216,2.133-0.655,3.604-0.898
				c0.543-0.62,1.3-1.485,2.222-2.537c1.239,0.163,2.52,0.332,4.212,0.557c-0.404-1.169-0.76-2.198-1.181-3.416
				c0.054-0.176,0.179-0.546,0.283-0.922c0.411-1.496,0.802-2.997,1.228-4.488C344.437,353.08,344.747,352.175,345.035,351.264z"/>
		</g>
		<text transform="matrix(1 0 0 1 70.2813 267.8359)" fill="#2A5663" font-family="'AgencyFB-Reg'" font-size="48">I am here</text>
		<path fill-rule="evenodd" clip-rule="evenodd" fill="#2A5663" d="M290.844,391.552c0.18-0.494,0.359-0.988,0.54-1.482
			c-3.516-1.002-7.011-2.082-10.549-2.996c-32.636-8.428-60.326-24.766-81.719-51.133c-9.566-11.79-17.148-24.809-23.483-38.579
			c-0.942-2.048-2.051-4.02-3.083-6.026c-0.432,0.251-0.864,0.502-1.296,0.753c5.665,28.62,20.653,51.837,42.932,70.377
			C236.354,380.914,261.802,391.298,290.844,391.552z"/>
		<path fill-rule="evenodd" clip-rule="evenodd" fill="#2A5663" d="M329.658,401.375c-32.189,1.525-59.809,13.434-85.616,30.417
			c1.383,0.256,2.64,0.08,3.799-0.355c8.289-3.119,16.668-6.032,24.811-9.499c15.651-6.666,31.237-13.461,47.891-17.32
			c3.75-0.868,7.553-1.503,11.816-2.341c-0.864-0.93-1.234-1.386-1.662-1.781c-12.586-11.648-25.097-23.379-37.812-34.887
			c-4.611-4.174-9.688-7.837-14.602-11.67c-0.886-0.691-2.013-1.074-3.028-1.6c-0.191,0.316-0.381,0.632-0.572,0.948
			C291.148,370.928,310.434,385.397,329.658,401.375z"/>
		<path fill-rule="evenodd" clip-rule="evenodd" d="M290.844,391.552c-29.042-0.254-54.491-10.639-76.659-29.086
			c-22.279-18.54-37.267-41.757-42.932-70.377c0.432-0.251,0.864-0.502,1.296-0.753c1.032,2.007,2.14,3.979,3.083,6.026
			c6.335,13.771,13.917,26.789,23.483,38.579c21.393,26.367,49.083,42.705,81.719,51.133c3.538,0.914,7.033,1.994,10.549,2.996
			C291.204,390.564,291.024,391.059,290.844,391.552z"/>
		<path fill-rule="evenodd" clip-rule="evenodd" d="M329.658,401.375c-19.224-15.978-38.51-30.447-54.975-48.087
			c0.19-0.316,0.381-0.632,0.572-0.948c1.016,0.525,2.142,0.909,3.028,1.6c4.914,3.833,9.991,7.496,14.602,11.67
			c12.714,11.508,25.226,23.239,37.812,34.887c0.427,0.396,0.798,0.852,1.662,1.781c-4.264,0.838-8.067,1.473-11.816,2.341
			c-16.654,3.858-32.24,10.654-47.891,17.32c-8.142,3.467-16.521,6.38-24.811,9.499c-1.159,0.436-2.417,0.611-3.799,0.355
			C269.849,414.809,297.468,402.9,329.658,401.375z"/>
	</g>
</g>
<g id="Layer_2">
</g>
</svg>
