<?xml version="1.0" encoding="utf-8"?>
<!-- Generator: Adobe Illustrator 16.0.0, SVG Export Plug-In . SVG Version: 6.00 Build 0)  -->
<!DOCTYPE svg PUBLIC "-//W3C//DTD SVG 1.1//EN" "http://www.w3.org/Graphics/SVG/1.1/DTD/svg11.dtd">
<svg version="1.1" xmlns="http://www.w3.org/2000/svg" xmlns:xlink="http://www.w3.org/1999/xlink" x="0px" y="0px"
	 width="441.252px" height="445.333px" viewBox="0 0 441.252 445.333" enable-background="new 0 0 441.252 445.333"
	 xml:space="preserve">
<g id="Background">
</g>
<g id="Text">
	<g id="Layer_4">
		<g>
			<path fill-rule="evenodd" clip-rule="evenodd" fill="none" d="M-29-29.56c166.935,0,333.87,0,500.902,0
				c0,166.858,0,333.751,0,500.805c-166.902,0-333.902,0-500.902,0C-29,304.392-29,137.434-29-29.56z M222.765,440.409
				c119.962,1.073,217.954-98.09,218.485-217.258C441.785,102.98,343.419,1.179,217.772,3.283
				C102.501,5.212,1.499,99.305,3.939,226.649C6.167,342.844,101.573,441.135,222.765,440.409z"/>
			<path fill-rule="evenodd" clip-rule="evenodd" fill="#2A5663" stroke="#2A5663" stroke-miterlimit="10" d="M222.765,440.409
				C101.573,441.135,6.167,342.844,3.939,226.649C1.499,99.305,102.501,5.212,217.772,3.283
				C343.419,1.179,441.785,102.98,441.25,223.151C440.719,342.319,342.727,441.482,222.765,440.409z M55.172,109.187
				c0,1.174-0.207,2.048,0.031,2.776c4.716,14.462,10.905,28.23,21.001,39.774c9.001,10.293,20.134,16.632,34.371,16.242
				c3.908-0.107,6.167-1.089,4.96-5.601c-1.241-4.639-1.895-9.469-3.499-13.969C103.633,124.838,79.499,110.682,55.172,109.187z
				 M86.238,185.146c0.389,1.533,0.412,2.194,0.706,2.697c6.938,11.856,15.439,22.421,26.702,30.405
				c10.917,7.739,22.707,11.564,36.111,6.556c2.819-1.054,3.79-2.216,2.612-5.083c-7.137-17.362-19.183-29.127-37.774-33.68
				C105.421,183.796,96.281,183.912,86.238,185.146z M118.868,242.636c6.736,11.677,14.318,21.457,24.026,29.382
				c10.669,8.71,22.437,14.123,36.786,10.537c6.332-1.583,7.171-2.537,4.733-8.331c-6.96-16.543-19.289-27.245-36.598-31.525
				C138.677,240.438,129.163,239.88,118.868,242.636z M144.907,290.578c0.848,1.863,1.329,3.448,2.208,4.768
				c6.818,10.245,14.434,19.817,24.461,27.147c10.234,7.481,21.43,11.146,34.199,7.954c5.87-1.467,6.646-3.267,4.128-8.781
				c-11.918-26.095-34.756-34.817-60.867-32.249C147.785,289.54,146.577,290.096,144.907,290.578z M328.234,59.981
				c-1.027,1.511-1.695,2.459-2.329,3.431c-6.381,9.78-11.926,20.05-14.236,31.546c-2.463,12.26-2.582,24.441,5.711,35.138
				c4.112,5.305,4.937,5.503,9.329,0.62c11.853-13.177,15.335-28.658,12.083-45.797C337.149,76.266,333.955,68.19,328.234,59.981z
				 M227.13,337.005c6.485-7.149,10.435-14.812,13.105-22.96c5.154-15.726,5.313-31.313-3.545-46.042
				c-2.859-4.755-3.997-4.736-7.358-0.428c-10.479,13.429-14.335,28.591-11.544,45.345
				C219.175,321.245,221.848,329.167,227.13,337.005z M253.398,220.535c-5.356,14.418-8.929,27.983-6.622,42.544
				c1.601,10.104,5.846,18.506,14.81,24.154c2.667,1.681,4.069,1.16,5.505-1.417c4.03-7.231,6.217-14.854,6.409-23.208
				C273.892,245.514,265.583,232.801,253.398,220.535z M272.3,177.693c-0.607,1-1.147,1.633-1.412,2.366
				c-4.729,13.123-7.092,26.602-5.009,40.51c1.404,9.376,5.84,17.021,13.901,22.602c3.509,2.429,4.916,1.155,6.511-1.722
				C298.825,218.852,291.496,193.892,272.3,177.693z M292.98,123.656c-0.884,1.95-1.819,3.346-2.159,4.874
				c-1.761,7.915-4.185,15.796-4.852,23.816c-1.167,14.052,1.276,27.258,13.665,36.447c4.021,2.982,5.261,2.638,7.621-1.835
				c6.44-12.213,7.824-25,3.32-38.03C307.201,139.162,301.551,130.707,292.98,123.656z M204.755,287.653
				c0.752-0.135,1.503-0.27,2.255-0.404c1.483-7.879,3.557-15.701,4.328-23.648c1.706-17.595-2.655-33.645-14.064-47.466
				c-2.797-3.387-4.595-3.277-5.708,0.875c-1.92,7.158-4.044,14.424-4.588,21.756c-1.136,15.304,4.315,29.041,12.229,41.856
				C200.765,283.146,202.891,285.318,204.755,287.653z M163.232,167.641c-12.383,16.803-7.326,53.143,10.742,70.295
				C184.893,218.811,181.829,181.646,163.232,167.641z M267.173,304.066c23.516,3.103,51.357-13.152,53.024-34.27
				C296.673,265.389,274.464,281.473,267.173,304.066z M143.794,187.072c7.949-25.012-4.406-58.859-19.537-67.246
				C115.378,139.994,126.022,172.144,143.794,187.072z M288.547,262.265c21.491-2.221,46.092-27.369,44.627-47.613
				C313.357,215.7,291.575,238.772,288.547,262.265z M305.65,214.045c19.159-0.702,46.985-31.302,41.644-45.796
				C323.597,171.251,306.802,196.413,305.65,214.045z M235.904,389.634c-0.258,0.096-0.516,0.191-0.773,0.286
				c-2.28-4.148-4.858-8.165-6.768-12.477c-2.577-5.818-7.257-3.479-11.221-3.17c-4.025,0.313-2.266,3.869-2.322,5.981
				c-0.169,6.319,0.098,12.649,0.142,18.975c0.056,8.084,0.035,8.092,8.061,7.292c0.453-0.045,0.876-0.381,1.303-0.576
				c0-5.379,0-10.667,0-17.103c3.262,5.819,5.882,10.609,8.616,15.334c2.628,4.542,6.915,1.987,10.389,1.864
				c0.953-0.034,2.533-3.432,2.543-5.293c0.035-6.81-0.566-13.62-0.747-20.435c-0.206-7.75-1.239-8.493-9.221-5.833
				C235.904,379.469,235.904,384.552,235.904,389.634z M324,165.17c19.207-6.148,38.634-33.82,35.148-49.627
				C340.314,118.974,323.695,146.583,324,165.17z M101.282,324.498c5.214-0.563,6.726-2.893,3.179-8.325
				c-2.592-3.97-5.783-7.752-9.394-10.806c-5.299-4.481-13.112-4.005-18.967,0.314c-6.039,4.455-9.229,11.855-6.349,17.877
				c2.597,5.43,6.603,10.217,10.28,15.066c0.621,0.818,3.137,1.18,4.074,0.605c3.669-2.25,7.177-4.816,10.475-7.587
				c0.963-0.81,1.848-3.171,1.364-3.991c-1.986-3.358-4.516-6.396-7.854-10.917c-1.567,3.254-2.577,5.304-3.543,7.375
				c-0.6,1.286-1.134,2.603-1.697,3.906c-1.146-0.703-2.726-1.136-3.362-2.157c-2.133-3.426-2.053-6.89,0.817-10.025
				c2.988-3.265,6.889-5.2,10.605-2.512C94.584,315.979,97.249,320.032,101.282,324.498z M330.964,372.858
				c-3.38-2.757-6.386-5.355-9.552-7.74c-2.106-1.587-3.237-2.997-2.909-6.106c0.806-7.629-5.355-11.92-12.364-8.709
				c-4.511,2.067-8.583,5.075-13.015,7.34c-2.832,1.447-2.377,2.91-1.048,5.107c4.296,7.101,8.618,14.196,12.589,21.48
				c2.306,4.229,4.701,2.115,7.371,0.839c3.15-1.506,2.857-3.583,1.338-6.107c-1.3-2.161-2.425-4.426-3.627-6.645
				c0.426-0.469,0.852-0.938,1.278-1.408c2.03,0.996,4.328,1.662,6.043,3.047C323.768,379.365,323.851,379.444,330.964,372.858z
				 M147.739,353.552c-3.67,5.69-7.05,10.78-10.263,15.973c-1.725,2.788-3.801,5.158-7.182,3.364
				c-4.026-2.137-2.072-5.508-0.575-8.198c2.576-4.63,5.433-9.113,8.336-13.55c2.159-3.3-0.807-4.165-2.531-5.211
				c-1.718-1.043-3.859-3.465-5.874-0.201c-3.307,5.356-6.886,10.573-9.797,16.139c-3.612,6.905-1.068,13.397,6.428,17.959
				c7.187,4.374,13.752,3.683,18.072-2.483c4.068-5.807,7.584-12,11.643-18.505C153.144,357.014,150.586,355.375,147.739,353.552z
				 M352.496,304.792c-4.525,5.738-8.894,11.138-13.032,16.708c-0.499,0.67-0.191,2.809,0.48,3.347
				c7.852,6.296,15.845,12.416,24.2,18.892c5.074-6.532,9.723-12.518,14.298-18.408c-4.031-5.839-5.245-5.858-9.112-0.59
				c-1.54,2.098-3.196,4.111-4.838,6.212c-3.706-1.617-4.646-3.546-2.017-6.527c1.099-1.246,2.044-2.626,3.107-3.907
				c1.736-2.093,1.696-4.34-0.755-5.322c-1.454-0.583-3.781,0.057-5.304,0.895c-1.332,0.733-1.89,2.764-3.156,3.755
				c-1.173,0.918-2.831,1.217-4.274,1.788c0.171-1.672-0.139-3.615,0.617-4.959c1.423-2.53,3.461-4.715,5.486-7.361
				C356.151,307.691,354.512,306.391,352.496,304.792z M329.49,341.864c2.711-2.474,5.551-4.59,7.685-7.269
				c0.758-0.951,0.326-3.672-0.555-4.833c-0.646-0.851-3.495-1.207-4.354-0.521c-4.528,3.616-8.838,7.531-12.969,11.6
				c-0.816,0.804-1.233,3.338-0.627,4.058c6.381,7.577,13.008,14.948,19.983,22.847c5.742-5.025,11.185-9.583,16.29-14.494
				c0.693-0.667,0.234-3.613-0.675-4.552c-0.847-0.875-3.472-1.189-4.498-0.513c-2.993,1.974-5.577,4.567-8.633,7.184
				c-1.204-1.452-2.198-2.65-3.384-4.08c2.516-2.309,4.797-4.219,6.831-6.363c0.79-0.833,1.699-2.507,1.358-3.249
				c-0.632-1.377-2.016-3.052-3.325-3.289c-1.223-0.221-2.869,1.107-4.124,2.032c-2.077,1.531-3.99,3.287-6.161,5.106
				C331.238,344.116,330.453,343.105,329.49,341.864z M191.782,391.003c3.204,0.503,6.292,1.356,9.365,1.301
				c1.343-0.024,3.298-1.65,3.833-3.001c0.908-2.294-0.001-4.009-3.03-4.323c-2.892-0.299-5.715-1.273-8.43-1.918
				c-0.209-3.736,1.034-5.075,4.454-4.082c1.895,0.551,3.986,1.056,5.877,0.79c1.503-0.212,3.533-1.315,4.096-2.573
				c1.025-2.292-0.117-4.116-2.882-4.589c-5.558-0.951-11.082-2.135-16.668-2.844c-1.061-0.135-3.193,1.314-3.39,2.316
				c-1.759,8.948-3.288,17.946-4.595,26.971c-0.147,1.014,1.319,3.072,2.347,3.311c5.49,1.276,11.079,2.125,16.633,3.126
				c2.367,0.427,4.179,0.287,4.734-2.767c0.579-3.182-1.032-4.202-3.636-4.684c-1.961-0.363-3.908-0.849-5.884-1.087
				C191.3,396.552,190.392,394.823,191.782,391.003z M265.574,368.505c3.155,9.057,6.03,17.472,9.023,25.846
				c1.977,5.531,2.539,5.718,7.894,3.269c1.027-0.47,1.969-1.123,3.058-1.754c-1.019-3.364-2.697-6.502-2.764-9.674
				c-0.105-5.025,5.532-2.803,7.684-5.085c0.938-0.994,1.729-3.207,1.238-4.199c-0.623-1.259-2.554-2.393-4.036-2.559
				c-1.469-0.165-3.12,0.849-4.621,1.505c-3.431,1.5-4.821-0.107-5.45-3.565c2.175-0.876,4.298-1.728,6.418-2.587
				c5.862-2.378,5.945-2.709,1.791-8.584C279.303,363.492,272.685,365.908,265.574,368.505z M163.439,396.745
				c2.545-6.722,5.081-12.819,7.13-19.076c1.056-3.226,2.494-4.563,5.679-3.004c2.352,1.15,3.785,0.463,4.616-1.894
				c0.845-2.397,1.056-4.554-1.958-5.627c-5.775-2.056-11.486-4.326-17.356-6.054c-1.2-0.353-3.631,0.898-4.355,2.097
				c-1.131,1.875-1.138,4.406,1.904,5.021c3.467,0.702,3.649,2.267,2.407,5.323c-2.596,6.385-4.728,12.958-7.218,19.924
				C157.535,394.624,160.261,395.603,163.439,396.745z M119.262,332.595c-1.637-1.719-2.736-2.943-3.911-4.091
				c-1.964-1.92-3.805-2.257-5.906,0.059c-5.55,6.116-11.224,12.121-16.887,18.134c-2.072,2.2-2.297,4.121,0.159,6.285
				c3.603,3.175,7.031,6.548,10.533,9.837c1.666,1.564,3.301,2.958,5.45,0.598c2.027-2.227,3.007-4.199-0.056-6.501
				c-2.211-1.663-4.082-3.778-6.234-5.815C108.104,344.847,113.527,338.893,119.262,332.595z"/>
			<path fill-rule="evenodd" clip-rule="evenodd" fill="none" d="M55.172,109.187c24.327,1.495,48.461,15.651,56.863,39.223
				c1.604,4.5,2.258,9.331,3.499,13.969c1.207,4.511-1.052,5.494-4.96,5.601c-14.236,0.39-25.369-5.949-34.371-16.242
				c-10.096-11.544-16.285-25.312-21.001-39.774C54.965,111.235,55.172,110.361,55.172,109.187z"/>
			<path fill-rule="evenodd" clip-rule="evenodd" fill="none" d="M86.238,185.146c10.043-1.234,19.184-1.35,28.356,0.896
				c18.591,4.552,30.638,16.318,37.774,33.68c1.178,2.867,0.208,4.029-2.612,5.083c-13.404,5.009-25.195,1.184-36.111-6.556
				c-11.263-7.984-19.764-18.549-26.702-30.405C86.649,187.34,86.627,186.679,86.238,185.146z"/>
			<path fill-rule="evenodd" clip-rule="evenodd" fill="none" d="M118.868,242.636c10.295-2.755,19.809-2.198,28.947,0.062
				c17.309,4.281,29.638,14.982,36.598,31.525c2.438,5.794,1.598,6.748-4.733,8.331c-14.349,3.586-26.117-1.827-36.786-10.537
				C133.186,264.093,125.604,254.313,118.868,242.636z"/>
			<path fill-rule="evenodd" clip-rule="evenodd" fill="none" d="M144.907,290.578c1.67-0.482,2.878-1.038,4.129-1.161
				c26.11-2.568,48.949,6.154,60.867,32.249c2.518,5.514,1.742,7.313-4.128,8.781c-12.769,3.192-23.965-0.473-34.199-7.954
				c-10.027-7.331-17.643-16.902-24.461-27.147C146.236,294.025,145.755,292.441,144.907,290.578z"/>
			<path fill-rule="evenodd" clip-rule="evenodd" fill="none" d="M328.234,59.981c5.721,8.209,8.916,16.285,10.558,24.938
				c3.252,17.139-0.229,32.62-12.083,45.797c-4.392,4.883-5.216,4.685-9.329-0.62c-8.293-10.697-8.175-22.878-5.711-35.138
				c2.31-11.496,7.855-21.766,14.236-31.546C326.539,62.44,327.207,61.492,328.234,59.981z"/>
			<path fill-rule="evenodd" clip-rule="evenodd" fill="none" d="M227.13,337.005c-5.282-7.838-7.955-15.76-9.342-24.085
				c-2.791-16.754,1.065-31.917,11.544-45.345c3.362-4.308,4.499-4.327,7.358,0.428c8.858,14.73,8.699,30.316,3.545,46.042
				C237.565,322.194,233.615,329.856,227.13,337.005z"/>
			<path fill-rule="evenodd" clip-rule="evenodd" fill="none" d="M253.398,220.535c12.186,12.267,20.494,24.979,20.101,42.073
				c-0.192,8.354-2.379,15.977-6.409,23.208c-1.436,2.576-2.837,3.097-5.505,1.417c-8.964-5.647-13.209-14.05-14.81-24.154
				C244.469,248.518,248.042,234.953,253.398,220.535z"/>
			<path fill-rule="evenodd" clip-rule="evenodd" fill="none" d="M272.3,177.693c19.196,16.199,26.524,41.159,13.992,63.756
				c-1.596,2.877-3.002,4.151-6.511,1.722c-8.061-5.581-12.497-13.226-13.901-22.602c-2.083-13.909,0.279-27.387,5.009-40.51
				C271.153,179.326,271.693,178.693,272.3,177.693z"/>
			<path fill-rule="evenodd" clip-rule="evenodd" fill="none" d="M292.98,123.656c8.57,7.051,14.22,15.506,17.596,25.271
				c4.504,13.03,3.12,25.817-3.32,38.03c-2.359,4.474-3.599,4.818-7.621,1.835c-12.389-9.189-14.832-22.396-13.665-36.447
				c0.667-8.02,3.091-15.901,4.852-23.816C291.162,127.001,292.097,125.605,292.98,123.656z"/>
			<path fill-rule="evenodd" clip-rule="evenodd" fill="none" d="M204.755,287.653c-1.864-2.334-3.991-4.507-5.549-7.031
				c-7.914-12.815-13.365-26.553-12.229-41.856c0.544-7.332,2.668-14.598,4.588-21.756c1.114-4.152,2.912-4.263,5.708-0.875
				c11.41,13.821,15.771,29.871,14.064,47.466c-0.771,7.948-2.845,15.77-4.328,23.648
				C206.259,287.383,205.507,287.518,204.755,287.653z"/>
			<path fill-rule="evenodd" clip-rule="evenodd" fill="none" d="M163.232,167.641c18.597,14.006,21.661,51.17,10.742,70.295
				C155.906,220.783,150.849,184.443,163.232,167.641z"/>
			<path fill-rule="evenodd" clip-rule="evenodd" fill="none" d="M267.173,304.066c7.292-22.593,29.5-38.678,53.024-34.27
				C318.53,290.914,290.689,307.169,267.173,304.066z"/>
			<path fill-rule="evenodd" clip-rule="evenodd" fill="none" d="M143.794,187.072c-17.771-14.929-28.416-47.079-19.537-67.246
				C139.388,128.213,151.743,162.061,143.794,187.072z"/>
			<path fill-rule="evenodd" clip-rule="evenodd" fill="none" d="M288.547,262.265c3.028-23.492,24.81-46.565,44.627-47.613
				C334.64,234.896,310.038,260.043,288.547,262.265z"/>
			<path fill-rule="evenodd" clip-rule="evenodd" fill="none" d="M305.65,214.045c1.152-17.632,17.947-42.794,41.644-45.796
				C352.635,182.744,324.809,213.344,305.65,214.045z"/>
			<path fill-rule="evenodd" clip-rule="evenodd" fill="none" d="M235.904,389.634c0-5.083,0-10.166,0-15.156
				c7.982-2.661,9.016-1.917,9.221,5.833c0.181,6.815,0.782,13.625,0.747,20.435c-0.01,1.861-1.59,5.259-2.543,5.293
				c-3.474,0.123-7.761,2.677-10.389-1.864c-2.734-4.725-5.354-9.515-8.616-15.334c0,6.436,0,11.724,0,17.103
				c-0.427,0.195-0.85,0.531-1.303,0.576c-8.026,0.801-8.004,0.793-8.061-7.292c-0.044-6.326-0.311-12.655-0.142-18.975
				c0.056-2.112-1.703-5.668,2.322-5.981c3.964-0.308,8.644-2.648,11.221,3.17c1.91,4.312,4.488,8.329,6.768,12.477
				C235.389,389.825,235.646,389.73,235.904,389.634z"/>
			<path fill-rule="evenodd" clip-rule="evenodd" fill="none" d="M324,165.17c-0.306-18.587,16.314-46.196,35.148-49.627
				C362.635,131.35,343.207,159.021,324,165.17z"/>
			<path fill-rule="evenodd" clip-rule="evenodd" fill="none" d="M101.282,324.498c-4.033-4.465-6.698-8.519-10.374-11.177
				c-3.716-2.688-7.617-0.753-10.605,2.512c-2.87,3.135-2.95,6.599-0.817,10.025c0.636,1.021,2.215,1.454,3.362,2.157
				c0.563-1.303,1.097-2.62,1.697-3.906c0.966-2.07,1.976-4.12,3.543-7.375c3.338,4.521,5.867,7.559,7.854,10.917
				c0.484,0.819-0.4,3.181-1.364,3.991c-3.298,2.771-6.806,5.337-10.475,7.587c-0.937,0.574-3.453,0.213-4.074-0.605
				c-3.677-4.849-7.683-9.636-10.28-15.066c-2.88-6.022,0.311-13.423,6.349-17.877c5.855-4.319,13.668-4.795,18.967-0.314
				c3.611,3.054,6.802,6.836,9.394,10.806C108.008,321.604,106.496,323.934,101.282,324.498z"/>
			<path fill-rule="evenodd" clip-rule="evenodd" fill="none" d="M330.964,372.858c-7.114,6.585-7.197,6.507-13.895,1.099
				c-1.716-1.386-4.013-2.051-6.043-3.047c-0.426,0.469-0.852,0.938-1.278,1.408c1.202,2.219,2.327,4.484,3.627,6.645
				c1.519,2.524,1.812,4.601-1.338,6.107c-2.67,1.276-5.065,3.39-7.371-0.839c-3.971-7.284-8.293-14.379-12.589-21.48
				c-1.33-2.197-1.784-3.66,1.048-5.107c4.432-2.266,8.503-5.273,13.015-7.34c7.009-3.211,13.17,1.08,12.364,8.709
				c-0.329,3.109,0.802,4.519,2.909,6.106C324.579,367.503,327.584,370.102,330.964,372.858z M303.866,364.614
				c0.995,0.351,1.989,0.702,2.984,1.054c0.976-1.955,1.952-3.909,2.927-5.863c-1.603-0.196-4.102-1.096-4.618-0.438
				C304.145,360.657,304.233,362.814,303.866,364.614z"/>
			<path fill-rule="evenodd" clip-rule="evenodd" fill="none" d="M147.739,353.552c2.847,1.823,5.405,3.462,8.256,5.288
				c-4.059,6.504-7.574,12.698-11.643,18.505c-4.32,6.166-10.885,6.857-18.072,2.483c-7.496-4.562-10.04-11.055-6.428-17.959
				c2.911-5.565,6.49-10.782,9.797-16.139c2.015-3.264,4.156-0.842,5.874,0.201c1.724,1.046,4.69,1.911,2.531,5.211
				c-2.903,4.437-5.76,8.92-8.336,13.55c-1.497,2.69-3.451,6.061,0.575,8.198c3.381,1.794,5.458-0.576,7.182-3.364
				C140.689,364.333,144.069,359.243,147.739,353.552z"/>
			<path fill-rule="evenodd" clip-rule="evenodd" fill="none" d="M352.496,304.792c2.017,1.599,3.655,2.899,5.7,4.521
				c-2.025,2.646-4.063,4.831-5.486,7.361c-0.756,1.344-0.446,3.287-0.617,4.959c1.444-0.571,3.101-0.87,4.274-1.788
				c1.266-0.991,1.824-3.022,3.156-3.755c1.523-0.838,3.851-1.477,5.304-0.895c2.451,0.982,2.491,3.229,0.755,5.322
				c-1.063,1.28-2.008,2.661-3.107,3.907c-2.629,2.981-1.689,4.911,2.017,6.527c1.642-2.101,3.298-4.114,4.838-6.212
				c3.867-5.268,5.081-5.249,9.112,0.59c-4.575,5.89-9.225,11.875-14.298,18.408c-8.355-6.476-16.348-12.596-24.2-18.892
				c-0.671-0.539-0.979-2.677-0.48-3.347C343.602,315.93,347.971,310.53,352.496,304.792z"/>
			<path fill-rule="evenodd" clip-rule="evenodd" fill="none" d="M329.49,341.864c0.962,1.241,1.748,2.252,2.842,3.663
				c2.171-1.819,4.083-3.575,6.161-5.106c1.255-0.925,2.901-2.252,4.124-2.032c1.309,0.236,2.693,1.912,3.325,3.289
				c0.341,0.742-0.568,2.417-1.358,3.249c-2.034,2.145-4.315,4.054-6.831,6.363c1.186,1.43,2.18,2.628,3.384,4.08
				c3.056-2.617,5.64-5.209,8.633-7.184c1.026-0.676,3.651-0.362,4.498,0.513c0.909,0.939,1.368,3.885,0.675,4.552
				c-5.105,4.911-10.547,9.469-16.29,14.494c-6.975-7.899-13.602-15.27-19.983-22.847c-0.606-0.719-0.189-3.253,0.627-4.058
				c4.131-4.069,8.441-7.983,12.969-11.6c0.859-0.686,3.708-0.331,4.354,0.521c0.881,1.16,1.313,3.881,0.555,4.833
				C335.042,337.274,332.201,339.39,329.49,341.864z"/>
			<path fill-rule="evenodd" clip-rule="evenodd" fill="none" d="M191.782,391.003c-1.39,3.82-0.482,5.549,2.825,5.947
				c1.976,0.238,3.922,0.724,5.884,1.087c2.604,0.482,4.215,1.502,3.636,4.684c-0.555,3.054-2.367,3.194-4.734,2.767
				c-5.554-1.002-11.143-1.851-16.633-3.126c-1.028-0.239-2.494-2.297-2.347-3.311c1.307-9.025,2.836-18.023,4.595-26.971
				c0.197-1.001,2.33-2.451,3.39-2.316c5.586,0.709,11.11,1.894,16.668,2.844c2.765,0.473,3.907,2.296,2.882,4.589
				c-0.563,1.258-2.592,2.361-4.096,2.573c-1.891,0.267-3.982-0.239-5.877-0.79c-3.42-0.993-4.664,0.346-4.454,4.082
				c2.715,0.645,5.538,1.619,8.43,1.918c3.028,0.313,3.938,2.028,3.03,4.323c-0.535,1.351-2.49,2.977-3.833,3.001
				C198.074,392.359,194.985,391.507,191.782,391.003z"/>
			<path fill-rule="evenodd" clip-rule="evenodd" fill="none" d="M265.574,368.505c7.111-2.597,13.729-5.013,20.233-7.388
				c4.154,5.875,4.072,6.207-1.791,8.584c-2.12,0.86-4.243,1.711-6.418,2.587c0.629,3.458,2.019,5.064,5.45,3.565
				c1.501-0.656,3.152-1.67,4.621-1.505c1.482,0.166,3.414,1.299,4.036,2.559c0.491,0.993-0.299,3.205-1.238,4.199
				c-2.152,2.282-7.79,0.06-7.684,5.085c0.067,3.171,1.745,6.31,2.764,9.674c-1.088,0.631-2.031,1.284-3.058,1.754
				c-5.354,2.449-5.917,2.262-7.894-3.269C271.604,385.977,268.729,377.562,265.574,368.505z"/>
			<path fill-rule="evenodd" clip-rule="evenodd" fill="none" d="M163.439,396.745c-3.178-1.142-5.904-2.122-9.152-3.289
				c2.491-6.966,4.623-13.539,7.218-19.924c1.242-3.056,1.06-4.621-2.407-5.323c-3.042-0.616-3.036-3.146-1.904-5.021
				c0.724-1.199,3.155-2.45,4.355-2.097c5.871,1.728,11.582,3.998,17.356,6.054c3.014,1.073,2.803,3.23,1.958,5.627
				c-0.831,2.357-2.264,3.044-4.616,1.894c-3.185-1.559-4.623-0.222-5.679,3.004C168.52,383.926,165.984,390.023,163.439,396.745z"
				/>
			<path fill-rule="evenodd" clip-rule="evenodd" fill="none" d="M119.262,332.595c-5.735,6.297-11.157,12.252-16.852,18.505
				c2.152,2.037,4.023,4.152,6.234,5.815c3.063,2.302,2.083,4.275,0.056,6.501c-2.149,2.36-3.785,0.966-5.45-0.598
				c-3.502-3.289-6.93-6.662-10.533-9.837c-2.456-2.164-2.231-4.085-0.159-6.285c5.663-6.013,11.336-12.018,16.887-18.134
				c2.101-2.315,3.942-1.979,5.906-0.059C116.525,329.652,117.625,330.876,119.262,332.595z"/>
			<path fill-rule="evenodd" clip-rule="evenodd" fill="#2A5663" stroke="#2A5663" stroke-miterlimit="10" d="M303.866,364.614
				c0.368-1.799,0.279-3.957,1.293-5.248c0.516-0.657,3.015,0.243,4.618,0.438c-0.976,1.955-1.952,3.909-2.927,5.863
				C305.855,365.316,304.86,364.965,303.866,364.614z"/>
		</g>
	</g>
</g>
<g id="Layer_2">
</g>
</svg>
