<?xml version="1.0" encoding="utf-8"?>
<!-- Generator: Adobe Illustrator 16.0.0, SVG Export Plug-In . SVG Version: 6.00 Build 0)  -->
<!DOCTYPE svg PUBLIC "-//W3C//DTD SVG 1.1//EN" "http://www.w3.org/Graphics/SVG/1.1/DTD/svg11.dtd">
<svg version="1.1" xmlns="http://www.w3.org/2000/svg" xmlns:xlink="http://www.w3.org/1999/xlink" x="0px" y="0px"
	 width="145.087px" height="136.053px" viewBox="0 0 145.087 136.053" enable-background="new 0 0 145.087 136.053"
	 xml:space="preserve">
<g id="Background">
</g>
<g id="Text">
	<g id="Layer_4">
		<g>
			<path fill-rule="evenodd" clip-rule="evenodd" fill="#2A5663" d="M44.007,0c12.414,3.428,22.615,9.756,27.998,21.254
				c4.086-4.442,7.645-9.651,12.447-13.162C89.333,4.523,95.437,2.628,101.007,0c4,0,8,0,12,0c2.41,0.825,4.844,1.586,7.227,2.485
				c20.471,7.735,29.861,30.284,22.199,53.048c-3.715,11.037-10.688,19.842-18.846,27.808
				c-12.744,12.443-25.777,24.595-38.355,37.203c-4.664,4.678-8.389,10.296-12.561,15.509c-5.4-6.305-10.463-13.068-16.398-18.955
				c-10.516-10.433-21.617-20.275-32.371-30.473C13.519,76.777,4.753,65.91,1.419,51.458C-4.235,26.953,7.261,7.389,31.446,0.732
				 M91.704,106.436c0.166,0.215,0.33,0.43,0.496,0.644c11.664-11.263,23.566-22.294,34.908-33.872
				c6.996-7.145,10.754-16.175,12.482-26.125c3.936-22.675-13.098-42.402-35.742-40.932c-5.66,0.367-10.984,2.09-16.297,6.283
				c24.545,1.348,36.387,23.073,32.734,38.998c-1.83,7.979-4.422,16.079-8.32,23.222C105.958,85.655,98.53,95.881,91.704,106.436z"
				/>
		</g>
	</g>
</g>
<g id="Layer_2">
</g>
</svg>
